G04*
G04 #@! TF.GenerationSoftware,Altium Limited,Altium Designer,20.0.10 (225)*
G04*
G04 Layer_Color=32896*
%FSLAX25Y25*%
%MOIN*%
G70*
G01*
G75*
%ADD12C,0.01000*%
%ADD29C,0.01181*%
G36*
X148465Y240006D02*
X148096D01*
Y238900D01*
X147727D01*
Y237794D01*
X147359D01*
Y236688D01*
X146990D01*
Y235582D01*
X146621D01*
Y234476D01*
X146252D01*
Y233369D01*
X145884D01*
Y232263D01*
X145515D01*
Y231157D01*
X145146D01*
Y230051D01*
X144778D01*
Y228945D01*
X144409D01*
Y227839D01*
X144040D01*
Y226733D01*
X143671D01*
Y225627D01*
X143303D01*
Y224520D01*
X142934D01*
Y223414D01*
X142565D01*
Y222308D01*
X142934D01*
Y221940D01*
X143303D01*
Y221571D01*
X143671D01*
Y221202D01*
X144409D01*
Y220833D01*
X144778D01*
Y220465D01*
X145515D01*
Y220096D01*
X145884D01*
Y219727D01*
X146252D01*
Y219359D01*
X146990D01*
Y218990D01*
X147359D01*
Y218621D01*
X147727D01*
Y218252D01*
X148465D01*
Y217884D01*
X148833D01*
Y217515D01*
X149571D01*
Y217146D01*
X149939D01*
Y216778D01*
X150677D01*
Y216409D01*
X151046D01*
Y216040D01*
X151414D01*
Y215671D01*
X152152D01*
Y215303D01*
X152521D01*
Y214934D01*
X152889D01*
Y214565D01*
X153627D01*
Y214197D01*
X153995D01*
Y213828D01*
X154364D01*
Y213459D01*
X155101D01*
Y213090D01*
X155470D01*
Y212722D01*
X156208D01*
Y212353D01*
X156576D01*
Y211984D01*
X156945D01*
Y211616D01*
X157682D01*
Y211247D01*
X149571D01*
Y211616D01*
X138878D01*
Y210510D01*
X138509D01*
Y209403D01*
X138141D01*
Y207929D01*
X137772D01*
Y206454D01*
X137403D01*
Y205348D01*
X137035D01*
Y204241D01*
X136666D01*
Y202767D01*
X136297D01*
Y201292D01*
X135928D01*
Y200186D01*
X135560D01*
Y199080D01*
X135191D01*
Y197605D01*
X134822D01*
Y196130D01*
X134454D01*
Y195024D01*
X134085D01*
Y193918D01*
X133716D01*
Y193180D01*
X133347D01*
Y194286D01*
X132979D01*
Y195761D01*
X132610D01*
Y197236D01*
X132241D01*
Y198342D01*
X131873D01*
Y199448D01*
X131504D01*
Y200923D01*
X131135D01*
Y202029D01*
X130766D01*
Y203504D01*
X130398D01*
Y204610D01*
X130029D01*
Y206085D01*
X129660D01*
Y207560D01*
X129292D01*
Y208666D01*
X128923D01*
Y209772D01*
X128554D01*
Y211247D01*
X128185D01*
Y211616D01*
X116755D01*
Y211247D01*
X109750D01*
Y211616D01*
X110119D01*
Y211984D01*
X110856D01*
Y212353D01*
X111225D01*
Y212722D01*
X111594D01*
Y213090D01*
X112331D01*
Y213459D01*
X112700D01*
Y213828D01*
X113068D01*
Y214197D01*
X113806D01*
Y214565D01*
X114175D01*
Y214934D01*
X114912D01*
Y215303D01*
X115281D01*
Y215671D01*
X115649D01*
Y216040D01*
X116387D01*
Y216409D01*
X116755D01*
Y216778D01*
X117124D01*
Y217146D01*
X117862D01*
Y217515D01*
X118230D01*
Y217884D01*
X118968D01*
Y218252D01*
X119336D01*
Y218621D01*
X119705D01*
Y218990D01*
X120443D01*
Y219359D01*
X120811D01*
Y219727D01*
X121549D01*
Y220096D01*
X121917D01*
Y220465D01*
X122286D01*
Y220833D01*
X123024D01*
Y221202D01*
X123392D01*
Y221571D01*
X123761D01*
Y221940D01*
X124498D01*
Y222308D01*
X124867D01*
Y223046D01*
X124498D01*
Y224152D01*
X124130D01*
Y225258D01*
X123761D01*
Y226364D01*
X123392D01*
Y227470D01*
X123024D01*
Y228576D01*
X122655D01*
Y229682D01*
X122286D01*
Y230789D01*
X121917D01*
Y231895D01*
X121549D01*
Y233001D01*
X121180D01*
Y234107D01*
X120811D01*
Y235213D01*
X120443D01*
Y235951D01*
X120074D01*
Y237425D01*
X119705D01*
Y238531D01*
X119336D01*
Y239638D01*
X118968D01*
Y240375D01*
X118599D01*
Y240744D01*
X119336D01*
Y240375D01*
X119705D01*
Y240006D01*
X120074D01*
Y239638D01*
X120443D01*
Y239269D01*
X121180D01*
Y238900D01*
X121549D01*
Y238531D01*
X121917D01*
Y238163D01*
X122655D01*
Y237794D01*
X123024D01*
Y237425D01*
X123392D01*
Y237057D01*
X123761D01*
Y236688D01*
X124498D01*
Y236319D01*
X124867D01*
Y235951D01*
X125236D01*
Y235582D01*
X125605D01*
Y235213D01*
X126342D01*
Y234844D01*
X126711D01*
Y234476D01*
X127079D01*
Y234107D01*
X127448D01*
Y233738D01*
X128185D01*
Y233369D01*
X128554D01*
Y233001D01*
X128923D01*
Y232632D01*
X129292D01*
Y232263D01*
X130029D01*
Y231895D01*
X130398D01*
Y231526D01*
X130766D01*
Y231157D01*
X131135D01*
Y230789D01*
X131873D01*
Y230420D01*
X132241D01*
Y230051D01*
X132610D01*
Y229682D01*
X133347D01*
Y229314D01*
X134085D01*
Y229682D01*
X134454D01*
Y230051D01*
X135191D01*
Y230420D01*
X135560D01*
Y230789D01*
X135928D01*
Y231157D01*
X136297D01*
Y231526D01*
X137035D01*
Y231895D01*
X137403D01*
Y232263D01*
X137772D01*
Y232632D01*
X138509D01*
Y233001D01*
X138878D01*
Y233369D01*
X139247D01*
Y233738D01*
X139616D01*
Y234107D01*
X140353D01*
Y234476D01*
X140722D01*
Y234844D01*
X141090D01*
Y235213D01*
X141459D01*
Y235582D01*
X142197D01*
Y235951D01*
X142565D01*
Y236319D01*
X142934D01*
Y236688D01*
X143303D01*
Y237057D01*
X144040D01*
Y237425D01*
X144409D01*
Y237794D01*
X144778D01*
Y238163D01*
X145146D01*
Y238531D01*
X145884D01*
Y238900D01*
X146252D01*
Y239269D01*
X146621D01*
Y239638D01*
X146990D01*
Y240006D01*
X147727D01*
Y240375D01*
X148096D01*
Y240744D01*
X148465D01*
Y240006D01*
D02*
G37*
G36*
X105694Y192812D02*
X105325D01*
Y193180D01*
X105694D01*
Y192812D01*
D02*
G37*
G36*
X105325Y192443D02*
X104957D01*
Y192812D01*
X105325D01*
Y192443D01*
D02*
G37*
G36*
X161001Y193918D02*
X161370D01*
Y193549D01*
X161738D01*
Y193180D01*
X162476D01*
Y192812D01*
X162844D01*
Y192443D01*
X163582D01*
Y192074D01*
X163950D01*
Y191705D01*
X164319D01*
Y191337D01*
X165057D01*
Y190968D01*
X165425D01*
Y190599D01*
X165794D01*
Y190231D01*
X166163D01*
Y189862D01*
X166900D01*
Y189493D01*
X167269D01*
Y189124D01*
X167638D01*
Y188756D01*
X168006D01*
Y188387D01*
X168375D01*
Y188018D01*
X168744D01*
Y187650D01*
X169112D01*
Y187281D01*
X169481D01*
Y186912D01*
X169850D01*
Y186543D01*
X170219D01*
Y186175D01*
X170587D01*
Y185806D01*
X170956D01*
Y185437D01*
X171325D01*
Y185069D01*
X171693D01*
Y184700D01*
X172062D01*
Y184331D01*
X172431D01*
Y183594D01*
X172799D01*
Y183225D01*
X173168D01*
Y182856D01*
X173537D01*
Y182488D01*
X173906D01*
Y181750D01*
X174274D01*
Y181381D01*
X174643D01*
Y181013D01*
X175012D01*
Y180275D01*
X175380D01*
Y179907D01*
X175749D01*
Y179169D01*
X176118D01*
Y178800D01*
X176487D01*
Y178432D01*
X176855D01*
Y177694D01*
X177224D01*
Y176957D01*
X177593D01*
Y176588D01*
X177961D01*
Y175851D01*
X178330D01*
Y175113D01*
X178699D01*
Y174376D01*
X179068D01*
Y173638D01*
X179436D01*
Y173270D01*
X179805D01*
Y172164D01*
X180174D01*
Y171426D01*
X180542D01*
Y170689D01*
X180911D01*
Y169951D01*
X181280D01*
Y168845D01*
X181649D01*
Y168108D01*
X182017D01*
Y167002D01*
X182386D01*
Y166264D01*
X182755D01*
Y164789D01*
X183123D01*
Y163683D01*
X183492D01*
Y162208D01*
X183861D01*
Y160734D01*
X184230D01*
Y159259D01*
X184598D01*
Y156678D01*
X184967D01*
Y154097D01*
X185336D01*
Y141929D01*
X184967D01*
Y139349D01*
X184598D01*
Y137136D01*
X184230D01*
Y135293D01*
X183861D01*
Y133818D01*
X183492D01*
Y132712D01*
X183123D01*
Y131237D01*
X182755D01*
Y130131D01*
X182386D01*
Y129025D01*
X182017D01*
Y128287D01*
X181649D01*
Y127181D01*
X181280D01*
Y126444D01*
X180911D01*
Y125338D01*
X180542D01*
Y124600D01*
X180174D01*
Y123863D01*
X179805D01*
Y123125D01*
X179436D01*
Y122388D01*
X179068D01*
Y121651D01*
X178699D01*
Y120913D01*
X178330D01*
Y120544D01*
X177961D01*
Y119807D01*
X177593D01*
Y119070D01*
X177224D01*
Y118701D01*
X176855D01*
Y117963D01*
X176487D01*
Y117595D01*
X176118D01*
Y116857D01*
X175749D01*
Y116120D01*
X175380D01*
Y115751D01*
X175012D01*
Y115382D01*
X174643D01*
Y114645D01*
X174274D01*
Y114276D01*
X173906D01*
Y113908D01*
X173537D01*
Y113539D01*
X173168D01*
Y112801D01*
X172799D01*
Y112433D01*
X172431D01*
Y112064D01*
X172062D01*
Y111695D01*
X171693D01*
Y111327D01*
X171325D01*
Y110958D01*
X170956D01*
Y110220D01*
X170219D01*
Y109852D01*
X169850D01*
Y109114D01*
X169481D01*
Y108746D01*
X168744D01*
Y108377D01*
X168375D01*
Y108008D01*
X168006D01*
Y107639D01*
X167638D01*
Y107271D01*
X167269D01*
Y106902D01*
X166900D01*
Y106533D01*
X166531D01*
Y106165D01*
X166163D01*
Y105796D01*
X165425D01*
Y105427D01*
X165057D01*
Y105059D01*
X164688D01*
Y104690D01*
X164319D01*
Y104321D01*
X163582D01*
Y103952D01*
X163213D01*
Y103584D01*
X162844D01*
Y103215D01*
X162107D01*
Y102846D01*
X161738D01*
Y102478D01*
X161001D01*
Y102109D01*
X160632D01*
Y101740D01*
X159895D01*
Y101371D01*
X159157D01*
Y101003D01*
X158420D01*
Y100634D01*
X158051D01*
Y100265D01*
X157314D01*
Y99897D01*
X156576D01*
Y99528D01*
X155839D01*
Y99159D01*
X155101D01*
Y98790D01*
X154364D01*
Y98422D01*
X153627D01*
Y98053D01*
X152521D01*
Y97684D01*
X151783D01*
Y97316D01*
X150677D01*
Y96947D01*
X149571D01*
Y96578D01*
X148465D01*
Y96210D01*
X146990D01*
Y95841D01*
X145884D01*
Y95472D01*
X144040D01*
Y95103D01*
X141828D01*
Y94735D01*
X139247D01*
Y94366D01*
X128554D01*
Y94735D01*
X125973D01*
Y95103D01*
X123761D01*
Y95472D01*
X121917D01*
Y95841D01*
X120811D01*
Y96210D01*
X119336D01*
Y96578D01*
X118230D01*
Y96947D01*
X117124D01*
Y97316D01*
X116387D01*
Y97684D01*
X115281D01*
Y98053D01*
X114175D01*
Y98422D01*
X113437D01*
Y98790D01*
X112700D01*
Y99159D01*
X111962D01*
Y99528D01*
X111225D01*
Y99897D01*
X110487D01*
Y100265D01*
X109750D01*
Y100634D01*
X109381D01*
Y101003D01*
X108644D01*
Y101371D01*
X107906D01*
Y101740D01*
X107169D01*
Y102109D01*
X106800D01*
Y102478D01*
X106063D01*
Y102846D01*
X105694D01*
Y103215D01*
X105325D01*
Y103584D01*
X104588D01*
Y103952D01*
X104219D01*
Y104321D01*
X103482D01*
Y104690D01*
X103113D01*
Y105059D01*
X102745D01*
Y105427D01*
X102376D01*
Y105796D01*
X101638D01*
Y106165D01*
X101270D01*
Y106533D01*
X100901D01*
Y106902D01*
X100532D01*
Y107271D01*
X100163D01*
Y107639D01*
X99795D01*
Y108008D01*
X99426D01*
Y108377D01*
X99058D01*
Y108746D01*
X98320D01*
Y109483D01*
X97951D01*
Y109852D01*
X97583D01*
Y110220D01*
X97214D01*
Y110589D01*
X96845D01*
Y110958D01*
X96477D01*
Y111327D01*
X96108D01*
Y111695D01*
X95739D01*
Y112064D01*
X95370D01*
Y112433D01*
X95002D01*
Y113170D01*
X94633D01*
Y113539D01*
X94264D01*
Y113908D01*
X93896D01*
Y114276D01*
X93527D01*
Y115014D01*
X93158D01*
Y115382D01*
X92789D01*
Y115751D01*
X92421D01*
Y116489D01*
X92052D01*
Y116857D01*
X91683D01*
Y117595D01*
X91315D01*
Y117963D01*
X90946D01*
Y118701D01*
X90577D01*
Y119070D01*
X90208D01*
Y119807D01*
X89840D01*
Y120544D01*
X89471D01*
Y120913D01*
X89102D01*
Y121651D01*
X88734D01*
Y122388D01*
X88365D01*
Y123125D01*
X87996D01*
Y123863D01*
X87628D01*
Y124969D01*
X87259D01*
Y125706D01*
X86890D01*
Y126444D01*
X86521D01*
Y127181D01*
X86153D01*
Y128287D01*
X85784D01*
Y129393D01*
X85415D01*
Y130131D01*
X85046D01*
Y131606D01*
X84678D01*
Y132712D01*
X84309D01*
Y134187D01*
X83940D01*
Y135293D01*
X83572D01*
Y137136D01*
X83203D01*
Y139717D01*
X82834D01*
Y142298D01*
X82465D01*
Y153728D01*
X82834D01*
Y156678D01*
X83203D01*
Y158890D01*
X83572D01*
Y160734D01*
X83940D01*
Y162208D01*
X84309D01*
Y163315D01*
X84678D01*
Y164789D01*
X85046D01*
Y165896D01*
X85415D01*
Y167002D01*
X85784D01*
Y167739D01*
X86153D01*
Y168845D01*
X86521D01*
Y169951D01*
X86890D01*
Y170689D01*
X87259D01*
Y171426D01*
X87628D01*
Y172164D01*
X87996D01*
Y172901D01*
X88365D01*
Y173638D01*
X88734D01*
Y174376D01*
X89102D01*
Y175113D01*
X89471D01*
Y175851D01*
X89840D01*
Y176219D01*
X90208D01*
Y176957D01*
X90577D01*
Y177694D01*
X90946D01*
Y178063D01*
X91315D01*
Y178800D01*
X91683D01*
Y179169D01*
X92052D01*
Y179907D01*
X92421D01*
Y180275D01*
X92789D01*
Y181013D01*
X93158D01*
Y181381D01*
X93527D01*
Y181750D01*
X93896D01*
Y182488D01*
X94264D01*
Y182856D01*
X94633D01*
Y183225D01*
X95002D01*
Y183594D01*
X95370D01*
Y183962D01*
X95739D01*
Y184331D01*
X96108D01*
Y185069D01*
X96477D01*
Y185437D01*
X96845D01*
Y185806D01*
X97214D01*
Y186175D01*
X97583D01*
Y186543D01*
X97951D01*
Y186912D01*
X98320D01*
Y187281D01*
X98689D01*
Y187650D01*
X99058D01*
Y188018D01*
X99426D01*
Y188387D01*
X99795D01*
Y188756D01*
X100163D01*
Y189124D01*
X100532D01*
Y189493D01*
X100901D01*
Y189862D01*
X101638D01*
Y190231D01*
X102007D01*
Y190599D01*
X102376D01*
Y190968D01*
X102745D01*
Y191337D01*
X103482D01*
Y191705D01*
X103851D01*
Y192074D01*
X104219D01*
Y192443D01*
X104957D01*
Y192074D01*
X104588D01*
Y191705D01*
X104219D01*
Y191337D01*
X103851D01*
Y190968D01*
X103482D01*
Y190599D01*
X103113D01*
Y190231D01*
X102745D01*
Y189862D01*
X102376D01*
Y189124D01*
X102007D01*
Y188756D01*
X101638D01*
Y188387D01*
X101270D01*
Y188018D01*
X100901D01*
Y187281D01*
X100532D01*
Y186912D01*
X100163D01*
Y186543D01*
X99795D01*
Y185806D01*
X99426D01*
Y185437D01*
X99058D01*
Y184700D01*
X98689D01*
Y183962D01*
X98320D01*
Y183594D01*
X97951D01*
Y182856D01*
X97583D01*
Y182119D01*
X97214D01*
Y181381D01*
X96845D01*
Y180644D01*
X96477D01*
Y179907D01*
X96108D01*
Y179169D01*
X95739D01*
Y178432D01*
X95370D01*
Y177326D01*
X95002D01*
Y176219D01*
X94633D01*
Y175482D01*
X94264D01*
Y174376D01*
X93896D01*
Y172901D01*
X93527D01*
Y171426D01*
X93158D01*
Y169951D01*
X92789D01*
Y167739D01*
X92421D01*
Y162946D01*
X92052D01*
Y159627D01*
X92421D01*
Y154834D01*
X92789D01*
Y152622D01*
X93158D01*
Y151147D01*
X93527D01*
Y149672D01*
X93896D01*
Y148198D01*
X94264D01*
Y147091D01*
X94633D01*
Y146354D01*
X95002D01*
Y145248D01*
X95370D01*
Y144142D01*
X95739D01*
Y143404D01*
X96108D01*
Y142667D01*
X96477D01*
Y141929D01*
X96845D01*
Y141192D01*
X97214D01*
Y140455D01*
X97583D01*
Y139717D01*
X97951D01*
Y138980D01*
X98320D01*
Y138242D01*
X98689D01*
Y137874D01*
X99058D01*
Y137505D01*
X99426D01*
Y136768D01*
X99795D01*
Y136030D01*
X100163D01*
Y135661D01*
X100532D01*
Y135293D01*
X100901D01*
Y134555D01*
X101270D01*
Y134187D01*
X101638D01*
Y133818D01*
X102007D01*
Y133449D01*
X102376D01*
Y132712D01*
X102745D01*
Y132343D01*
X103113D01*
Y131974D01*
X103482D01*
Y131606D01*
X103851D01*
Y131237D01*
X104219D01*
Y130868D01*
X104588D01*
Y130499D01*
X104957D01*
Y130131D01*
X105325D01*
Y129762D01*
X105694D01*
Y129393D01*
X106063D01*
Y129025D01*
X106432D01*
Y128656D01*
X106800D01*
Y128287D01*
X107169D01*
Y127919D01*
X107906D01*
Y127550D01*
X108275D01*
Y127181D01*
X108644D01*
Y126812D01*
X109013D01*
Y126444D01*
X109750D01*
Y126075D01*
X110119D01*
Y125706D01*
X110487D01*
Y125338D01*
X111225D01*
Y124969D01*
X111962D01*
Y124600D01*
X112331D01*
Y124231D01*
X113068D01*
Y123863D01*
X113437D01*
Y123494D01*
X114175D01*
Y123125D01*
X114912D01*
Y122757D01*
X115649D01*
Y122388D01*
X116387D01*
Y122019D01*
X117124D01*
Y121651D01*
X118230D01*
Y121282D01*
X118968D01*
Y120913D01*
X120074D01*
Y120544D01*
X121180D01*
Y120176D01*
X122286D01*
Y119807D01*
X123392D01*
Y119438D01*
X125236D01*
Y119070D01*
X127079D01*
Y118701D01*
X129660D01*
Y118332D01*
X137403D01*
Y118701D01*
X139984D01*
Y119070D01*
X142197D01*
Y119438D01*
X143671D01*
Y119807D01*
X145146D01*
Y120176D01*
X146252D01*
Y120544D01*
X147359D01*
Y120913D01*
X148096D01*
Y121282D01*
X149202D01*
Y121651D01*
X149939D01*
Y122019D01*
X150677D01*
Y122388D01*
X151414D01*
Y122757D01*
X152152D01*
Y123125D01*
X152889D01*
Y123494D01*
X153627D01*
Y123863D01*
X154364D01*
Y124231D01*
X154733D01*
Y124600D01*
X155470D01*
Y124969D01*
X155839D01*
Y125338D01*
X156576D01*
Y125706D01*
X156945D01*
Y126075D01*
X157682D01*
Y126444D01*
X158051D01*
Y126812D01*
X158420D01*
Y127181D01*
X159157D01*
Y127550D01*
X159526D01*
Y127919D01*
X159895D01*
Y128287D01*
X160263D01*
Y128656D01*
X160632D01*
Y129025D01*
X161001D01*
Y129393D01*
X161370D01*
Y129762D01*
X162107D01*
Y130131D01*
X162476D01*
Y130868D01*
X162844D01*
Y131237D01*
X163213D01*
Y131606D01*
X163582D01*
Y131974D01*
X163950D01*
Y132343D01*
X164319D01*
Y132712D01*
X164688D01*
Y133080D01*
X165057D01*
Y133449D01*
X165425D01*
Y134187D01*
X165794D01*
Y134555D01*
X166163D01*
Y134924D01*
X166531D01*
Y135661D01*
X166900D01*
Y136030D01*
X167269D01*
Y136399D01*
X167638D01*
Y137136D01*
X168006D01*
Y137505D01*
X168375D01*
Y138242D01*
X168744D01*
Y138980D01*
X169112D01*
Y139349D01*
X169481D01*
Y140086D01*
X169850D01*
Y140823D01*
X170219D01*
Y141561D01*
X170587D01*
Y142298D01*
X170956D01*
Y143036D01*
X171325D01*
Y144142D01*
X171693D01*
Y144879D01*
X172062D01*
Y145617D01*
X172431D01*
Y146723D01*
X172799D01*
Y147829D01*
X173168D01*
Y148935D01*
X173537D01*
Y150410D01*
X173906D01*
Y152253D01*
X174274D01*
Y154097D01*
X174643D01*
Y156678D01*
X175012D01*
Y165896D01*
X174643D01*
Y168477D01*
X174274D01*
Y170320D01*
X173906D01*
Y172164D01*
X173537D01*
Y173638D01*
X173168D01*
Y174745D01*
X172799D01*
Y175851D01*
X172431D01*
Y176957D01*
X172062D01*
Y177694D01*
X171693D01*
Y178432D01*
X171325D01*
Y179538D01*
X170956D01*
Y180275D01*
X170587D01*
Y181013D01*
X170219D01*
Y181750D01*
X169850D01*
Y182488D01*
X169481D01*
Y183225D01*
X169112D01*
Y183962D01*
X168744D01*
Y184331D01*
X168375D01*
Y185069D01*
X168006D01*
Y185437D01*
X167638D01*
Y186175D01*
X167269D01*
Y186543D01*
X166900D01*
Y186912D01*
X166531D01*
Y187650D01*
X166163D01*
Y188018D01*
X165794D01*
Y188387D01*
X165425D01*
Y189124D01*
X165057D01*
Y189493D01*
X164688D01*
Y189862D01*
X164319D01*
Y190231D01*
X163950D01*
Y190599D01*
X163582D01*
Y190968D01*
X163213D01*
Y191337D01*
X162844D01*
Y191705D01*
X162476D01*
Y192443D01*
X162107D01*
Y192812D01*
X161370D01*
Y193180D01*
X161001D01*
Y193549D01*
X160632D01*
Y193918D01*
X160263D01*
Y194286D01*
X161001D01*
Y193918D01*
D02*
G37*
G36*
X277227Y47356D02*
X277163D01*
Y47483D01*
X277227D01*
Y47356D01*
D02*
G37*
G36*
X277163Y47229D02*
X277100D01*
Y47102D01*
X277036D01*
Y46975D01*
X276973D01*
Y46848D01*
X276909D01*
Y46721D01*
X276846D01*
Y46594D01*
X276782D01*
Y46467D01*
X276719D01*
Y46340D01*
X276655D01*
Y46213D01*
X276592D01*
Y46086D01*
X276528D01*
Y46022D01*
X276465D01*
Y45895D01*
X276401D01*
Y45768D01*
X276338D01*
Y45641D01*
X276274D01*
Y45578D01*
X276210D01*
Y45451D01*
X276147D01*
Y45324D01*
X276083D01*
Y45260D01*
X276020D01*
Y45133D01*
X275957D01*
Y45006D01*
X275893D01*
Y44943D01*
X275830D01*
Y44879D01*
X275766D01*
Y44752D01*
X275703D01*
Y44689D01*
X275639D01*
Y44562D01*
X275575D01*
Y44498D01*
X275512D01*
Y44371D01*
X275448D01*
Y44308D01*
X275385D01*
Y44244D01*
X275321D01*
Y44117D01*
X275258D01*
Y44054D01*
X275194D01*
Y43990D01*
X275131D01*
Y43863D01*
X275067D01*
Y43800D01*
X275004D01*
Y43736D01*
X274940D01*
Y43673D01*
X274877D01*
Y43609D01*
X274813D01*
Y43482D01*
X274750D01*
Y43419D01*
X274686D01*
Y43355D01*
X274623D01*
Y43228D01*
X274496D01*
Y43101D01*
X274369D01*
Y42974D01*
X274305D01*
Y42911D01*
X274242D01*
Y42847D01*
X274178D01*
Y42784D01*
X274115D01*
Y42720D01*
X274051D01*
Y42656D01*
X273988D01*
Y42593D01*
X273924D01*
Y42529D01*
X273861D01*
Y42402D01*
X273670D01*
Y42276D01*
X273543D01*
Y42212D01*
X273480D01*
Y42149D01*
X273416D01*
Y42085D01*
X273353D01*
Y42022D01*
X273289D01*
Y41958D01*
X273226D01*
Y41895D01*
X273099D01*
Y41831D01*
X273035D01*
Y41767D01*
X272972D01*
Y41704D01*
X272908D01*
Y41640D01*
X272781D01*
Y41577D01*
X272718D01*
Y41513D01*
X272654D01*
Y41450D01*
X272527D01*
Y41386D01*
X272464D01*
Y41323D01*
X272337D01*
Y41259D01*
X272273D01*
Y41196D01*
X272210D01*
Y41132D01*
X272082D01*
Y41069D01*
X271955D01*
Y41005D01*
X271829D01*
Y40942D01*
X271765D01*
Y40878D01*
X271638D01*
Y40815D01*
X271511D01*
Y40751D01*
X271384D01*
Y40688D01*
X271257D01*
Y40624D01*
X271193D01*
Y40561D01*
X271003D01*
Y40497D01*
X270939D01*
Y40434D01*
X270749D01*
Y40370D01*
X270622D01*
Y40307D01*
X270495D01*
Y40243D01*
X270304D01*
Y40180D01*
X270114D01*
Y40116D01*
X269987D01*
Y40053D01*
X269796D01*
Y39989D01*
X269606D01*
Y39926D01*
X269352D01*
Y39862D01*
X269161D01*
Y39799D01*
X268907D01*
Y39735D01*
X268653D01*
Y39672D01*
X268399D01*
Y39608D01*
X268018D01*
Y39545D01*
X267573D01*
Y39481D01*
X267256D01*
Y39418D01*
X267192D01*
Y39481D01*
X267129D01*
Y39418D01*
X267065D01*
Y39481D01*
X266938D01*
Y39418D01*
X266811D01*
Y39354D01*
X266748D01*
Y39418D01*
X266621D01*
Y39354D01*
X266557D01*
Y39418D01*
X266430D01*
Y39354D01*
X266367D01*
Y39291D01*
X266303D01*
Y39354D01*
X266240D01*
Y39418D01*
X266049D01*
Y39354D01*
X265986D01*
Y39291D01*
X265922D01*
Y39354D01*
X265859D01*
Y39291D01*
X265795D01*
Y39354D01*
X265732D01*
Y39291D01*
X265668D01*
Y39354D01*
X265605D01*
Y39291D01*
X265541D01*
Y39354D01*
X265478D01*
Y39291D01*
X265414D01*
Y39354D01*
X265351D01*
Y39291D01*
X265287D01*
Y39354D01*
X265224D01*
Y39418D01*
X264970D01*
Y39354D01*
X264843D01*
Y39418D01*
X264652D01*
Y39354D01*
X264525D01*
Y39418D01*
X264462D01*
Y39354D01*
X264398D01*
Y39418D01*
X264208D01*
Y39481D01*
X264081D01*
Y39418D01*
X264017D01*
Y39481D01*
X263953D01*
Y39418D01*
X263890D01*
Y39481D01*
X263509D01*
Y39545D01*
X263001D01*
Y39608D01*
X262493D01*
Y39672D01*
X262112D01*
Y39735D01*
X261794D01*
Y39799D01*
X261477D01*
Y39862D01*
X261159D01*
Y39926D01*
X260842D01*
Y39989D01*
X260588D01*
Y40053D01*
X260270D01*
Y40116D01*
X260080D01*
Y40180D01*
X259825D01*
Y40243D01*
X259508D01*
Y40307D01*
X259317D01*
Y40370D01*
X259063D01*
Y40434D01*
X258809D01*
Y40497D01*
X258555D01*
Y40561D01*
X258238D01*
Y40624D01*
X258047D01*
Y40688D01*
X257857D01*
Y40751D01*
X257603D01*
Y40815D01*
X257349D01*
Y40878D01*
X257095D01*
Y40942D01*
X256968D01*
Y41005D01*
X256714D01*
Y41069D01*
X256460D01*
Y41132D01*
X256206D01*
Y41196D01*
X256015D01*
Y41259D01*
X255697D01*
Y41323D01*
X255507D01*
Y41386D01*
X255189D01*
Y41450D01*
X254935D01*
Y41513D01*
X254618D01*
Y41577D01*
X254364D01*
Y41640D01*
X254046D01*
Y41704D01*
X253729D01*
Y41767D01*
X253284D01*
Y41831D01*
X252776D01*
Y41895D01*
X252713D01*
Y41831D01*
X252649D01*
Y41895D01*
X252395D01*
Y41958D01*
X252332D01*
Y41895D01*
X252268D01*
Y41831D01*
X252205D01*
Y41958D01*
X252141D01*
Y41895D01*
X252014D01*
Y41958D01*
X251887D01*
Y41895D01*
X251760D01*
Y41958D01*
X251315D01*
Y41895D01*
X251252D01*
Y41958D01*
X250934D01*
Y41895D01*
X250807D01*
Y41958D01*
X250680D01*
Y41895D01*
X250553D01*
Y41958D01*
X250490D01*
Y41895D01*
X249982D01*
Y41831D01*
X249537D01*
Y41767D01*
X249220D01*
Y41704D01*
X249029D01*
Y41640D01*
X248775D01*
Y41577D01*
X248585D01*
Y41513D01*
X248394D01*
Y41450D01*
X248204D01*
Y41386D01*
X248077D01*
Y41323D01*
X247886D01*
Y41259D01*
X247759D01*
Y41196D01*
X247632D01*
Y41132D01*
X247505D01*
Y41069D01*
X247378D01*
Y41005D01*
X247251D01*
Y40942D01*
X247124D01*
Y40878D01*
X246997D01*
Y40815D01*
X246870D01*
Y40751D01*
X246806D01*
Y40688D01*
X246679D01*
Y40624D01*
X246616D01*
Y40561D01*
X246489D01*
Y40497D01*
X246362D01*
Y40434D01*
X246298D01*
Y40370D01*
X246171D01*
Y40307D01*
X246108D01*
Y40243D01*
X246044D01*
Y40180D01*
X245981D01*
Y40116D01*
X245854D01*
Y40053D01*
X245790D01*
Y39989D01*
X245727D01*
Y39926D01*
X245600D01*
Y39862D01*
X245536D01*
Y39799D01*
X245473D01*
Y39735D01*
X245409D01*
Y39672D01*
X245346D01*
Y39608D01*
X245219D01*
Y39545D01*
X245155D01*
Y39481D01*
X245092D01*
Y39418D01*
X245028D01*
Y39354D01*
X244965D01*
Y39291D01*
X244901D01*
Y39227D01*
X244838D01*
Y39164D01*
X244774D01*
Y39100D01*
X244711D01*
Y38973D01*
X244647D01*
Y38910D01*
X244584D01*
Y38846D01*
X244520D01*
Y38783D01*
X244393D01*
Y38719D01*
X244330D01*
Y38655D01*
X244266D01*
Y38592D01*
X244203D01*
Y38465D01*
X244076D01*
Y38401D01*
X244012D01*
Y38338D01*
X243949D01*
Y38274D01*
X243885D01*
Y38211D01*
X243822D01*
Y38084D01*
X243694D01*
Y37957D01*
X243631D01*
Y37894D01*
X243567D01*
Y37830D01*
X243504D01*
Y37766D01*
X243441D01*
Y37894D01*
X243504D01*
Y38021D01*
X243567D01*
Y38148D01*
X243631D01*
Y38274D01*
X243694D01*
Y38401D01*
X243758D01*
Y38528D01*
X243822D01*
Y38655D01*
X243885D01*
Y38783D01*
X243949D01*
Y38910D01*
X244012D01*
Y39037D01*
X244076D01*
Y39164D01*
X244139D01*
Y39291D01*
X244203D01*
Y39418D01*
X244266D01*
Y39545D01*
X244330D01*
Y39672D01*
X244393D01*
Y39799D01*
X244457D01*
Y39862D01*
X244520D01*
Y39989D01*
X244584D01*
Y40116D01*
X244647D01*
Y40243D01*
X244711D01*
Y40370D01*
X244774D01*
Y40434D01*
X244838D01*
Y40561D01*
X244901D01*
Y40688D01*
X244965D01*
Y40751D01*
X245028D01*
Y40878D01*
X245092D01*
Y40942D01*
X245155D01*
Y41069D01*
X245219D01*
Y41196D01*
X245282D01*
Y41259D01*
X245346D01*
Y41386D01*
X245409D01*
Y41450D01*
X245473D01*
Y41577D01*
X245536D01*
Y41640D01*
X245600D01*
Y41767D01*
X245663D01*
Y41831D01*
X245727D01*
Y41895D01*
X245790D01*
Y42022D01*
X245854D01*
Y42085D01*
X245917D01*
Y42149D01*
X245981D01*
Y42276D01*
X246044D01*
Y42339D01*
X246108D01*
Y42402D01*
X246171D01*
Y42529D01*
X246235D01*
Y42593D01*
X246298D01*
Y42656D01*
X246362D01*
Y42720D01*
X246425D01*
Y42847D01*
X246489D01*
Y42911D01*
X246552D01*
Y42974D01*
X246616D01*
Y43038D01*
X246679D01*
Y43101D01*
X246743D01*
Y43228D01*
X246870D01*
Y43292D01*
X246933D01*
Y43355D01*
X246997D01*
Y43419D01*
X247060D01*
Y43482D01*
X247124D01*
Y43546D01*
X247187D01*
Y43609D01*
X247251D01*
Y43736D01*
X247378D01*
Y43800D01*
X247442D01*
Y43863D01*
X247505D01*
Y43927D01*
X247632D01*
Y43990D01*
X247695D01*
Y44054D01*
X247759D01*
Y44117D01*
X247822D01*
Y44181D01*
X247886D01*
Y44244D01*
X248013D01*
Y44308D01*
X248077D01*
Y44371D01*
X248204D01*
Y44435D01*
X248267D01*
Y44498D01*
X248331D01*
Y44562D01*
X248458D01*
Y44625D01*
X248521D01*
Y44689D01*
X248648D01*
Y44752D01*
X248775D01*
Y44816D01*
X248902D01*
Y44879D01*
X249029D01*
Y44943D01*
X249093D01*
Y45006D01*
X249220D01*
Y45070D01*
X249410D01*
Y45133D01*
X249537D01*
Y45197D01*
X249664D01*
Y45260D01*
X249855D01*
Y45324D01*
X250045D01*
Y45387D01*
X250172D01*
Y45451D01*
X250426D01*
Y45514D01*
X250744D01*
Y45578D01*
X250998D01*
Y45641D01*
X251315D01*
Y45705D01*
X251696D01*
Y45768D01*
X251760D01*
Y45705D01*
X251951D01*
Y45768D01*
X252205D01*
Y45832D01*
X252268D01*
Y45768D01*
X252586D01*
Y45832D01*
X252776D01*
Y45768D01*
X252840D01*
Y45832D01*
X252967D01*
Y45768D01*
X253221D01*
Y45832D01*
X253284D01*
Y45768D01*
X253348D01*
Y45832D01*
X253411D01*
Y45768D01*
X253602D01*
Y45705D01*
X253729D01*
Y45832D01*
X253792D01*
Y45705D01*
X253856D01*
Y45768D01*
X253919D01*
Y45705D01*
X254046D01*
Y45768D01*
X254110D01*
Y45705D01*
X254173D01*
Y45768D01*
X254237D01*
Y45705D01*
X254364D01*
Y45641D01*
X254872D01*
Y45578D01*
X255253D01*
Y45514D01*
X255634D01*
Y45451D01*
X256015D01*
Y45387D01*
X256269D01*
Y45324D01*
X256587D01*
Y45260D01*
X256904D01*
Y45197D01*
X257158D01*
Y45133D01*
X257476D01*
Y45070D01*
X257730D01*
Y45006D01*
X257984D01*
Y44943D01*
X258301D01*
Y44879D01*
X258492D01*
Y44816D01*
X258746D01*
Y44752D01*
X259000D01*
Y44689D01*
X259254D01*
Y44625D01*
X259508D01*
Y44562D01*
X259825D01*
Y44498D01*
X260016D01*
Y44435D01*
X260270D01*
Y44371D01*
X260524D01*
Y44308D01*
X260778D01*
Y44244D01*
X260969D01*
Y44308D01*
X261032D01*
Y44181D01*
X261350D01*
Y44117D01*
X261604D01*
Y44054D01*
X261858D01*
Y43990D01*
X262112D01*
Y43927D01*
X262429D01*
Y43863D01*
X262683D01*
Y43800D01*
X263001D01*
Y43736D01*
X263318D01*
Y43673D01*
X263700D01*
Y43609D01*
X264017D01*
Y43546D01*
X264335D01*
Y43482D01*
X264779D01*
Y43419D01*
X265287D01*
Y43355D01*
X265795D01*
Y43292D01*
X266367D01*
Y43228D01*
X266494D01*
Y43292D01*
X266557D01*
Y43228D01*
X266684D01*
Y43292D01*
X266748D01*
Y43228D01*
X266938D01*
Y43292D01*
X267002D01*
Y43228D01*
X267256D01*
Y43165D01*
X267446D01*
Y43228D01*
X267573D01*
Y43292D01*
X267637D01*
Y43228D01*
X267701D01*
Y43292D01*
X267764D01*
Y43165D01*
X268081D01*
Y43228D01*
X268209D01*
Y43292D01*
X268272D01*
Y43228D01*
X268399D01*
Y43165D01*
X268590D01*
Y43228D01*
X268844D01*
Y43292D01*
X268907D01*
Y43228D01*
X269225D01*
Y43292D01*
X269288D01*
Y43228D01*
X269352D01*
Y43292D01*
X269860D01*
Y43355D01*
X270304D01*
Y43419D01*
X270685D01*
Y43482D01*
X270939D01*
Y43546D01*
X271193D01*
Y43609D01*
X271447D01*
Y43673D01*
X271702D01*
Y43736D01*
X271892D01*
Y43800D01*
X272019D01*
Y43863D01*
X272273D01*
Y43927D01*
X272400D01*
Y43990D01*
X272591D01*
Y44054D01*
X272718D01*
Y44117D01*
X272845D01*
Y44181D01*
X273035D01*
Y44244D01*
X273162D01*
Y44308D01*
X273289D01*
Y44371D01*
X273416D01*
Y44435D01*
X273543D01*
Y44498D01*
X273670D01*
Y44562D01*
X273797D01*
Y44625D01*
X273924D01*
Y44689D01*
X273988D01*
Y44752D01*
X274115D01*
Y44816D01*
X274242D01*
Y44879D01*
X274305D01*
Y44943D01*
X274369D01*
Y45006D01*
X274559D01*
Y45070D01*
X274623D01*
Y45133D01*
X274686D01*
Y45197D01*
X274813D01*
Y45260D01*
X274877D01*
Y45324D01*
X275004D01*
Y45387D01*
X275067D01*
Y45451D01*
X275131D01*
Y45514D01*
X275258D01*
Y45578D01*
X275321D01*
Y45641D01*
X275385D01*
Y45705D01*
X275448D01*
Y45768D01*
X275512D01*
Y45832D01*
X275639D01*
Y45895D01*
X275703D01*
Y45959D01*
X275766D01*
Y46022D01*
X275830D01*
Y46086D01*
X275957D01*
Y46213D01*
X276083D01*
Y46277D01*
X276147D01*
Y46404D01*
X276274D01*
Y46467D01*
X276338D01*
Y46531D01*
X276401D01*
Y46594D01*
X276465D01*
Y46657D01*
X276528D01*
Y46785D01*
X276592D01*
Y46848D01*
X276719D01*
Y46975D01*
X276782D01*
Y47039D01*
X276846D01*
Y47166D01*
X276973D01*
Y47229D01*
X277036D01*
Y47293D01*
X277100D01*
Y47356D01*
X277163D01*
Y47229D01*
D02*
G37*
G36*
X274623Y41767D02*
X274559D01*
Y41640D01*
X274496D01*
Y41513D01*
X274432D01*
Y41386D01*
X274369D01*
Y41259D01*
X274305D01*
Y41132D01*
X274242D01*
Y41069D01*
X274178D01*
Y40878D01*
X274115D01*
Y40815D01*
X274051D01*
Y40688D01*
X273988D01*
Y40561D01*
X273924D01*
Y40434D01*
X273861D01*
Y40307D01*
X273797D01*
Y40180D01*
X273734D01*
Y40116D01*
X273670D01*
Y39989D01*
X273607D01*
Y39862D01*
X273543D01*
Y39799D01*
X273480D01*
Y39672D01*
X273416D01*
Y39608D01*
X273353D01*
Y39481D01*
X273289D01*
Y39418D01*
X273226D01*
Y39291D01*
X273162D01*
Y39227D01*
X273099D01*
Y39100D01*
X273035D01*
Y39037D01*
X272972D01*
Y38910D01*
X272908D01*
Y38846D01*
X272845D01*
Y38783D01*
X272781D01*
Y38655D01*
X272718D01*
Y38592D01*
X272654D01*
Y38528D01*
X272591D01*
Y38401D01*
X272527D01*
Y38338D01*
X272464D01*
Y38274D01*
X272400D01*
Y38211D01*
X272337D01*
Y38148D01*
X272273D01*
Y38021D01*
X272210D01*
Y37957D01*
X272146D01*
Y37894D01*
X272082D01*
Y37766D01*
X271955D01*
Y37639D01*
X271892D01*
Y37576D01*
X271829D01*
Y37512D01*
X271765D01*
Y37449D01*
X271702D01*
Y37258D01*
X271511D01*
Y37195D01*
X271447D01*
Y37004D01*
X271257D01*
Y36941D01*
X271193D01*
Y36877D01*
X271130D01*
Y36814D01*
X271003D01*
Y36687D01*
X270876D01*
Y36560D01*
X270749D01*
Y36496D01*
X270685D01*
Y36433D01*
X270622D01*
Y36369D01*
X270558D01*
Y36306D01*
X270431D01*
Y36242D01*
X270368D01*
Y36179D01*
X270304D01*
Y36115D01*
X270177D01*
Y36052D01*
X270114D01*
Y35988D01*
X270050D01*
Y35925D01*
X269923D01*
Y35861D01*
X269860D01*
Y35798D01*
X269733D01*
Y35734D01*
X269669D01*
Y35671D01*
X269542D01*
Y35607D01*
X269479D01*
Y35544D01*
X269352D01*
Y35480D01*
X269225D01*
Y35417D01*
X269161D01*
Y35353D01*
X269034D01*
Y35290D01*
X268907D01*
Y35226D01*
X268780D01*
Y35163D01*
X268653D01*
Y35099D01*
X268590D01*
Y35036D01*
X268463D01*
Y34972D01*
X268272D01*
Y34909D01*
X268145D01*
Y34845D01*
X268018D01*
Y34782D01*
X267828D01*
Y34718D01*
X267701D01*
Y34655D01*
X267510D01*
Y34591D01*
X267319D01*
Y34528D01*
X267192D01*
Y34464D01*
X267002D01*
Y34400D01*
X266748D01*
Y34337D01*
X266494D01*
Y34273D01*
X266240D01*
Y34210D01*
X265922D01*
Y34146D01*
X265668D01*
Y34083D01*
X265287D01*
Y34020D01*
X264906D01*
Y33956D01*
X264843D01*
Y34020D01*
X264779D01*
Y33956D01*
X264589D01*
Y33893D01*
X264525D01*
Y33956D01*
X264271D01*
Y33893D01*
X264144D01*
Y33956D01*
X264081D01*
Y33829D01*
X264017D01*
Y33893D01*
X263826D01*
Y33829D01*
X263763D01*
Y33893D01*
X263572D01*
Y33829D01*
X263509D01*
Y33893D01*
X263445D01*
Y33829D01*
X263318D01*
Y33893D01*
X262683D01*
Y33829D01*
X262620D01*
Y33893D01*
X262302D01*
Y33829D01*
X262239D01*
Y33893D01*
X262048D01*
Y33829D01*
X261985D01*
Y33893D01*
X261921D01*
Y33956D01*
X261858D01*
Y33893D01*
X261731D01*
Y33956D01*
X261667D01*
Y33893D01*
X261604D01*
Y33956D01*
X261477D01*
Y33893D01*
X261413D01*
Y33956D01*
X261159D01*
Y34020D01*
X261096D01*
Y33956D01*
X261032D01*
Y34020D01*
X260588D01*
Y34083D01*
X260080D01*
Y34146D01*
X259635D01*
Y34210D01*
X259317D01*
Y34273D01*
X259000D01*
Y34337D01*
X258682D01*
Y34400D01*
X258365D01*
Y34464D01*
X258047D01*
Y34528D01*
X257793D01*
Y34591D01*
X257539D01*
Y34655D01*
X257285D01*
Y34718D01*
X257031D01*
Y34782D01*
X256777D01*
Y34845D01*
X256523D01*
Y34909D01*
X256269D01*
Y34972D01*
X256015D01*
Y35036D01*
X255824D01*
Y35099D01*
X255507D01*
Y35163D01*
X255316D01*
Y35226D01*
X255126D01*
Y35290D01*
X254872D01*
Y35353D01*
X254618D01*
Y35417D01*
X254364D01*
Y35480D01*
X254173D01*
Y35544D01*
X253919D01*
Y35607D01*
X253665D01*
Y35671D01*
X253411D01*
Y35734D01*
X253157D01*
Y35798D01*
X252967D01*
Y35861D01*
X252713D01*
Y35925D01*
X252459D01*
Y35988D01*
X252141D01*
Y36052D01*
X251887D01*
Y36115D01*
X251570D01*
Y36179D01*
X251188D01*
Y36242D01*
X250871D01*
Y36306D01*
X250426D01*
Y36369D01*
X249791D01*
Y36433D01*
X249220D01*
Y36369D01*
X249156D01*
Y36433D01*
X248331D01*
Y36369D01*
X248267D01*
Y36433D01*
X248077D01*
Y36369D01*
X248013D01*
Y36433D01*
X247886D01*
Y36369D01*
X247822D01*
Y36433D01*
X247759D01*
Y36369D01*
X247695D01*
Y36433D01*
X247632D01*
Y36369D01*
X247187D01*
Y36306D01*
X246870D01*
Y36242D01*
X246616D01*
Y36179D01*
X246362D01*
Y36115D01*
X246171D01*
Y36052D01*
X245981D01*
Y35988D01*
X245790D01*
Y35925D01*
X245600D01*
Y35861D01*
X245409D01*
Y35798D01*
X245282D01*
Y35734D01*
X245155D01*
Y35671D01*
X245028D01*
Y35607D01*
X244901D01*
Y35544D01*
X244711D01*
Y35480D01*
X244647D01*
Y35417D01*
X244520D01*
Y35353D01*
X244393D01*
Y35290D01*
X244266D01*
Y35226D01*
X244203D01*
Y35163D01*
X244076D01*
Y35099D01*
X244012D01*
Y35036D01*
X243885D01*
Y34972D01*
X243758D01*
Y34909D01*
X243694D01*
Y34845D01*
X243631D01*
Y34782D01*
X243504D01*
Y34718D01*
X243441D01*
Y34655D01*
X243314D01*
Y34591D01*
X243250D01*
Y34528D01*
X243186D01*
Y34464D01*
X243059D01*
Y34400D01*
X242996D01*
Y34337D01*
X242932D01*
Y34273D01*
X242869D01*
Y34210D01*
X242742D01*
Y34083D01*
X242678D01*
Y34020D01*
X242551D01*
Y33893D01*
X242424D01*
Y33829D01*
X242361D01*
Y33765D01*
X242297D01*
Y33702D01*
X242234D01*
Y33638D01*
X242170D01*
Y33575D01*
X242107D01*
Y33511D01*
X242043D01*
Y33384D01*
X241980D01*
Y33321D01*
X241853D01*
Y33257D01*
X241789D01*
Y33194D01*
X241726D01*
Y33130D01*
X241662D01*
Y33067D01*
X241599D01*
Y33003D01*
X241535D01*
Y32940D01*
X241472D01*
Y32813D01*
X241345D01*
Y32686D01*
X241218D01*
Y32559D01*
X241154D01*
Y32495D01*
X241091D01*
Y32432D01*
X241027D01*
Y32368D01*
X240964D01*
Y32305D01*
X240900D01*
Y32432D01*
X240964D01*
Y32559D01*
X241027D01*
Y32686D01*
X241091D01*
Y32813D01*
X241154D01*
Y32940D01*
X241218D01*
Y33067D01*
X241281D01*
Y33257D01*
X241345D01*
Y33321D01*
X241408D01*
Y33511D01*
X241472D01*
Y33575D01*
X241535D01*
Y33765D01*
X241599D01*
Y33829D01*
X241662D01*
Y33956D01*
X241726D01*
Y34083D01*
X241789D01*
Y34210D01*
X241853D01*
Y34337D01*
X241916D01*
Y34464D01*
X241980D01*
Y34528D01*
X242043D01*
Y34655D01*
X242107D01*
Y34782D01*
X242170D01*
Y34909D01*
X242234D01*
Y34972D01*
X242297D01*
Y35099D01*
X242361D01*
Y35226D01*
X242424D01*
Y35290D01*
X242488D01*
Y35417D01*
X242551D01*
Y35544D01*
X242615D01*
Y35607D01*
X242678D01*
Y35734D01*
X242742D01*
Y35798D01*
X242805D01*
Y35925D01*
X242869D01*
Y35988D01*
X242932D01*
Y36115D01*
X242996D01*
Y36179D01*
X243059D01*
Y36242D01*
X243123D01*
Y36369D01*
X243186D01*
Y36433D01*
X243250D01*
Y36560D01*
X243314D01*
Y36623D01*
X243377D01*
Y36687D01*
X243441D01*
Y36814D01*
X243504D01*
Y36877D01*
X243567D01*
Y36941D01*
X243631D01*
Y37004D01*
X243694D01*
Y37131D01*
X243758D01*
Y37195D01*
X243822D01*
Y37258D01*
X243885D01*
Y37322D01*
X243949D01*
Y37449D01*
X244012D01*
Y37512D01*
X244076D01*
Y37576D01*
X244139D01*
Y37639D01*
X244203D01*
Y37830D01*
X244266D01*
Y37766D01*
X244330D01*
Y37830D01*
X244393D01*
Y37894D01*
X244457D01*
Y37957D01*
X244520D01*
Y38021D01*
X244584D01*
Y38211D01*
X244647D01*
Y38148D01*
X244711D01*
Y38211D01*
X244774D01*
Y38274D01*
X244838D01*
Y38338D01*
X244901D01*
Y38401D01*
X245028D01*
Y38465D01*
X245092D01*
Y38528D01*
X245155D01*
Y38592D01*
X245219D01*
Y38655D01*
X245346D01*
Y38719D01*
X245409D01*
Y38783D01*
X245473D01*
Y38846D01*
X245600D01*
Y38910D01*
X245663D01*
Y38973D01*
X245727D01*
Y39037D01*
X245854D01*
Y39100D01*
X245981D01*
Y39164D01*
X246044D01*
Y39227D01*
X246171D01*
Y39291D01*
X246298D01*
Y39354D01*
X246425D01*
Y39418D01*
X246489D01*
Y39481D01*
X246616D01*
Y39545D01*
X246743D01*
Y39608D01*
X246933D01*
Y39672D01*
X247060D01*
Y39735D01*
X247187D01*
Y39799D01*
X247442D01*
Y39862D01*
X247632D01*
Y39926D01*
X247822D01*
Y39989D01*
X248077D01*
Y40053D01*
X248394D01*
Y40116D01*
X248648D01*
Y40180D01*
X249156D01*
Y40243D01*
X249220D01*
Y40180D01*
X249283D01*
Y40243D01*
X249474D01*
Y40307D01*
X249537D01*
Y40243D01*
X249664D01*
Y40307D01*
X249791D01*
Y40243D01*
X250617D01*
Y40307D01*
X250744D01*
Y40243D01*
X250934D01*
Y40307D01*
X250998D01*
Y40243D01*
X251125D01*
Y40307D01*
X251188D01*
Y40243D01*
X251379D01*
Y40180D01*
X251570D01*
Y40243D01*
X251633D01*
Y40180D01*
X251887D01*
Y40116D01*
X251951D01*
Y40180D01*
X252014D01*
Y40116D01*
X252332D01*
Y40053D01*
X252776D01*
Y39989D01*
X253157D01*
Y39926D01*
X253538D01*
Y39862D01*
X253792D01*
Y39799D01*
X254110D01*
Y39735D01*
X254427D01*
Y39672D01*
X254681D01*
Y39608D01*
X254935D01*
Y39545D01*
X255253D01*
Y39481D01*
X255507D01*
Y39418D01*
X255761D01*
Y39354D01*
X256015D01*
Y39291D01*
X256269D01*
Y39227D01*
X256523D01*
Y39164D01*
X256777D01*
Y39100D01*
X256968D01*
Y39037D01*
X257285D01*
Y38973D01*
X257539D01*
Y38910D01*
X257793D01*
Y38846D01*
X257984D01*
Y38783D01*
X258301D01*
Y38719D01*
X258555D01*
Y38655D01*
X258809D01*
Y38592D01*
X259063D01*
Y38528D01*
X259381D01*
Y38465D01*
X259635D01*
Y38401D01*
X259889D01*
Y38338D01*
X260207D01*
Y38274D01*
X260651D01*
Y38211D01*
X260842D01*
Y38148D01*
X261159D01*
Y38084D01*
X261540D01*
Y38021D01*
X261921D01*
Y37957D01*
X262302D01*
Y37894D01*
X262810D01*
Y37830D01*
X263255D01*
Y37766D01*
X263318D01*
Y37830D01*
X263382D01*
Y37766D01*
X263445D01*
Y37830D01*
X263509D01*
Y37766D01*
X263890D01*
Y37830D01*
X263953D01*
Y37703D01*
X264081D01*
Y37766D01*
X264144D01*
Y37703D01*
X264335D01*
Y37766D01*
X264398D01*
Y37703D01*
X264589D01*
Y37766D01*
X264716D01*
Y37703D01*
X264970D01*
Y37766D01*
X265033D01*
Y37703D01*
X265097D01*
Y37766D01*
X265160D01*
Y37703D01*
X265224D01*
Y37766D01*
X265287D01*
Y37703D01*
X265351D01*
Y37766D01*
X265414D01*
Y37703D01*
X265478D01*
Y37766D01*
X265541D01*
Y37703D01*
X265605D01*
Y37766D01*
X265668D01*
Y37703D01*
X265986D01*
Y37766D01*
X266113D01*
Y37703D01*
X266303D01*
Y37766D01*
X266367D01*
Y37703D01*
X266494D01*
Y37766D01*
X266557D01*
Y37703D01*
X266684D01*
Y37766D01*
X267192D01*
Y37830D01*
X267637D01*
Y37894D01*
X267954D01*
Y37957D01*
X268272D01*
Y38021D01*
X268590D01*
Y38084D01*
X268844D01*
Y38148D01*
X269098D01*
Y38211D01*
X269225D01*
Y38274D01*
X269479D01*
Y38338D01*
X269669D01*
Y38401D01*
X269796D01*
Y38465D01*
X269987D01*
Y38528D01*
X270114D01*
Y38592D01*
X270241D01*
Y38655D01*
X270431D01*
Y38719D01*
X270558D01*
Y38783D01*
X270685D01*
Y38846D01*
X270812D01*
Y38910D01*
X270939D01*
Y38973D01*
X271066D01*
Y39037D01*
X271193D01*
Y39100D01*
X271257D01*
Y39164D01*
X271384D01*
Y39227D01*
X271511D01*
Y39291D01*
X271638D01*
Y39354D01*
X271702D01*
Y39418D01*
X271829D01*
Y39481D01*
X271955D01*
Y39545D01*
X272019D01*
Y39608D01*
X272082D01*
Y39672D01*
X272210D01*
Y39735D01*
X272273D01*
Y39799D01*
X272400D01*
Y39862D01*
X272464D01*
Y39926D01*
X272591D01*
Y39989D01*
X272654D01*
Y40053D01*
X272718D01*
Y40116D01*
X272781D01*
Y40180D01*
X272908D01*
Y40243D01*
X272972D01*
Y40307D01*
X273035D01*
Y40370D01*
X273099D01*
Y40434D01*
X273162D01*
Y40497D01*
X273226D01*
Y40561D01*
X273353D01*
Y40624D01*
X273416D01*
Y40688D01*
X273480D01*
Y40815D01*
X273607D01*
Y40878D01*
X273670D01*
Y40942D01*
X273734D01*
Y41005D01*
X273797D01*
Y41069D01*
X273861D01*
Y41132D01*
X273924D01*
Y41196D01*
X273988D01*
Y41259D01*
X274051D01*
Y41386D01*
X274178D01*
Y41450D01*
X274242D01*
Y41577D01*
X274369D01*
Y41704D01*
X274432D01*
Y41767D01*
X274496D01*
Y41831D01*
X274559D01*
Y41895D01*
X274623D01*
Y41767D01*
D02*
G37*
G36*
X243441Y37703D02*
X243377D01*
Y37766D01*
X243441D01*
Y37703D01*
D02*
G37*
G36*
X240900Y32178D02*
X240837D01*
Y32305D01*
X240900D01*
Y32178D01*
D02*
G37*
G36*
X240837Y32114D02*
X240773D01*
Y32178D01*
X240837D01*
Y32114D01*
D02*
G37*
G36*
X278624Y47610D02*
X278687D01*
Y47483D01*
X278751D01*
Y47420D01*
X278814D01*
Y47293D01*
X278878D01*
Y47229D01*
X278941D01*
Y47102D01*
X279005D01*
Y46975D01*
X279068D01*
Y46848D01*
X279132D01*
Y46594D01*
X279068D01*
Y46340D01*
X279005D01*
Y46086D01*
X278941D01*
Y45832D01*
X278878D01*
Y45578D01*
X278814D01*
Y45260D01*
X278751D01*
Y45070D01*
X278687D01*
Y44816D01*
X278624D01*
Y44562D01*
X278560D01*
Y44308D01*
X278497D01*
Y44054D01*
X278433D01*
Y43863D01*
X278370D01*
Y43673D01*
X278306D01*
Y43419D01*
X278243D01*
Y43228D01*
X278179D01*
Y43038D01*
X278116D01*
Y42847D01*
X278052D01*
Y42656D01*
X277989D01*
Y42466D01*
X277925D01*
Y42276D01*
X277862D01*
Y42022D01*
X277798D01*
Y41895D01*
X277735D01*
Y41704D01*
X277671D01*
Y41513D01*
X277608D01*
Y41323D01*
X277544D01*
Y41196D01*
X277481D01*
Y41005D01*
X277417D01*
Y40815D01*
X277354D01*
Y40688D01*
X277290D01*
Y40497D01*
X277227D01*
Y40370D01*
X277163D01*
Y40180D01*
X277100D01*
Y40053D01*
X277036D01*
Y39862D01*
X276973D01*
Y39735D01*
X276909D01*
Y39608D01*
X276846D01*
Y39481D01*
X276782D01*
Y39291D01*
X276719D01*
Y39100D01*
X276655D01*
Y39037D01*
X276592D01*
Y38910D01*
X276528D01*
Y38719D01*
X276465D01*
Y38655D01*
X276401D01*
Y38528D01*
X276338D01*
Y38338D01*
X276274D01*
Y38211D01*
X276210D01*
Y38084D01*
X276147D01*
Y37957D01*
X276083D01*
Y37830D01*
X276020D01*
Y37766D01*
X275957D01*
Y37576D01*
X275893D01*
Y37512D01*
X275830D01*
Y37385D01*
X275766D01*
Y37258D01*
X275703D01*
Y37131D01*
X275639D01*
Y37004D01*
X275575D01*
Y36877D01*
X275512D01*
Y36814D01*
X275448D01*
Y36687D01*
X275385D01*
Y36623D01*
X275321D01*
Y36496D01*
X275258D01*
Y36369D01*
X275194D01*
Y36242D01*
X275131D01*
Y36179D01*
X275067D01*
Y36052D01*
X275004D01*
Y35925D01*
X274940D01*
Y35861D01*
X274877D01*
Y35734D01*
X274813D01*
Y35671D01*
X274750D01*
Y35544D01*
X274686D01*
Y35480D01*
X274623D01*
Y35353D01*
X274559D01*
Y35290D01*
X274496D01*
Y35163D01*
X274432D01*
Y35099D01*
X274369D01*
Y34972D01*
X274305D01*
Y34909D01*
X274242D01*
Y34845D01*
X274178D01*
Y34718D01*
X274115D01*
Y34655D01*
X274051D01*
Y34528D01*
X273988D01*
Y34464D01*
X273924D01*
Y34337D01*
X273861D01*
Y34273D01*
X273797D01*
Y34146D01*
X273734D01*
Y34083D01*
X273670D01*
Y34020D01*
X273607D01*
Y33956D01*
X273543D01*
Y33893D01*
X273480D01*
Y33765D01*
X273416D01*
Y33702D01*
X273353D01*
Y33638D01*
X273289D01*
Y33575D01*
X273226D01*
Y33448D01*
X273162D01*
Y33384D01*
X273099D01*
Y33321D01*
X273035D01*
Y33257D01*
X272972D01*
Y33130D01*
X272908D01*
Y33067D01*
X272845D01*
Y33003D01*
X272781D01*
Y32940D01*
X272718D01*
Y32876D01*
X272654D01*
Y32749D01*
X272527D01*
Y32622D01*
X272400D01*
Y32495D01*
X272337D01*
Y32432D01*
X272273D01*
Y32305D01*
X272146D01*
Y32241D01*
X272082D01*
Y32178D01*
X272019D01*
Y32114D01*
X272082D01*
Y32051D01*
X271955D01*
Y31987D01*
X271829D01*
Y31924D01*
X271765D01*
Y31860D01*
X271702D01*
Y31797D01*
X271638D01*
Y31733D01*
X271574D01*
Y31670D01*
X271511D01*
Y31606D01*
X271447D01*
Y31479D01*
X271384D01*
Y31416D01*
X271320D01*
Y31289D01*
X271384D01*
Y31162D01*
X271447D01*
Y31098D01*
X271511D01*
Y31035D01*
X271638D01*
Y30971D01*
X271702D01*
Y30908D01*
X271765D01*
Y30781D01*
X271829D01*
Y30717D01*
X271955D01*
Y30654D01*
X272019D01*
Y30590D01*
X272082D01*
Y30527D01*
X272146D01*
Y30400D01*
X272273D01*
Y30272D01*
X272337D01*
Y30209D01*
X272400D01*
Y30145D01*
X272464D01*
Y30082D01*
X272527D01*
Y29955D01*
X272654D01*
Y29828D01*
X272718D01*
Y29765D01*
X272781D01*
Y29701D01*
X272845D01*
Y29637D01*
X272908D01*
Y29574D01*
X272972D01*
Y29447D01*
X273035D01*
Y29383D01*
X273099D01*
Y29320D01*
X273162D01*
Y29256D01*
X273226D01*
Y29193D01*
X273289D01*
Y29066D01*
X273353D01*
Y29002D01*
X273416D01*
Y28939D01*
X273480D01*
Y28875D01*
X273543D01*
Y28812D01*
X273607D01*
Y28685D01*
X273670D01*
Y28621D01*
X273734D01*
Y28494D01*
X273797D01*
Y28431D01*
X273861D01*
Y28367D01*
X273924D01*
Y28240D01*
X273988D01*
Y28177D01*
X274051D01*
Y28050D01*
X274115D01*
Y27986D01*
X274178D01*
Y27923D01*
X274242D01*
Y27796D01*
X274305D01*
Y27732D01*
X274369D01*
Y27605D01*
X274432D01*
Y27542D01*
X274496D01*
Y27478D01*
X274559D01*
Y27351D01*
X274623D01*
Y27224D01*
X274686D01*
Y27161D01*
X274750D01*
Y27097D01*
X274813D01*
Y26970D01*
X274877D01*
Y26843D01*
X274940D01*
Y26780D01*
X275004D01*
Y26653D01*
X275067D01*
Y26526D01*
X275131D01*
Y26462D01*
X275194D01*
Y26335D01*
X275258D01*
Y26272D01*
X275321D01*
Y26144D01*
X275385D01*
Y26017D01*
X275448D01*
Y25890D01*
X275512D01*
Y25763D01*
X275575D01*
Y25700D01*
X275639D01*
Y25573D01*
X275703D01*
Y25446D01*
X275766D01*
Y25319D01*
X275830D01*
Y25255D01*
X275893D01*
Y25065D01*
X275957D01*
Y25001D01*
X276020D01*
Y24874D01*
X276083D01*
Y24747D01*
X276147D01*
Y24620D01*
X276210D01*
Y24493D01*
X276274D01*
Y24303D01*
X276338D01*
Y24239D01*
X276401D01*
Y24112D01*
X276465D01*
Y23922D01*
X276528D01*
Y23795D01*
X276592D01*
Y23668D01*
X276655D01*
Y23541D01*
X276719D01*
Y23414D01*
X276782D01*
Y23287D01*
X276846D01*
Y23096D01*
X276909D01*
Y22969D01*
X276973D01*
Y22779D01*
X277036D01*
Y22652D01*
X277100D01*
Y22525D01*
X277163D01*
Y22334D01*
X277227D01*
Y22207D01*
X277290D01*
Y22016D01*
X277354D01*
Y21890D01*
X277417D01*
Y21699D01*
X277481D01*
Y21508D01*
X277544D01*
Y21381D01*
X277608D01*
Y21191D01*
X277671D01*
Y21000D01*
X277735D01*
Y20810D01*
X277798D01*
Y20619D01*
X277862D01*
Y20429D01*
X277925D01*
Y20302D01*
X277989D01*
Y20111D01*
X278052D01*
Y19857D01*
X278116D01*
Y19667D01*
X278179D01*
Y19476D01*
X278243D01*
Y19286D01*
X278306D01*
Y19032D01*
X278370D01*
Y18841D01*
X278433D01*
Y18651D01*
X278497D01*
Y18396D01*
X278560D01*
Y18143D01*
X278624D01*
Y17888D01*
X278687D01*
Y17698D01*
X278751D01*
Y17444D01*
X278814D01*
Y17190D01*
X278878D01*
Y16872D01*
X278941D01*
Y16618D01*
X279005D01*
Y16364D01*
X279068D01*
Y16110D01*
X279132D01*
Y15793D01*
X279068D01*
Y15729D01*
X279005D01*
Y15602D01*
X278941D01*
Y15539D01*
X278878D01*
Y15475D01*
X278814D01*
Y15348D01*
X278751D01*
Y15285D01*
X278687D01*
Y15221D01*
X278624D01*
Y15094D01*
X278560D01*
Y15031D01*
X278497D01*
Y15412D01*
X278433D01*
Y15729D01*
X278370D01*
Y16047D01*
X278306D01*
Y16364D01*
X278243D01*
Y16618D01*
X278179D01*
Y16936D01*
X278116D01*
Y17126D01*
X278052D01*
Y17507D01*
X277989D01*
Y17762D01*
X277925D01*
Y17952D01*
X277862D01*
Y18206D01*
X277798D01*
Y18460D01*
X277735D01*
Y18714D01*
X277671D01*
Y18905D01*
X277608D01*
Y19095D01*
X277544D01*
Y19349D01*
X277481D01*
Y19540D01*
X277417D01*
Y19730D01*
X277354D01*
Y19921D01*
X277290D01*
Y20111D01*
X277227D01*
Y20365D01*
X277163D01*
Y20492D01*
X277100D01*
Y20683D01*
X277036D01*
Y20873D01*
X276973D01*
Y21064D01*
X276909D01*
Y21254D01*
X276846D01*
Y21381D01*
X276782D01*
Y21572D01*
X276719D01*
Y21699D01*
X276655D01*
Y21890D01*
X276592D01*
Y22016D01*
X276528D01*
Y22207D01*
X276465D01*
Y22398D01*
X276401D01*
Y22525D01*
X276338D01*
Y22652D01*
X276274D01*
Y22779D01*
X276210D01*
Y22969D01*
X276147D01*
Y23096D01*
X276083D01*
Y23223D01*
X276020D01*
Y23350D01*
X275957D01*
Y23477D01*
X275893D01*
Y23668D01*
X275830D01*
Y23795D01*
X275766D01*
Y23858D01*
X275703D01*
Y23985D01*
X275639D01*
Y24176D01*
X275575D01*
Y24239D01*
X275512D01*
Y24430D01*
X275448D01*
Y24557D01*
X275385D01*
Y24620D01*
X275321D01*
Y24747D01*
X275258D01*
Y24874D01*
X275194D01*
Y25001D01*
X275131D01*
Y25128D01*
X275067D01*
Y25255D01*
X275004D01*
Y25319D01*
X274940D01*
Y25446D01*
X274877D01*
Y25573D01*
X274813D01*
Y25700D01*
X274750D01*
Y25763D01*
X274686D01*
Y25890D01*
X274623D01*
Y26017D01*
X274559D01*
Y26081D01*
X274496D01*
Y26208D01*
X274432D01*
Y26335D01*
X274369D01*
Y26399D01*
X274305D01*
Y26462D01*
X274242D01*
Y26589D01*
X274178D01*
Y26716D01*
X274115D01*
Y26843D01*
X274051D01*
Y26907D01*
X273988D01*
Y26970D01*
X273924D01*
Y27097D01*
X273861D01*
Y27161D01*
X273797D01*
Y27288D01*
X273734D01*
Y27415D01*
X273670D01*
Y27478D01*
X273607D01*
Y27542D01*
X273543D01*
Y27669D01*
X273480D01*
Y27732D01*
X273416D01*
Y27796D01*
X273353D01*
Y27923D01*
X273289D01*
Y27986D01*
X273226D01*
Y28050D01*
X273162D01*
Y28177D01*
X273099D01*
Y28240D01*
X273035D01*
Y28367D01*
X272972D01*
Y28431D01*
X272908D01*
Y28494D01*
X272845D01*
Y28621D01*
X272781D01*
Y28685D01*
X272718D01*
Y28748D01*
X272654D01*
Y28875D01*
X272591D01*
Y28939D01*
X272527D01*
Y29002D01*
X272464D01*
Y29066D01*
X272400D01*
Y29129D01*
X272337D01*
Y29256D01*
X272273D01*
Y29320D01*
X272210D01*
Y29383D01*
X272146D01*
Y29447D01*
X272082D01*
Y29574D01*
X272019D01*
Y29637D01*
X271955D01*
Y29701D01*
X271892D01*
Y29765D01*
X271829D01*
Y29828D01*
X271765D01*
Y29955D01*
X271702D01*
Y30018D01*
X271574D01*
Y30145D01*
X271511D01*
Y30209D01*
X271447D01*
Y30272D01*
X271384D01*
Y30400D01*
X271257D01*
Y30527D01*
X271130D01*
Y30654D01*
X271003D01*
Y30781D01*
X270939D01*
Y30844D01*
X270876D01*
Y30908D01*
X270812D01*
Y30971D01*
X270749D01*
Y31035D01*
X270685D01*
Y31098D01*
X270622D01*
Y31162D01*
X270558D01*
Y31225D01*
X270495D01*
Y31352D01*
X270431D01*
Y31416D01*
X270495D01*
Y31606D01*
X270558D01*
Y31543D01*
X270622D01*
Y31606D01*
X270685D01*
Y31670D01*
X270749D01*
Y31733D01*
X270812D01*
Y31797D01*
X270876D01*
Y31860D01*
X270939D01*
Y31924D01*
X271003D01*
Y32051D01*
X271130D01*
Y32178D01*
X271257D01*
Y32305D01*
X271320D01*
Y32368D01*
X271384D01*
Y32432D01*
X271447D01*
Y32559D01*
X271574D01*
Y32686D01*
X271638D01*
Y32749D01*
X271702D01*
Y32813D01*
X271765D01*
Y32876D01*
X271829D01*
Y32940D01*
X271892D01*
Y33067D01*
X271955D01*
Y33130D01*
X272082D01*
Y33257D01*
X272146D01*
Y33321D01*
X272210D01*
Y33384D01*
X272273D01*
Y33511D01*
X272337D01*
Y33575D01*
X272400D01*
Y33638D01*
X272464D01*
Y33702D01*
X272527D01*
Y33765D01*
X272591D01*
Y33893D01*
X272654D01*
Y33956D01*
X272718D01*
Y34020D01*
X272781D01*
Y34083D01*
X272845D01*
Y34210D01*
X272908D01*
Y34273D01*
X272972D01*
Y34400D01*
X273035D01*
Y34464D01*
X273099D01*
Y34528D01*
X273162D01*
Y34655D01*
X273226D01*
Y34718D01*
X273289D01*
Y34782D01*
X273353D01*
Y34909D01*
X273416D01*
Y34972D01*
X273480D01*
Y35099D01*
X273543D01*
Y35163D01*
X273607D01*
Y35290D01*
X273670D01*
Y35353D01*
X273734D01*
Y35417D01*
X273797D01*
Y35544D01*
X273861D01*
Y35671D01*
X273924D01*
Y35734D01*
X273988D01*
Y35798D01*
X274051D01*
Y35925D01*
X274115D01*
Y35988D01*
X274178D01*
Y36115D01*
X274242D01*
Y36242D01*
X274305D01*
Y36306D01*
X274369D01*
Y36433D01*
X274432D01*
Y36496D01*
X274496D01*
Y36623D01*
X274559D01*
Y36750D01*
X274623D01*
Y36814D01*
X274686D01*
Y36941D01*
X274750D01*
Y37068D01*
X274813D01*
Y37131D01*
X274877D01*
Y37258D01*
X274940D01*
Y37385D01*
X275004D01*
Y37512D01*
X275067D01*
Y37576D01*
X275131D01*
Y37703D01*
X275194D01*
Y37830D01*
X275258D01*
Y37957D01*
X275321D01*
Y38084D01*
X275385D01*
Y38274D01*
X275448D01*
Y38338D01*
X275512D01*
Y38465D01*
X275575D01*
Y38592D01*
X275639D01*
Y38655D01*
X275703D01*
Y38846D01*
X275766D01*
Y38973D01*
X275830D01*
Y39100D01*
X275893D01*
Y39227D01*
X275957D01*
Y39354D01*
X276020D01*
Y39481D01*
X276083D01*
Y39608D01*
X276147D01*
Y39799D01*
X276210D01*
Y39926D01*
X276274D01*
Y40053D01*
X276338D01*
Y40180D01*
X276401D01*
Y40370D01*
X276465D01*
Y40497D01*
X276528D01*
Y40688D01*
X276592D01*
Y40815D01*
X276655D01*
Y41005D01*
X276719D01*
Y41132D01*
X276782D01*
Y41323D01*
X276846D01*
Y41513D01*
X276909D01*
Y41640D01*
X276973D01*
Y41831D01*
X277036D01*
Y42022D01*
X277100D01*
Y42212D01*
X277163D01*
Y42402D01*
X277227D01*
Y42593D01*
X277290D01*
Y42847D01*
X277354D01*
Y42974D01*
X277417D01*
Y43165D01*
X277481D01*
Y43355D01*
X277544D01*
Y43609D01*
X277608D01*
Y43800D01*
X277671D01*
Y43990D01*
X277735D01*
Y44244D01*
X277798D01*
Y44498D01*
X277862D01*
Y44752D01*
X277925D01*
Y45006D01*
X277989D01*
Y45260D01*
X278052D01*
Y45514D01*
X278116D01*
Y45768D01*
X278179D01*
Y46086D01*
X278243D01*
Y46340D01*
X278306D01*
Y46657D01*
X278370D01*
Y46912D01*
X278433D01*
Y47293D01*
X278497D01*
Y47610D01*
X278560D01*
Y47737D01*
X278624D01*
Y47610D01*
D02*
G37*
G36*
X270939Y26208D02*
X270876D01*
Y26272D01*
X270939D01*
Y26208D01*
D02*
G37*
G36*
X281609Y40053D02*
X281672D01*
Y39799D01*
X281736D01*
Y39545D01*
X281799D01*
Y39291D01*
X281863D01*
Y39100D01*
X281799D01*
Y38910D01*
X281736D01*
Y38783D01*
X281672D01*
Y38655D01*
X281609D01*
Y38528D01*
X281545D01*
Y38338D01*
X281482D01*
Y38211D01*
X281418D01*
Y38084D01*
X281355D01*
Y37957D01*
X281291D01*
Y37830D01*
X281228D01*
Y37703D01*
X281164D01*
Y37576D01*
X281101D01*
Y37449D01*
X281037D01*
Y37322D01*
X280974D01*
Y37195D01*
X280910D01*
Y37068D01*
X280847D01*
Y36941D01*
X280783D01*
Y36877D01*
X280720D01*
Y36750D01*
X280656D01*
Y36623D01*
X280592D01*
Y36496D01*
X280529D01*
Y36369D01*
X280466D01*
Y36242D01*
X280402D01*
Y36179D01*
X280339D01*
Y36052D01*
X280275D01*
Y35925D01*
X280211D01*
Y35798D01*
X280148D01*
Y35734D01*
X280084D01*
Y35607D01*
X280021D01*
Y35480D01*
X279958D01*
Y35417D01*
X279894D01*
Y35290D01*
X279831D01*
Y35226D01*
X279767D01*
Y35099D01*
X279703D01*
Y34972D01*
X279640D01*
Y34909D01*
X279576D01*
Y34782D01*
X279513D01*
Y34718D01*
X279449D01*
Y34591D01*
X279386D01*
Y34464D01*
X279322D01*
Y34400D01*
X279259D01*
Y34337D01*
X279195D01*
Y34210D01*
X279132D01*
Y34146D01*
X279068D01*
Y34020D01*
X279005D01*
Y33956D01*
X278941D01*
Y33829D01*
X278878D01*
Y33765D01*
X278814D01*
Y33702D01*
X278751D01*
Y33575D01*
X278687D01*
Y33511D01*
X278624D01*
Y33384D01*
X278560D01*
Y33321D01*
X278497D01*
Y33257D01*
X278433D01*
Y33130D01*
X278370D01*
Y33067D01*
X278306D01*
Y33003D01*
X278243D01*
Y32876D01*
X278179D01*
Y32813D01*
X278116D01*
Y32749D01*
X278052D01*
Y32622D01*
X277989D01*
Y32559D01*
X277925D01*
Y32495D01*
X277862D01*
Y32432D01*
X277798D01*
Y32305D01*
X277735D01*
Y32241D01*
X277671D01*
Y32178D01*
X277608D01*
Y32114D01*
X277544D01*
Y32051D01*
X277481D01*
Y31924D01*
X277417D01*
Y31860D01*
X277354D01*
Y31797D01*
X277290D01*
Y31733D01*
X277227D01*
Y31606D01*
X277163D01*
Y31543D01*
X277100D01*
Y31479D01*
X277036D01*
Y31416D01*
X276973D01*
Y31289D01*
X277036D01*
Y31225D01*
X277100D01*
Y31162D01*
X277163D01*
Y31098D01*
X277227D01*
Y31035D01*
X277290D01*
Y30908D01*
X277354D01*
Y30844D01*
X277417D01*
Y30781D01*
X277481D01*
Y30717D01*
X277544D01*
Y30654D01*
X277608D01*
Y30590D01*
X277671D01*
Y30463D01*
X277735D01*
Y30400D01*
X277798D01*
Y30336D01*
X277862D01*
Y30272D01*
X277925D01*
Y30145D01*
X277989D01*
Y30082D01*
X278052D01*
Y30018D01*
X278116D01*
Y29891D01*
X278179D01*
Y29828D01*
X278243D01*
Y29765D01*
X278306D01*
Y29637D01*
X278370D01*
Y29574D01*
X278433D01*
Y29510D01*
X278497D01*
Y29383D01*
X278560D01*
Y29320D01*
X278624D01*
Y29256D01*
X278687D01*
Y29129D01*
X278751D01*
Y29066D01*
X278814D01*
Y29002D01*
X278878D01*
Y28875D01*
X278941D01*
Y28748D01*
X279005D01*
Y28685D01*
X279068D01*
Y28621D01*
X279132D01*
Y28494D01*
X279195D01*
Y28431D01*
X279259D01*
Y28304D01*
X279322D01*
Y28240D01*
X279386D01*
Y28113D01*
X279449D01*
Y28050D01*
X279513D01*
Y27923D01*
X279576D01*
Y27859D01*
X279640D01*
Y27732D01*
X279703D01*
Y27605D01*
X279767D01*
Y27542D01*
X279831D01*
Y27415D01*
X279894D01*
Y27351D01*
X279958D01*
Y27224D01*
X280021D01*
Y27097D01*
X280084D01*
Y26970D01*
X280148D01*
Y26907D01*
X280211D01*
Y26780D01*
X280275D01*
Y26716D01*
X280339D01*
Y26589D01*
X280402D01*
Y26462D01*
X280466D01*
Y26335D01*
X280529D01*
Y26208D01*
X280592D01*
Y26144D01*
X280656D01*
Y26017D01*
X280720D01*
Y25890D01*
X280783D01*
Y25763D01*
X280847D01*
Y25637D01*
X280910D01*
Y25509D01*
X280974D01*
Y25382D01*
X281037D01*
Y25255D01*
X281101D01*
Y25128D01*
X281164D01*
Y25001D01*
X281228D01*
Y24874D01*
X281291D01*
Y24747D01*
X281355D01*
Y24684D01*
X281418D01*
Y24493D01*
X281482D01*
Y24366D01*
X281545D01*
Y24239D01*
X281609D01*
Y24112D01*
X281672D01*
Y23922D01*
X281736D01*
Y23795D01*
X281799D01*
Y23668D01*
X281863D01*
Y23414D01*
X281799D01*
Y23160D01*
X281736D01*
Y22969D01*
X281672D01*
Y22715D01*
X281609D01*
Y22525D01*
X281545D01*
Y22588D01*
X281482D01*
Y22779D01*
X281418D01*
Y22906D01*
X281355D01*
Y23033D01*
X281291D01*
Y23160D01*
X281228D01*
Y23287D01*
X281164D01*
Y23477D01*
X281101D01*
Y23604D01*
X281037D01*
Y23731D01*
X280974D01*
Y23858D01*
X280910D01*
Y23985D01*
X280847D01*
Y24112D01*
X280783D01*
Y24239D01*
X280720D01*
Y24366D01*
X280656D01*
Y24493D01*
X280592D01*
Y24620D01*
X280529D01*
Y24747D01*
X280466D01*
Y24874D01*
X280402D01*
Y24938D01*
X280339D01*
Y25128D01*
X280275D01*
Y25192D01*
X280211D01*
Y25319D01*
X280148D01*
Y25446D01*
X280084D01*
Y25573D01*
X280021D01*
Y25637D01*
X279958D01*
Y25827D01*
X279894D01*
Y25890D01*
X279831D01*
Y26017D01*
X279767D01*
Y26081D01*
X279703D01*
Y26272D01*
X279640D01*
Y26399D01*
X279576D01*
Y26462D01*
X279513D01*
Y26589D01*
X279449D01*
Y26653D01*
X279386D01*
Y26780D01*
X279322D01*
Y26907D01*
X279259D01*
Y26970D01*
X279195D01*
Y27097D01*
X279132D01*
Y27161D01*
X279068D01*
Y27288D01*
X279005D01*
Y27415D01*
X278941D01*
Y27542D01*
X278878D01*
Y27605D01*
X278814D01*
Y27732D01*
X278751D01*
Y27796D01*
X278687D01*
Y27923D01*
X278624D01*
Y27986D01*
X278560D01*
Y28113D01*
X278497D01*
Y28177D01*
X278433D01*
Y28304D01*
X278370D01*
Y28367D01*
X278306D01*
Y28494D01*
X278243D01*
Y28558D01*
X278179D01*
Y28685D01*
X278116D01*
Y28748D01*
X278052D01*
Y28875D01*
X277989D01*
Y28939D01*
X277925D01*
Y29002D01*
X277862D01*
Y29129D01*
X277798D01*
Y29193D01*
X277735D01*
Y29320D01*
X277671D01*
Y29383D01*
X277608D01*
Y29447D01*
X277544D01*
Y29574D01*
X277481D01*
Y29637D01*
X277417D01*
Y29765D01*
X277354D01*
Y29828D01*
X277290D01*
Y29891D01*
X277227D01*
Y30018D01*
X277163D01*
Y30082D01*
X277100D01*
Y30145D01*
X277036D01*
Y30272D01*
X276973D01*
Y30336D01*
X276909D01*
Y30400D01*
X276846D01*
Y30527D01*
X276782D01*
Y30590D01*
X276719D01*
Y30654D01*
X276655D01*
Y30717D01*
X276592D01*
Y30844D01*
X276528D01*
Y30908D01*
X276465D01*
Y30971D01*
X276401D01*
Y31035D01*
X276338D01*
Y31162D01*
X276274D01*
Y31225D01*
X276210D01*
Y31289D01*
X276147D01*
Y31416D01*
X276210D01*
Y31479D01*
X276274D01*
Y31606D01*
X276338D01*
Y31670D01*
X276401D01*
Y31733D01*
X276465D01*
Y31860D01*
X276528D01*
Y31924D01*
X276592D01*
Y31987D01*
X276655D01*
Y32051D01*
X276719D01*
Y32178D01*
X276782D01*
Y32241D01*
X276846D01*
Y32305D01*
X276909D01*
Y32368D01*
X276973D01*
Y32495D01*
X277036D01*
Y32559D01*
X277100D01*
Y32622D01*
X277163D01*
Y32749D01*
X277227D01*
Y32813D01*
X277290D01*
Y32876D01*
X277354D01*
Y33003D01*
X277417D01*
Y33067D01*
X277481D01*
Y33130D01*
X277544D01*
Y33257D01*
X277608D01*
Y33321D01*
X277671D01*
Y33448D01*
X277735D01*
Y33511D01*
X277798D01*
Y33575D01*
X277862D01*
Y33702D01*
X277925D01*
Y33765D01*
X277989D01*
Y33893D01*
X278052D01*
Y33956D01*
X278116D01*
Y34083D01*
X278179D01*
Y34146D01*
X278243D01*
Y34210D01*
X278306D01*
Y34337D01*
X278370D01*
Y34464D01*
X278433D01*
Y34528D01*
X278497D01*
Y34655D01*
X278560D01*
Y34718D01*
X278624D01*
Y34845D01*
X278687D01*
Y34909D01*
X278751D01*
Y35036D01*
X278814D01*
Y35099D01*
X278878D01*
Y35226D01*
X278941D01*
Y35290D01*
X279005D01*
Y35417D01*
X279068D01*
Y35544D01*
X279132D01*
Y35607D01*
X279195D01*
Y35734D01*
X279259D01*
Y35861D01*
X279322D01*
Y35988D01*
X279386D01*
Y36052D01*
X279449D01*
Y36179D01*
X279513D01*
Y36242D01*
X279576D01*
Y36369D01*
X279640D01*
Y36496D01*
X279703D01*
Y36623D01*
X279767D01*
Y36687D01*
X279831D01*
Y36814D01*
X279894D01*
Y36941D01*
X279958D01*
Y37068D01*
X280021D01*
Y37131D01*
X280084D01*
Y37258D01*
X280148D01*
Y37385D01*
X280211D01*
Y37512D01*
X280275D01*
Y37639D01*
X280339D01*
Y37766D01*
X280402D01*
Y37894D01*
X280466D01*
Y38021D01*
X280529D01*
Y38148D01*
X280592D01*
Y38274D01*
X280656D01*
Y38401D01*
X280720D01*
Y38528D01*
X280783D01*
Y38655D01*
X280847D01*
Y38783D01*
X280910D01*
Y38910D01*
X280974D01*
Y39037D01*
X281037D01*
Y39164D01*
X281101D01*
Y39291D01*
X281164D01*
Y39418D01*
X281228D01*
Y39545D01*
X281291D01*
Y39672D01*
X281355D01*
Y39799D01*
X281418D01*
Y39989D01*
X281482D01*
Y40116D01*
X281545D01*
Y40243D01*
X281609D01*
Y40053D01*
D02*
G37*
G36*
X240964Y30463D02*
X241027D01*
Y30400D01*
X241091D01*
Y30336D01*
X241154D01*
Y30272D01*
X241218D01*
Y30145D01*
X241281D01*
Y30082D01*
X241345D01*
Y30018D01*
X241408D01*
Y29955D01*
X241472D01*
Y29891D01*
X241535D01*
Y29828D01*
X241599D01*
Y29765D01*
X241662D01*
Y29701D01*
X241726D01*
Y29637D01*
X241789D01*
Y29574D01*
X241853D01*
Y29510D01*
X241916D01*
Y29447D01*
X241980D01*
Y29383D01*
X242043D01*
Y29320D01*
X242107D01*
Y29256D01*
X242170D01*
Y29193D01*
X242234D01*
Y29129D01*
X242297D01*
Y29066D01*
X242361D01*
Y29002D01*
X242424D01*
Y28939D01*
X242488D01*
Y28875D01*
X242551D01*
Y28812D01*
X242678D01*
Y28685D01*
X242742D01*
Y28621D01*
X242869D01*
Y28558D01*
X242932D01*
Y28494D01*
X242996D01*
Y28431D01*
X243059D01*
Y28367D01*
X243186D01*
Y28304D01*
X243250D01*
Y28240D01*
X243314D01*
Y28177D01*
X243377D01*
Y28113D01*
X243504D01*
Y28050D01*
X243567D01*
Y27986D01*
X243694D01*
Y27923D01*
X243758D01*
Y27859D01*
X243885D01*
Y27796D01*
X243949D01*
Y27732D01*
X244076D01*
Y27669D01*
X244203D01*
Y27605D01*
X244266D01*
Y27542D01*
X244393D01*
Y27478D01*
X244457D01*
Y27415D01*
X244584D01*
Y27351D01*
X244711D01*
Y27288D01*
X244838D01*
Y27224D01*
X244965D01*
Y27161D01*
X245092D01*
Y27097D01*
X245219D01*
Y27034D01*
X245346D01*
Y26970D01*
X245536D01*
Y26907D01*
X245727D01*
Y26843D01*
X245917D01*
Y26780D01*
X246108D01*
Y26716D01*
X246298D01*
Y26653D01*
X246552D01*
Y26589D01*
X246806D01*
Y26526D01*
X247124D01*
Y26462D01*
X247505D01*
Y26399D01*
X247886D01*
Y26462D01*
X247950D01*
Y26399D01*
X248077D01*
Y26462D01*
X248140D01*
Y26335D01*
X248267D01*
Y26399D01*
X248521D01*
Y26335D01*
X248966D01*
Y26399D01*
X249283D01*
Y26335D01*
X249347D01*
Y26462D01*
X249410D01*
Y26399D01*
X249728D01*
Y26462D01*
X249791D01*
Y26399D01*
X250045D01*
Y26462D01*
X250553D01*
Y26526D01*
X250998D01*
Y26589D01*
X251315D01*
Y26653D01*
X251633D01*
Y26716D01*
X251951D01*
Y26780D01*
X252205D01*
Y26843D01*
X252522D01*
Y26907D01*
X252776D01*
Y26970D01*
X253030D01*
Y27034D01*
X253284D01*
Y27097D01*
X253538D01*
Y27161D01*
X253792D01*
Y27224D01*
X253983D01*
Y27288D01*
X254237D01*
Y27351D01*
X254491D01*
Y27415D01*
X254745D01*
Y27478D01*
X254935D01*
Y27542D01*
X255189D01*
Y27605D01*
X255380D01*
Y27669D01*
X255634D01*
Y27732D01*
X255888D01*
Y27796D01*
X256142D01*
Y27859D01*
X256333D01*
Y27923D01*
X256587D01*
Y27986D01*
X256841D01*
Y28050D01*
X257095D01*
Y28113D01*
X257349D01*
Y28177D01*
X257666D01*
Y28240D01*
X257857D01*
Y28304D01*
X258174D01*
Y28367D01*
X258492D01*
Y28431D01*
X258746D01*
Y28494D01*
X259063D01*
Y28558D01*
X259444D01*
Y28621D01*
X259762D01*
Y28685D01*
X260270D01*
Y28748D01*
X260778D01*
Y28812D01*
X260969D01*
Y28875D01*
X261032D01*
Y28812D01*
X261096D01*
Y28939D01*
X261159D01*
Y28812D01*
X261223D01*
Y28875D01*
X261731D01*
Y28939D01*
X261794D01*
Y28875D01*
X261858D01*
Y28939D01*
X261985D01*
Y28875D01*
X262112D01*
Y28939D01*
X262429D01*
Y29002D01*
X262493D01*
Y28939D01*
X263572D01*
Y29002D01*
X263636D01*
Y28939D01*
X263953D01*
Y28875D01*
X264081D01*
Y28939D01*
X264144D01*
Y28875D01*
X264271D01*
Y28939D01*
X264335D01*
Y28875D01*
X264716D01*
Y28812D01*
X265160D01*
Y28748D01*
X265541D01*
Y28685D01*
X265922D01*
Y28621D01*
X266240D01*
Y28558D01*
X266430D01*
Y28494D01*
X266684D01*
Y28431D01*
X266875D01*
Y28367D01*
X267129D01*
Y28304D01*
X267319D01*
Y28240D01*
X267446D01*
Y28177D01*
X267637D01*
Y28113D01*
X267828D01*
Y28050D01*
X267954D01*
Y27986D01*
X268081D01*
Y27923D01*
X268272D01*
Y27859D01*
X268463D01*
Y27796D01*
X268526D01*
Y27732D01*
X268653D01*
Y27669D01*
X268780D01*
Y27605D01*
X268844D01*
Y27542D01*
X268971D01*
Y27478D01*
X269098D01*
Y27415D01*
X269225D01*
Y27351D01*
X269352D01*
Y27288D01*
X269415D01*
Y27224D01*
X269542D01*
Y27161D01*
X269606D01*
Y27097D01*
X269733D01*
Y27034D01*
X269860D01*
Y26970D01*
X269923D01*
Y26907D01*
X269987D01*
Y26843D01*
X270114D01*
Y26780D01*
X270177D01*
Y26716D01*
X270304D01*
Y26653D01*
X270368D01*
Y26589D01*
X270431D01*
Y26526D01*
X270495D01*
Y26462D01*
X270622D01*
Y26399D01*
X270685D01*
Y26335D01*
X270749D01*
Y26272D01*
X270812D01*
Y26208D01*
X270876D01*
Y26144D01*
X271003D01*
Y26017D01*
X271130D01*
Y25954D01*
X271193D01*
Y25890D01*
X271257D01*
Y25827D01*
X271320D01*
Y25763D01*
X271384D01*
Y25700D01*
X271447D01*
Y25637D01*
X271511D01*
Y25573D01*
X271574D01*
Y25509D01*
X271638D01*
Y25382D01*
X271765D01*
Y25319D01*
X271829D01*
Y25192D01*
X271955D01*
Y25065D01*
X272082D01*
Y24938D01*
X272146D01*
Y24874D01*
X272210D01*
Y24811D01*
X272273D01*
Y24684D01*
X272337D01*
Y24620D01*
X272400D01*
Y24557D01*
X272464D01*
Y24493D01*
X272527D01*
Y24430D01*
X272591D01*
Y24303D01*
X272654D01*
Y24239D01*
X272718D01*
Y24176D01*
X272781D01*
Y24049D01*
X272845D01*
Y23985D01*
X272908D01*
Y23922D01*
X272972D01*
Y23795D01*
X273035D01*
Y23668D01*
X273099D01*
Y23604D01*
X273162D01*
Y23477D01*
X273226D01*
Y23414D01*
X273289D01*
Y23350D01*
X273353D01*
Y23223D01*
X273416D01*
Y23096D01*
X273480D01*
Y23033D01*
X273543D01*
Y22906D01*
X273607D01*
Y22842D01*
X273670D01*
Y22715D01*
X273734D01*
Y22588D01*
X273797D01*
Y22525D01*
X273861D01*
Y22398D01*
X273924D01*
Y22271D01*
X273988D01*
Y22207D01*
X274051D01*
Y22016D01*
X274115D01*
Y21890D01*
X274178D01*
Y21826D01*
X274242D01*
Y21699D01*
X274305D01*
Y21508D01*
X274369D01*
Y21445D01*
X274432D01*
Y21318D01*
X274496D01*
Y21191D01*
X274559D01*
Y21000D01*
X274496D01*
Y21064D01*
X274432D01*
Y21127D01*
X274369D01*
Y21191D01*
X274305D01*
Y21254D01*
X274178D01*
Y21318D01*
X274242D01*
Y21381D01*
X274178D01*
Y21445D01*
X274051D01*
Y21508D01*
X273924D01*
Y21699D01*
X273861D01*
Y21763D01*
X273797D01*
Y21826D01*
X273734D01*
Y21890D01*
X273543D01*
Y22080D01*
X273480D01*
Y22143D01*
X273416D01*
Y22080D01*
X273353D01*
Y22271D01*
X273226D01*
Y22334D01*
X273162D01*
Y22398D01*
X273099D01*
Y22461D01*
X273035D01*
Y22525D01*
X272908D01*
Y22588D01*
X272845D01*
Y22652D01*
X272781D01*
Y22715D01*
X272718D01*
Y22779D01*
X272654D01*
Y22842D01*
X272527D01*
Y22906D01*
X272464D01*
Y22969D01*
X272337D01*
Y23033D01*
X272273D01*
Y23096D01*
X272210D01*
Y23160D01*
X272082D01*
Y23223D01*
X272019D01*
Y23287D01*
X271892D01*
Y23350D01*
X271829D01*
Y23414D01*
X271702D01*
Y23477D01*
X271574D01*
Y23541D01*
X271511D01*
Y23604D01*
X271384D01*
Y23668D01*
X271257D01*
Y23731D01*
X271130D01*
Y23795D01*
X271003D01*
Y23858D01*
X270939D01*
Y23922D01*
X270812D01*
Y23985D01*
X270622D01*
Y24049D01*
X270495D01*
Y24112D01*
X270368D01*
Y24176D01*
X270241D01*
Y24239D01*
X270114D01*
Y24303D01*
X269923D01*
Y24366D01*
X269796D01*
Y24430D01*
X269606D01*
Y24493D01*
X269415D01*
Y24557D01*
X269161D01*
Y24620D01*
X268971D01*
Y24684D01*
X268780D01*
Y24747D01*
X268463D01*
Y24811D01*
X268209D01*
Y24874D01*
X267891D01*
Y24938D01*
X267510D01*
Y25001D01*
X267129D01*
Y25065D01*
X266748D01*
Y25001D01*
X266684D01*
Y25065D01*
X266303D01*
Y25128D01*
X266176D01*
Y25065D01*
X266113D01*
Y25128D01*
X265859D01*
Y25065D01*
X265732D01*
Y25128D01*
X264970D01*
Y25065D01*
X264906D01*
Y25128D01*
X264843D01*
Y25065D01*
X264779D01*
Y25128D01*
X264589D01*
Y25065D01*
X264462D01*
Y25128D01*
X264398D01*
Y25065D01*
X264144D01*
Y25001D01*
X264081D01*
Y25065D01*
X263953D01*
Y25001D01*
X263890D01*
Y25065D01*
X263763D01*
Y25001D01*
X263700D01*
Y25065D01*
X263445D01*
Y25001D01*
X262937D01*
Y24938D01*
X262429D01*
Y24874D01*
X262175D01*
Y24811D01*
X261667D01*
Y24747D01*
X261286D01*
Y24684D01*
X260969D01*
Y24620D01*
X260588D01*
Y24557D01*
X260334D01*
Y24493D01*
X260016D01*
Y24430D01*
X259699D01*
Y24366D01*
X259444D01*
Y24303D01*
X259190D01*
Y24239D01*
X258936D01*
Y24176D01*
X258682D01*
Y24112D01*
X258365D01*
Y24049D01*
X258111D01*
Y23985D01*
X257857D01*
Y23922D01*
X257603D01*
Y23858D01*
X257349D01*
Y23795D01*
X257095D01*
Y23731D01*
X256841D01*
Y23668D01*
X256587D01*
Y23604D01*
X256333D01*
Y23541D01*
X256079D01*
Y23477D01*
X255824D01*
Y23414D01*
X255571D01*
Y23350D01*
X255316D01*
Y23287D01*
X255062D01*
Y23223D01*
X254808D01*
Y23160D01*
X254491D01*
Y23096D01*
X254237D01*
Y23033D01*
X253919D01*
Y22969D01*
X253602D01*
Y22906D01*
X253284D01*
Y22842D01*
X252903D01*
Y22779D01*
X252522D01*
Y22715D01*
X252078D01*
Y22652D01*
X251506D01*
Y22588D01*
X251125D01*
Y22525D01*
X251061D01*
Y22588D01*
X250934D01*
Y22525D01*
X250871D01*
Y22588D01*
X250680D01*
Y22525D01*
X250363D01*
Y22588D01*
X250045D01*
Y22525D01*
X249728D01*
Y22588D01*
X249601D01*
Y22525D01*
X249537D01*
Y22588D01*
X248966D01*
Y22652D01*
X248585D01*
Y22715D01*
X248267D01*
Y22779D01*
X247950D01*
Y22842D01*
X247759D01*
Y22906D01*
X247568D01*
Y22969D01*
X247378D01*
Y23033D01*
X247187D01*
Y23096D01*
X246997D01*
Y23160D01*
X246870D01*
Y23223D01*
X246743D01*
Y23287D01*
X246616D01*
Y23350D01*
X246489D01*
Y23414D01*
X246362D01*
Y23477D01*
X246235D01*
Y23541D01*
X246171D01*
Y23604D01*
X246044D01*
Y23668D01*
X245917D01*
Y23731D01*
X245854D01*
Y23795D01*
X245727D01*
Y23858D01*
X245600D01*
Y23922D01*
X245536D01*
Y23985D01*
X245473D01*
Y24049D01*
X245409D01*
Y24112D01*
X245282D01*
Y24176D01*
X245219D01*
Y24239D01*
X245155D01*
Y24303D01*
X245028D01*
Y24366D01*
X244965D01*
Y24430D01*
X244901D01*
Y24493D01*
X244838D01*
Y24557D01*
X244774D01*
Y24620D01*
X244647D01*
Y24747D01*
X244584D01*
Y24811D01*
X244520D01*
Y24874D01*
X244457D01*
Y24938D01*
X244393D01*
Y25001D01*
X244330D01*
Y25065D01*
X244266D01*
Y25128D01*
X244203D01*
Y25192D01*
X244139D01*
Y25255D01*
X244076D01*
Y25319D01*
X244012D01*
Y25382D01*
X243949D01*
Y25509D01*
X243885D01*
Y25573D01*
X243822D01*
Y25637D01*
X243758D01*
Y25700D01*
X243694D01*
Y25763D01*
X243631D01*
Y25890D01*
X243567D01*
Y25954D01*
X243504D01*
Y26017D01*
X243441D01*
Y26144D01*
X243377D01*
Y26208D01*
X243314D01*
Y26272D01*
X243250D01*
Y26335D01*
X243186D01*
Y26462D01*
X243123D01*
Y26526D01*
X243059D01*
Y26653D01*
X242996D01*
Y26716D01*
X242932D01*
Y26843D01*
X242869D01*
Y26907D01*
X242805D01*
Y26970D01*
X242742D01*
Y27097D01*
X242678D01*
Y27224D01*
X242615D01*
Y27288D01*
X242551D01*
Y27415D01*
X242488D01*
Y27542D01*
X242424D01*
Y27605D01*
X242361D01*
Y27732D01*
X242297D01*
Y27859D01*
X242234D01*
Y27923D01*
X242170D01*
Y28050D01*
X242107D01*
Y28177D01*
X242043D01*
Y28240D01*
X241980D01*
Y28367D01*
X241916D01*
Y28494D01*
X241853D01*
Y28621D01*
X241789D01*
Y28748D01*
X241726D01*
Y28875D01*
X241662D01*
Y29002D01*
X241599D01*
Y29066D01*
X241535D01*
Y29193D01*
X241472D01*
Y29383D01*
X241408D01*
Y29447D01*
X241345D01*
Y29574D01*
X241281D01*
Y29701D01*
X241218D01*
Y29828D01*
X241154D01*
Y30018D01*
X241091D01*
Y30082D01*
X241027D01*
Y30272D01*
X240964D01*
Y30400D01*
X240900D01*
Y30527D01*
X240964D01*
Y30463D01*
D02*
G37*
G36*
X280275Y44244D02*
X280339D01*
Y44054D01*
X280402D01*
Y43863D01*
X280466D01*
Y43673D01*
X280529D01*
Y43482D01*
X280592D01*
Y43355D01*
X280656D01*
Y42974D01*
X280592D01*
Y42847D01*
X280529D01*
Y42593D01*
X280466D01*
Y42466D01*
X280402D01*
Y42276D01*
X280339D01*
Y42085D01*
X280275D01*
Y41958D01*
X280211D01*
Y41767D01*
X280148D01*
Y41577D01*
X280084D01*
Y41450D01*
X280021D01*
Y41259D01*
X279958D01*
Y41069D01*
X279894D01*
Y40942D01*
X279831D01*
Y40815D01*
X279767D01*
Y40624D01*
X279703D01*
Y40497D01*
X279640D01*
Y40370D01*
X279576D01*
Y40180D01*
X279513D01*
Y40053D01*
X279449D01*
Y39862D01*
X279386D01*
Y39735D01*
X279322D01*
Y39608D01*
X279259D01*
Y39481D01*
X279195D01*
Y39354D01*
X279132D01*
Y39227D01*
X279068D01*
Y39100D01*
X279005D01*
Y38910D01*
X278941D01*
Y38846D01*
X278878D01*
Y38655D01*
X278814D01*
Y38465D01*
X278751D01*
Y38401D01*
X278687D01*
Y38274D01*
X278624D01*
Y38148D01*
X278560D01*
Y38021D01*
X278497D01*
Y37894D01*
X278433D01*
Y37766D01*
X278370D01*
Y37639D01*
X278306D01*
Y37576D01*
X278243D01*
Y37449D01*
X278179D01*
Y37322D01*
X278116D01*
Y37195D01*
X278052D01*
Y37068D01*
X277989D01*
Y37004D01*
X277925D01*
Y36877D01*
X277862D01*
Y36750D01*
X277798D01*
Y36623D01*
X277735D01*
Y36496D01*
X277671D01*
Y36433D01*
X277608D01*
Y36306D01*
X277544D01*
Y36179D01*
X277481D01*
Y36052D01*
X277417D01*
Y35988D01*
X277354D01*
Y35861D01*
X277290D01*
Y35734D01*
X277227D01*
Y35607D01*
X277163D01*
Y35544D01*
X277100D01*
Y35417D01*
X277036D01*
Y35353D01*
X276973D01*
Y35226D01*
X276909D01*
Y35163D01*
X276846D01*
Y35036D01*
X276782D01*
Y34972D01*
X276719D01*
Y34845D01*
X276655D01*
Y34718D01*
X276592D01*
Y34655D01*
X276528D01*
Y34528D01*
X276465D01*
Y34464D01*
X276401D01*
Y34337D01*
X276338D01*
Y34273D01*
X276274D01*
Y34146D01*
X276210D01*
Y34083D01*
X276147D01*
Y33956D01*
X276083D01*
Y33893D01*
X276020D01*
Y33765D01*
X275957D01*
Y33702D01*
X275893D01*
Y33638D01*
X275830D01*
Y33511D01*
X275766D01*
Y33448D01*
X275703D01*
Y33384D01*
X275639D01*
Y33257D01*
X275575D01*
Y33194D01*
X275512D01*
Y33130D01*
X275448D01*
Y33003D01*
X275385D01*
Y32940D01*
X275321D01*
Y32813D01*
X275258D01*
Y32749D01*
X275194D01*
Y32686D01*
X275131D01*
Y32622D01*
X275067D01*
Y32495D01*
X275004D01*
Y32432D01*
X274940D01*
Y32368D01*
X274877D01*
Y32305D01*
X274813D01*
Y32178D01*
X274750D01*
Y32114D01*
X274686D01*
Y32051D01*
X274623D01*
Y31924D01*
X274496D01*
Y31797D01*
X274432D01*
Y31670D01*
X274305D01*
Y31606D01*
X274242D01*
Y31479D01*
X274178D01*
Y31416D01*
X274115D01*
Y31225D01*
X274242D01*
Y31098D01*
X274305D01*
Y31035D01*
X274369D01*
Y30971D01*
X274432D01*
Y30908D01*
X274496D01*
Y30844D01*
X274559D01*
Y30717D01*
X274623D01*
Y30654D01*
X274686D01*
Y30590D01*
X274750D01*
Y30527D01*
X274813D01*
Y30463D01*
X274877D01*
Y30400D01*
X274940D01*
Y30272D01*
X275004D01*
Y30209D01*
X275067D01*
Y30145D01*
X275131D01*
Y30082D01*
X275194D01*
Y29955D01*
X275258D01*
Y29891D01*
X275321D01*
Y29828D01*
X275385D01*
Y29701D01*
X275448D01*
Y29637D01*
X275512D01*
Y29574D01*
X275575D01*
Y29447D01*
X275639D01*
Y29383D01*
X275703D01*
Y29320D01*
X275766D01*
Y29193D01*
X275830D01*
Y29129D01*
X275893D01*
Y29066D01*
X275957D01*
Y28939D01*
X276020D01*
Y28875D01*
X276083D01*
Y28748D01*
X276147D01*
Y28685D01*
X276210D01*
Y28558D01*
X276274D01*
Y28494D01*
X276338D01*
Y28367D01*
X276401D01*
Y28304D01*
X276465D01*
Y28177D01*
X276528D01*
Y28113D01*
X276592D01*
Y27986D01*
X276655D01*
Y27923D01*
X276719D01*
Y27796D01*
X276782D01*
Y27732D01*
X276846D01*
Y27669D01*
X276909D01*
Y27542D01*
X276973D01*
Y27415D01*
X277036D01*
Y27288D01*
X277100D01*
Y27224D01*
X277163D01*
Y27097D01*
X277227D01*
Y27034D01*
X277290D01*
Y26907D01*
X277354D01*
Y26780D01*
X277417D01*
Y26716D01*
X277481D01*
Y26589D01*
X277544D01*
Y26462D01*
X277608D01*
Y26399D01*
X277671D01*
Y26272D01*
X277735D01*
Y26144D01*
X277798D01*
Y26017D01*
X277862D01*
Y25890D01*
X277925D01*
Y25763D01*
X277989D01*
Y25700D01*
X278052D01*
Y25573D01*
X278116D01*
Y25446D01*
X278179D01*
Y25319D01*
X278243D01*
Y25192D01*
X278306D01*
Y25065D01*
X278370D01*
Y25001D01*
X278433D01*
Y24874D01*
X278497D01*
Y24747D01*
X278560D01*
Y24620D01*
X278624D01*
Y24493D01*
X278687D01*
Y24366D01*
X278751D01*
Y24239D01*
X278814D01*
Y24112D01*
X278878D01*
Y23922D01*
X278941D01*
Y23795D01*
X279005D01*
Y23668D01*
X279068D01*
Y23541D01*
X279132D01*
Y23414D01*
X279195D01*
Y23287D01*
X279259D01*
Y23160D01*
X279322D01*
Y22969D01*
X279386D01*
Y22842D01*
X279449D01*
Y22715D01*
X279513D01*
Y22588D01*
X279576D01*
Y22398D01*
X279640D01*
Y22271D01*
X279703D01*
Y22143D01*
X279767D01*
Y22016D01*
X279831D01*
Y21826D01*
X279894D01*
Y21635D01*
X279958D01*
Y21508D01*
X280021D01*
Y21318D01*
X280084D01*
Y21191D01*
X280148D01*
Y21000D01*
X280211D01*
Y20873D01*
X280275D01*
Y20683D01*
X280339D01*
Y20556D01*
X280402D01*
Y20365D01*
X280466D01*
Y20175D01*
X280529D01*
Y20048D01*
X280592D01*
Y19857D01*
X280656D01*
Y19667D01*
X280720D01*
Y19603D01*
X280656D01*
Y19413D01*
X280592D01*
Y19286D01*
X280529D01*
Y19095D01*
X280466D01*
Y18905D01*
X280402D01*
Y18714D01*
X280339D01*
Y18524D01*
X280275D01*
Y18333D01*
X280211D01*
Y18460D01*
X280148D01*
Y18651D01*
X280084D01*
Y18841D01*
X280021D01*
Y19032D01*
X279958D01*
Y19222D01*
X279894D01*
Y19413D01*
X279831D01*
Y19603D01*
X279767D01*
Y19857D01*
X279703D01*
Y20048D01*
X279640D01*
Y20175D01*
X279576D01*
Y20365D01*
X279513D01*
Y20556D01*
X279449D01*
Y20746D01*
X279386D01*
Y20937D01*
X279322D01*
Y21064D01*
X279259D01*
Y21254D01*
X279195D01*
Y21445D01*
X279132D01*
Y21572D01*
X279068D01*
Y21763D01*
X279005D01*
Y21953D01*
X278941D01*
Y22080D01*
X278878D01*
Y22271D01*
X278814D01*
Y22398D01*
X278751D01*
Y22588D01*
X278687D01*
Y22715D01*
X278624D01*
Y22906D01*
X278560D01*
Y23033D01*
X278497D01*
Y23223D01*
X278433D01*
Y23350D01*
X278370D01*
Y23477D01*
X278306D01*
Y23604D01*
X278243D01*
Y23795D01*
X278179D01*
Y23922D01*
X278116D01*
Y24049D01*
X278052D01*
Y24239D01*
X277989D01*
Y24366D01*
X277925D01*
Y24493D01*
X277862D01*
Y24620D01*
X277798D01*
Y24747D01*
X277735D01*
Y24874D01*
X277671D01*
Y25001D01*
X277608D01*
Y25128D01*
X277544D01*
Y25255D01*
X277481D01*
Y25382D01*
X277417D01*
Y25509D01*
X277354D01*
Y25637D01*
X277290D01*
Y25763D01*
X277227D01*
Y25890D01*
X277163D01*
Y26017D01*
X277100D01*
Y26144D01*
X277036D01*
Y26272D01*
X276973D01*
Y26335D01*
X276909D01*
Y26462D01*
X276846D01*
Y26589D01*
X276782D01*
Y26716D01*
X276719D01*
Y26843D01*
X276655D01*
Y26907D01*
X276592D01*
Y27034D01*
X276528D01*
Y27161D01*
X276465D01*
Y27224D01*
X276401D01*
Y27351D01*
X276338D01*
Y27415D01*
X276274D01*
Y27542D01*
X276210D01*
Y27669D01*
X276147D01*
Y27732D01*
X276083D01*
Y27859D01*
X276020D01*
Y27986D01*
X275957D01*
Y28050D01*
X275893D01*
Y28177D01*
X275830D01*
Y28240D01*
X275766D01*
Y28367D01*
X275703D01*
Y28431D01*
X275639D01*
Y28494D01*
X275575D01*
Y28621D01*
X275512D01*
Y28748D01*
X275385D01*
Y28875D01*
X275321D01*
Y29002D01*
X275258D01*
Y29066D01*
X275194D01*
Y29129D01*
X275131D01*
Y29256D01*
X275067D01*
Y29320D01*
X275004D01*
Y29383D01*
X274940D01*
Y29510D01*
X274877D01*
Y29574D01*
X274813D01*
Y29637D01*
X274750D01*
Y29701D01*
X274686D01*
Y29828D01*
X274623D01*
Y29891D01*
X274559D01*
Y29955D01*
X274496D01*
Y30082D01*
X274432D01*
Y30145D01*
X274369D01*
Y30209D01*
X274305D01*
Y30272D01*
X274242D01*
Y30336D01*
X274178D01*
Y30400D01*
X274115D01*
Y30527D01*
X273988D01*
Y30654D01*
X273924D01*
Y30717D01*
X273861D01*
Y30781D01*
X273797D01*
Y30844D01*
X273734D01*
Y30908D01*
X273670D01*
Y30971D01*
X273607D01*
Y31098D01*
X273543D01*
Y31162D01*
X273480D01*
Y31225D01*
X273353D01*
Y31289D01*
X273289D01*
Y31352D01*
X273353D01*
Y31479D01*
X273416D01*
Y31543D01*
X273480D01*
Y31606D01*
X273543D01*
Y31733D01*
X273670D01*
Y31797D01*
X273734D01*
Y31860D01*
X273797D01*
Y31924D01*
X273861D01*
Y31987D01*
X273924D01*
Y32114D01*
X273988D01*
Y32178D01*
X274051D01*
Y32241D01*
X274115D01*
Y32305D01*
X274178D01*
Y32368D01*
X274242D01*
Y32495D01*
X274305D01*
Y32559D01*
X274369D01*
Y32622D01*
X274432D01*
Y32686D01*
X274496D01*
Y32813D01*
X274559D01*
Y32876D01*
X274623D01*
Y32940D01*
X274686D01*
Y33003D01*
X274750D01*
Y33130D01*
X274813D01*
Y33194D01*
X274877D01*
Y33257D01*
X274940D01*
Y33321D01*
X275004D01*
Y33448D01*
X275067D01*
Y33511D01*
X275131D01*
Y33575D01*
X275194D01*
Y33702D01*
X275258D01*
Y33765D01*
X275321D01*
Y33893D01*
X275385D01*
Y33956D01*
X275448D01*
Y34020D01*
X275512D01*
Y34146D01*
X275575D01*
Y34210D01*
X275639D01*
Y34337D01*
X275703D01*
Y34400D01*
X275766D01*
Y34528D01*
X275830D01*
Y34591D01*
X275893D01*
Y34718D01*
X275957D01*
Y34782D01*
X276020D01*
Y34909D01*
X276083D01*
Y34972D01*
X276147D01*
Y35099D01*
X276210D01*
Y35163D01*
X276274D01*
Y35290D01*
X276338D01*
Y35417D01*
X276401D01*
Y35480D01*
X276465D01*
Y35607D01*
X276528D01*
Y35734D01*
X276592D01*
Y35798D01*
X276655D01*
Y35925D01*
X276719D01*
Y36052D01*
X276782D01*
Y36115D01*
X276846D01*
Y36242D01*
X276909D01*
Y36369D01*
X276973D01*
Y36496D01*
X277036D01*
Y36623D01*
X277100D01*
Y36750D01*
X277163D01*
Y36877D01*
X277227D01*
Y36941D01*
X277290D01*
Y37068D01*
X277354D01*
Y37195D01*
X277417D01*
Y37322D01*
X277481D01*
Y37449D01*
X277544D01*
Y37576D01*
X277608D01*
Y37703D01*
X277671D01*
Y37830D01*
X277735D01*
Y37957D01*
X277798D01*
Y38084D01*
X277862D01*
Y38211D01*
X277925D01*
Y38338D01*
X277989D01*
Y38465D01*
X278052D01*
Y38655D01*
X278116D01*
Y38783D01*
X278179D01*
Y38910D01*
X278243D01*
Y39037D01*
X278306D01*
Y39164D01*
X278370D01*
Y39354D01*
X278433D01*
Y39481D01*
X278497D01*
Y39608D01*
X278560D01*
Y39799D01*
X278624D01*
Y39926D01*
X278687D01*
Y40053D01*
X278751D01*
Y40243D01*
X278814D01*
Y40370D01*
X278878D01*
Y40561D01*
X278941D01*
Y40688D01*
X279005D01*
Y40878D01*
X279068D01*
Y41069D01*
X279132D01*
Y41196D01*
X279195D01*
Y41386D01*
X279259D01*
Y41513D01*
X279322D01*
Y41767D01*
X279386D01*
Y41895D01*
X279449D01*
Y42085D01*
X279513D01*
Y42276D01*
X279576D01*
Y42402D01*
X279640D01*
Y42593D01*
X279703D01*
Y42847D01*
X279767D01*
Y43038D01*
X279831D01*
Y43228D01*
X279894D01*
Y43419D01*
X279958D01*
Y43609D01*
X280021D01*
Y43800D01*
X280084D01*
Y44054D01*
X280148D01*
Y44308D01*
X280211D01*
Y44435D01*
X280275D01*
Y44244D01*
D02*
G37*
G36*
X243504Y25001D02*
X243567D01*
Y24938D01*
X243631D01*
Y24874D01*
X243694D01*
Y24747D01*
X243758D01*
Y24684D01*
X243822D01*
Y24620D01*
X243885D01*
Y24557D01*
X243949D01*
Y24493D01*
X244012D01*
Y24430D01*
X244076D01*
Y24366D01*
X244139D01*
Y24239D01*
X244203D01*
Y24176D01*
X244330D01*
Y24112D01*
X244393D01*
Y24049D01*
X244457D01*
Y23985D01*
X244520D01*
Y23922D01*
X244584D01*
Y23858D01*
X244647D01*
Y23795D01*
X244711D01*
Y23731D01*
X244774D01*
Y23668D01*
X244838D01*
Y23541D01*
X245028D01*
Y23414D01*
X245092D01*
Y23350D01*
X245155D01*
Y23287D01*
X245219D01*
Y23223D01*
X245282D01*
Y23160D01*
X245346D01*
Y23096D01*
X245473D01*
Y23033D01*
X245536D01*
Y22969D01*
X245600D01*
Y22906D01*
X245663D01*
Y22842D01*
X245727D01*
Y22779D01*
X245854D01*
Y22715D01*
X245917D01*
Y22652D01*
X245981D01*
Y22588D01*
X246108D01*
Y22525D01*
X246171D01*
Y22461D01*
X246298D01*
Y22398D01*
X246362D01*
Y22334D01*
X246489D01*
Y22271D01*
X246552D01*
Y22207D01*
X246679D01*
Y22143D01*
X246806D01*
Y22080D01*
X246870D01*
Y22016D01*
X246997D01*
Y21953D01*
X247060D01*
Y21890D01*
X247187D01*
Y21826D01*
X247314D01*
Y21763D01*
X247442D01*
Y21699D01*
X247568D01*
Y21635D01*
X247632D01*
Y21699D01*
X247695D01*
Y21572D01*
X247886D01*
Y21508D01*
X248013D01*
Y21445D01*
X248140D01*
Y21381D01*
X248331D01*
Y21318D01*
X248521D01*
Y21254D01*
X248712D01*
Y21191D01*
X248966D01*
Y21127D01*
X249156D01*
Y21064D01*
X249474D01*
Y21000D01*
X249791D01*
Y20937D01*
X250236D01*
Y20873D01*
X250299D01*
Y20937D01*
X250363D01*
Y20873D01*
X250426D01*
Y20937D01*
X250490D01*
Y20873D01*
X250807D01*
Y20937D01*
X250871D01*
Y20873D01*
X250998D01*
Y20810D01*
X251125D01*
Y20873D01*
X251506D01*
Y20810D01*
X251633D01*
Y20873D01*
X251696D01*
Y20937D01*
X251760D01*
Y20873D01*
X252205D01*
Y20937D01*
X252268D01*
Y20873D01*
X252332D01*
Y20937D01*
X252395D01*
Y20873D01*
X252522D01*
Y20937D01*
X252967D01*
Y21000D01*
X253411D01*
Y21064D01*
X253792D01*
Y21127D01*
X254110D01*
Y21191D01*
X254427D01*
Y21254D01*
X254745D01*
Y21318D01*
X254999D01*
Y21381D01*
X255316D01*
Y21445D01*
X255571D01*
Y21508D01*
X255824D01*
Y21572D01*
X256079D01*
Y21635D01*
X256333D01*
Y21699D01*
X256523D01*
Y21763D01*
X256777D01*
Y21826D01*
X257031D01*
Y21890D01*
X257222D01*
Y21953D01*
X257476D01*
Y22016D01*
X257666D01*
Y22080D01*
X257920D01*
Y22143D01*
X258174D01*
Y22207D01*
X258365D01*
Y22271D01*
X258619D01*
Y22334D01*
X258873D01*
Y22398D01*
X259127D01*
Y22461D01*
X259381D01*
Y22525D01*
X259572D01*
Y22588D01*
X259889D01*
Y22652D01*
X260143D01*
Y22715D01*
X260334D01*
Y22779D01*
X260651D01*
Y22842D01*
X260969D01*
Y22906D01*
X261286D01*
Y22969D01*
X261540D01*
Y23033D01*
X261921D01*
Y23096D01*
X262239D01*
Y23160D01*
X262683D01*
Y23223D01*
X263128D01*
Y23287D01*
X263572D01*
Y23350D01*
X263636D01*
Y23287D01*
X263700D01*
Y23350D01*
X264144D01*
Y23477D01*
X264208D01*
Y23350D01*
X264335D01*
Y23414D01*
X264398D01*
Y23350D01*
X264525D01*
Y23477D01*
X264589D01*
Y23414D01*
X264779D01*
Y23477D01*
X264843D01*
Y23414D01*
X265160D01*
Y23477D01*
X265224D01*
Y23414D01*
X266049D01*
Y23477D01*
X266113D01*
Y23414D01*
X266684D01*
Y23350D01*
X266811D01*
Y23477D01*
X266875D01*
Y23350D01*
X267129D01*
Y23414D01*
X267192D01*
Y23350D01*
X267383D01*
Y23287D01*
X267891D01*
Y23223D01*
X268272D01*
Y23160D01*
X268526D01*
Y23096D01*
X268907D01*
Y23033D01*
X269098D01*
Y22969D01*
X269352D01*
Y22906D01*
X269606D01*
Y22842D01*
X269733D01*
Y22779D01*
X269923D01*
Y22715D01*
X270114D01*
Y22652D01*
X270241D01*
Y22588D01*
X270431D01*
Y22525D01*
X270558D01*
Y22461D01*
X270749D01*
Y22398D01*
X270876D01*
Y22334D01*
X271003D01*
Y22271D01*
X271130D01*
Y22207D01*
X271257D01*
Y22143D01*
X271384D01*
Y22080D01*
X271511D01*
Y22016D01*
X271638D01*
Y21953D01*
X271702D01*
Y21890D01*
X271829D01*
Y21826D01*
X271955D01*
Y21763D01*
X272019D01*
Y21699D01*
X272146D01*
Y21635D01*
X272210D01*
Y21572D01*
X272337D01*
Y21508D01*
X272400D01*
Y21445D01*
X272527D01*
Y21381D01*
X272591D01*
Y21318D01*
X272718D01*
Y21254D01*
X272781D01*
Y21191D01*
X272845D01*
Y21127D01*
X272972D01*
Y21064D01*
X273035D01*
Y21000D01*
X273099D01*
Y20937D01*
X273162D01*
Y20873D01*
X273226D01*
Y20810D01*
X273353D01*
Y20746D01*
X273416D01*
Y20683D01*
X273543D01*
Y20556D01*
X273670D01*
Y20429D01*
X273734D01*
Y20365D01*
X273861D01*
Y20302D01*
X273924D01*
Y20238D01*
X273988D01*
Y20175D01*
X274051D01*
Y20048D01*
X274178D01*
Y19984D01*
X274242D01*
Y19921D01*
X274305D01*
Y19794D01*
X274369D01*
Y19730D01*
X274496D01*
Y19603D01*
X274623D01*
Y19476D01*
X274686D01*
Y19413D01*
X274750D01*
Y19286D01*
X274813D01*
Y19222D01*
X274877D01*
Y19159D01*
X274940D01*
Y19095D01*
X275004D01*
Y19032D01*
X275067D01*
Y18968D01*
X275131D01*
Y18841D01*
X275194D01*
Y18778D01*
X275258D01*
Y18714D01*
X275321D01*
Y18587D01*
X275385D01*
Y18524D01*
X275448D01*
Y18460D01*
X275512D01*
Y18333D01*
X275575D01*
Y18206D01*
X275639D01*
Y18143D01*
X275703D01*
Y18079D01*
X275766D01*
Y17952D01*
X275830D01*
Y17888D01*
X275893D01*
Y17762D01*
X275957D01*
Y17698D01*
X276020D01*
Y17571D01*
X276083D01*
Y17507D01*
X276147D01*
Y17380D01*
X276210D01*
Y17253D01*
X276274D01*
Y17190D01*
X276338D01*
Y17063D01*
X276401D01*
Y16936D01*
X276465D01*
Y16809D01*
X276528D01*
Y16745D01*
X276592D01*
Y16618D01*
X276655D01*
Y16491D01*
X276719D01*
Y16364D01*
X276782D01*
Y16237D01*
X276846D01*
Y16110D01*
X276909D01*
Y15983D01*
X276973D01*
Y15856D01*
X277036D01*
Y15729D01*
X277100D01*
Y15602D01*
X277163D01*
Y15475D01*
X277100D01*
Y15539D01*
X277036D01*
Y15602D01*
X276973D01*
Y15666D01*
X276909D01*
Y15729D01*
X276846D01*
Y15793D01*
X276719D01*
Y15983D01*
X276592D01*
Y16047D01*
X276465D01*
Y16110D01*
X276401D01*
Y16174D01*
X276338D01*
Y16237D01*
X276274D01*
Y16301D01*
X276210D01*
Y16428D01*
X276147D01*
Y16555D01*
X275957D01*
Y16682D01*
X275893D01*
Y16745D01*
X275830D01*
Y16809D01*
X275766D01*
Y16872D01*
X275703D01*
Y16936D01*
X275639D01*
Y16999D01*
X275575D01*
Y17063D01*
X275448D01*
Y17126D01*
X275385D01*
Y17190D01*
X275321D01*
Y17253D01*
X275194D01*
Y17317D01*
X275131D01*
Y17380D01*
X275067D01*
Y17444D01*
X274940D01*
Y17507D01*
X274877D01*
Y17571D01*
X274750D01*
Y17635D01*
X274686D01*
Y17698D01*
X274623D01*
Y17762D01*
X274496D01*
Y17825D01*
X274369D01*
Y17888D01*
X274305D01*
Y17952D01*
X274178D01*
Y18015D01*
X274115D01*
Y18079D01*
X273988D01*
Y18143D01*
X273861D01*
Y18206D01*
X273734D01*
Y18270D01*
X273670D01*
Y18333D01*
X273543D01*
Y18396D01*
X273353D01*
Y18460D01*
X273226D01*
Y18524D01*
X273162D01*
Y18587D01*
X272972D01*
Y18651D01*
X272845D01*
Y18714D01*
X272718D01*
Y18778D01*
X272527D01*
Y18841D01*
X272400D01*
Y18905D01*
X272210D01*
Y18968D01*
X271955D01*
Y19032D01*
X271765D01*
Y19095D01*
X271574D01*
Y19159D01*
X271320D01*
Y19222D01*
X271130D01*
Y19286D01*
X270812D01*
Y19349D01*
X270495D01*
Y19413D01*
X270241D01*
Y19476D01*
X269796D01*
Y19540D01*
X269733D01*
Y19476D01*
X269669D01*
Y19540D01*
X269606D01*
Y19476D01*
X269542D01*
Y19540D01*
X269288D01*
Y19603D01*
X269225D01*
Y19540D01*
X269161D01*
Y19476D01*
X269098D01*
Y19603D01*
X268971D01*
Y19540D01*
X268907D01*
Y19603D01*
X268780D01*
Y19540D01*
X268717D01*
Y19603D01*
X268463D01*
Y19540D01*
X268399D01*
Y19603D01*
X268336D01*
Y19540D01*
X268272D01*
Y19603D01*
X267573D01*
Y19540D01*
X267383D01*
Y19603D01*
X267192D01*
Y19540D01*
X267065D01*
Y19603D01*
X266875D01*
Y19476D01*
X266811D01*
Y19603D01*
X266684D01*
Y19540D01*
X266621D01*
Y19603D01*
X266494D01*
Y19540D01*
X266367D01*
Y19476D01*
X266303D01*
Y19540D01*
X266049D01*
Y19476D01*
X265986D01*
Y19540D01*
X265922D01*
Y19476D01*
X265414D01*
Y19413D01*
X264970D01*
Y19349D01*
X264525D01*
Y19286D01*
X264144D01*
Y19222D01*
X263763D01*
Y19159D01*
X263445D01*
Y19095D01*
X263128D01*
Y19032D01*
X262810D01*
Y18968D01*
X262493D01*
Y18905D01*
X262239D01*
Y18841D01*
X261921D01*
Y18778D01*
X261667D01*
Y18714D01*
X261413D01*
Y18651D01*
X261159D01*
Y18587D01*
X260842D01*
Y18524D01*
X260588D01*
Y18460D01*
X260334D01*
Y18396D01*
X260143D01*
Y18333D01*
X259889D01*
Y18270D01*
X259572D01*
Y18206D01*
X259381D01*
Y18143D01*
X259127D01*
Y18079D01*
X258809D01*
Y18015D01*
X258619D01*
Y17952D01*
X258301D01*
Y17888D01*
X258111D01*
Y17825D01*
X257920D01*
Y17762D01*
X257857D01*
Y17825D01*
X257793D01*
Y17762D01*
X257539D01*
Y17698D01*
X257285D01*
Y17635D01*
X257031D01*
Y17571D01*
X256714D01*
Y17507D01*
X256396D01*
Y17444D01*
X256142D01*
Y17380D01*
X255761D01*
Y17317D01*
X255380D01*
Y17253D01*
X254999D01*
Y17190D01*
X254681D01*
Y17126D01*
X254618D01*
Y17190D01*
X254554D01*
Y17126D01*
X254173D01*
Y17063D01*
X254110D01*
Y17126D01*
X254046D01*
Y17063D01*
X253983D01*
Y17126D01*
X253919D01*
Y17063D01*
X253729D01*
Y16999D01*
X253665D01*
Y17063D01*
X253538D01*
Y16999D01*
X253411D01*
Y17063D01*
X253284D01*
Y16999D01*
X253094D01*
Y17063D01*
X252522D01*
Y16999D01*
X252332D01*
Y17063D01*
X252141D01*
Y16999D01*
X252078D01*
Y17063D01*
X251951D01*
Y16999D01*
X251887D01*
Y17063D01*
X251760D01*
Y17126D01*
X251696D01*
Y17063D01*
X251570D01*
Y17126D01*
X251252D01*
Y17190D01*
X250934D01*
Y17253D01*
X250617D01*
Y17317D01*
X250363D01*
Y17380D01*
X250172D01*
Y17444D01*
X249982D01*
Y17507D01*
X249791D01*
Y17571D01*
X249664D01*
Y17635D01*
X249474D01*
Y17698D01*
X249347D01*
Y17762D01*
X249156D01*
Y17825D01*
X249093D01*
Y17888D01*
X248966D01*
Y17952D01*
X248839D01*
Y18015D01*
X248712D01*
Y18079D01*
X248585D01*
Y18143D01*
X248521D01*
Y18206D01*
X248394D01*
Y18270D01*
X248331D01*
Y18333D01*
X248267D01*
Y18396D01*
X248140D01*
Y18460D01*
X248077D01*
Y18524D01*
X247950D01*
Y18587D01*
X247886D01*
Y18651D01*
X247822D01*
Y18714D01*
X247695D01*
Y18778D01*
X247632D01*
Y18841D01*
X247568D01*
Y18905D01*
X247505D01*
Y18968D01*
X247442D01*
Y19032D01*
X247378D01*
Y19095D01*
X247251D01*
Y19222D01*
X247187D01*
Y19286D01*
X247124D01*
Y19349D01*
X247060D01*
Y19413D01*
X246997D01*
Y19476D01*
X246933D01*
Y19540D01*
X246870D01*
Y19603D01*
X246806D01*
Y19667D01*
X246743D01*
Y19730D01*
X246679D01*
Y19794D01*
X246616D01*
Y19857D01*
X246552D01*
Y19921D01*
X246489D01*
Y19984D01*
X246425D01*
Y20111D01*
X246362D01*
Y20175D01*
X246298D01*
Y20238D01*
X246235D01*
Y20302D01*
X246171D01*
Y20365D01*
X246108D01*
Y20492D01*
X246044D01*
Y20556D01*
X245981D01*
Y20619D01*
X245917D01*
Y20746D01*
X245854D01*
Y20810D01*
X245790D01*
Y20873D01*
X245727D01*
Y21000D01*
X245663D01*
Y21064D01*
X245600D01*
Y21191D01*
X245536D01*
Y21254D01*
X245473D01*
Y21381D01*
X245409D01*
Y21445D01*
X245346D01*
Y21572D01*
X245282D01*
Y21635D01*
X245219D01*
Y21699D01*
X245155D01*
Y21826D01*
X245092D01*
Y21953D01*
X245028D01*
Y22016D01*
X244965D01*
Y22143D01*
X244901D01*
Y22271D01*
X244838D01*
Y22398D01*
X244774D01*
Y22461D01*
X244711D01*
Y22588D01*
X244647D01*
Y22715D01*
X244584D01*
Y22842D01*
X244520D01*
Y22906D01*
X244457D01*
Y23033D01*
X244393D01*
Y23160D01*
X244330D01*
Y23287D01*
X244266D01*
Y23414D01*
X244203D01*
Y23541D01*
X244139D01*
Y23668D01*
X244076D01*
Y23795D01*
X244012D01*
Y23922D01*
X243949D01*
Y23985D01*
X243885D01*
Y24176D01*
X243822D01*
Y24303D01*
X243758D01*
Y24366D01*
X243694D01*
Y24557D01*
X243631D01*
Y24684D01*
X243567D01*
Y24811D01*
X243504D01*
Y24938D01*
X243441D01*
Y25065D01*
X243504D01*
Y25001D01*
D02*
G37*
D12*
X249029Y61366D02*
Y56118D01*
X241158D01*
Y61366D01*
X245093Y56118D02*
Y58742D01*
X249029Y63990D02*
X241158D01*
Y69237D01*
X249029Y77109D02*
Y71861D01*
X241158D01*
Y77109D01*
X245093Y71861D02*
Y74485D01*
X249029Y79733D02*
X241158D01*
X243781D01*
X249029Y84980D01*
X245093Y81044D01*
X241158Y84980D01*
X249029Y87604D02*
Y92852D01*
Y90228D01*
X241158D01*
Y95476D02*
X249029D01*
Y99411D01*
X247717Y100723D01*
X245093D01*
X243781Y99411D01*
Y95476D01*
Y98099D02*
X241158Y100723D01*
X249029Y103347D02*
Y105971D01*
Y104659D01*
X241158D01*
Y103347D01*
Y105971D01*
X249029Y109906D02*
X241158D01*
X243781D01*
X249029Y115154D01*
X245093Y111219D01*
X241158Y115154D01*
X249029Y125649D02*
X243781D01*
X241158Y128273D01*
X243781Y130897D01*
X249029D01*
Y138769D02*
Y133521D01*
X241158D01*
Y138769D01*
X245093Y133521D02*
Y136145D01*
X249029Y154512D02*
Y149264D01*
X241158D01*
Y154512D01*
X245093Y149264D02*
Y151888D01*
X249029Y157135D02*
X241158D01*
Y162383D01*
X249029Y170255D02*
Y165007D01*
X241158D01*
Y170255D01*
X245093Y165007D02*
Y167631D01*
X249029Y172878D02*
X241158D01*
X243781D01*
X249029Y178126D01*
X245093Y174190D01*
X241158Y178126D01*
X249029Y180750D02*
Y185997D01*
Y183374D01*
X241158D01*
Y188621D02*
X249029D01*
Y192557D01*
X247717Y193869D01*
X245093D01*
X243781Y192557D01*
Y188621D01*
Y191245D02*
X241158Y193869D01*
X249029Y200429D02*
Y197805D01*
X247717Y196493D01*
X242469D01*
X241158Y197805D01*
Y200429D01*
X242469Y201741D01*
X247717D01*
X249029Y200429D01*
X241158Y204364D02*
X249029D01*
X241158Y209612D01*
X249029D01*
Y212236D02*
Y214860D01*
Y213548D01*
X241158D01*
Y212236D01*
Y214860D01*
X249029Y218795D02*
X241158D01*
X243781D01*
X249029Y224043D01*
X245093Y220107D01*
X241158Y224043D01*
Y234538D02*
X249029D01*
X246405Y237162D01*
X249029Y239786D01*
X241158D01*
X249029Y242410D02*
X242469D01*
X241158Y243722D01*
Y246345D01*
X242469Y247657D01*
X249029D01*
Y250281D02*
X241158D01*
X245093D01*
Y255529D01*
X249029D01*
X241158D01*
X249029Y263400D02*
Y258153D01*
X241158D01*
Y263400D01*
X245093Y258153D02*
Y260777D01*
X241158Y266024D02*
X249029D01*
X241158Y271272D01*
X249029D01*
Y273896D02*
X241158D01*
Y277831D01*
X242469Y279143D01*
X247717D01*
X249029Y277831D01*
Y273896D01*
Y281767D02*
Y284391D01*
Y283079D01*
X241158D01*
Y281767D01*
Y284391D01*
X247717Y293574D02*
X249029Y292263D01*
Y289639D01*
X247717Y288327D01*
X246405D01*
X245093Y289639D01*
Y292263D01*
X243781Y293574D01*
X242469D01*
X241158Y292263D01*
Y289639D01*
X242469Y288327D01*
X249029Y296198D02*
X241158D01*
Y301446D01*
X249029Y304070D02*
Y306694D01*
Y305382D01*
X241158D01*
Y304070D01*
Y306694D01*
X247717Y315877D02*
X249029Y314565D01*
Y311941D01*
X247717Y310629D01*
X242469D01*
X241158Y311941D01*
Y314565D01*
X242469Y315877D01*
X245093D01*
Y313253D01*
X249029Y318501D02*
Y321125D01*
Y319813D01*
X241158D01*
Y318501D01*
Y321125D01*
X264777Y115173D02*
Y120421D01*
Y117797D01*
X256906D01*
X264777Y128292D02*
Y123045D01*
X256906D01*
Y128292D01*
X260841Y123045D02*
Y125669D01*
X264777Y130916D02*
X256906D01*
X259529D01*
X264777Y136164D01*
X260841Y132228D01*
X256906Y136164D01*
Y138788D02*
X264777D01*
X256906Y144035D01*
X264777D01*
Y150595D02*
Y147971D01*
X263465Y146659D01*
X258217D01*
X256906Y147971D01*
Y150595D01*
X258217Y151907D01*
X263465D01*
X264777Y150595D01*
Y154531D02*
X256906D01*
Y159778D01*
X264777Y166338D02*
Y163714D01*
X263465Y162402D01*
X258217D01*
X256906Y163714D01*
Y166338D01*
X258217Y167650D01*
X263465D01*
X264777Y166338D01*
Y175521D02*
Y172897D01*
Y174209D01*
X258217D01*
X256906Y172897D01*
Y171586D01*
X258217Y170274D01*
X264777Y178145D02*
Y180769D01*
Y179457D01*
X256906D01*
Y178145D01*
Y180769D01*
X264777Y197824D02*
Y192576D01*
X260841D01*
Y195200D01*
Y192576D01*
X256906D01*
Y200448D02*
X262153D01*
X264777Y203071D01*
X262153Y205695D01*
X256906D01*
X260841D01*
Y200448D01*
X264777Y208319D02*
X256906D01*
X259529D01*
X264777Y213567D01*
X260841Y209631D01*
X256906Y213567D01*
X264777Y216191D02*
X258217D01*
X256906Y217502D01*
Y220126D01*
X258217Y221438D01*
X264777D01*
Y224062D02*
X256906D01*
Y229310D01*
X264777Y231933D02*
Y237181D01*
Y234557D01*
X256906D01*
X264777Y245053D02*
Y239805D01*
X256906D01*
Y245053D01*
X260841Y239805D02*
Y242429D01*
X263465Y252924D02*
X264777Y251612D01*
Y248988D01*
X263465Y247676D01*
X262153D01*
X260841Y248988D01*
Y251612D01*
X259529Y252924D01*
X258217D01*
X256906Y251612D01*
Y248988D01*
X258217Y247676D01*
X264777Y255548D02*
Y258172D01*
Y256860D01*
X256906D01*
Y255548D01*
Y258172D01*
D29*
X279394Y61547D02*
X280706Y60235D01*
Y57611D01*
X279394Y56299D01*
X278082D01*
X276770Y57611D01*
Y60235D01*
X275459Y61547D01*
X274147D01*
X272835Y60235D01*
Y57611D01*
X274147Y56299D01*
X272835Y64171D02*
X278082D01*
X280706Y66795D01*
X278082Y69418D01*
X272835D01*
X276770D01*
Y64171D01*
X280706Y72042D02*
X272835D01*
X275459D01*
X280706Y77290D01*
X276770Y73354D01*
X272835Y77290D01*
Y79914D02*
X278082D01*
X280706Y82538D01*
X278082Y85161D01*
X272835D01*
X276770D01*
Y79914D01*
X272835Y87785D02*
X280706D01*
Y91721D01*
X279394Y93033D01*
X276770D01*
X275459Y91721D01*
Y87785D01*
Y90409D02*
X272835Y93033D01*
X280706Y95657D02*
X279394D01*
X276770Y98280D01*
X279394Y100904D01*
X280706D01*
X276770Y98280D02*
X272835D01*
Y103528D02*
X278082D01*
X280706Y106152D01*
X278082Y108776D01*
X272835D01*
X276770D01*
Y103528D01*
X280706Y119271D02*
X274147D01*
X272835Y120583D01*
Y123207D01*
X274147Y124519D01*
X280706D01*
Y127143D02*
X279394D01*
X276770Y129766D01*
X279394Y132390D01*
X280706D01*
X276770Y129766D02*
X272835D01*
X279394Y140262D02*
X280706Y138950D01*
Y136326D01*
X279394Y135014D01*
X274147D01*
X272835Y136326D01*
Y138950D01*
X274147Y140262D01*
X276770D01*
Y137638D01*
X280706Y142885D02*
X274147D01*
X272835Y144197D01*
Y146821D01*
X274147Y148133D01*
X280706D01*
Y150757D02*
X272835D01*
Y156005D01*
Y158628D02*
X278082D01*
X280706Y161252D01*
X278082Y163876D01*
X272835D01*
X276770D01*
Y158628D01*
X272835Y166500D02*
X280706D01*
X278082Y169124D01*
X280706Y171748D01*
X272835D01*
Y174371D02*
X278082D01*
X280706Y176995D01*
X278082Y179619D01*
X272835D01*
X276770D01*
Y174371D01*
X280706Y182243D02*
X272835D01*
Y187490D01*
X280706Y190114D02*
Y192738D01*
Y191426D01*
X272835D01*
Y190114D01*
Y192738D01*
X280706Y204545D02*
X272835D01*
Y208481D01*
X274147Y209793D01*
X275459D01*
X276770Y208481D01*
Y204545D01*
Y208481D01*
X278082Y209793D01*
X279394D01*
X280706Y208481D01*
Y204545D01*
Y212417D02*
Y215041D01*
Y213729D01*
X272835D01*
Y212417D01*
Y215041D01*
X280706Y218976D02*
X272835D01*
Y224224D01*
X280706Y226848D02*
Y229472D01*
Y228160D01*
X272835D01*
Y226848D01*
Y229472D01*
Y233407D02*
X280706D01*
X278082Y236031D01*
X280706Y238655D01*
X272835D01*
X280706Y241279D02*
X272835D01*
Y246527D01*
X280706Y254398D02*
Y249150D01*
X272835D01*
Y254398D01*
X276770Y249150D02*
Y251774D01*
X272835Y257022D02*
X280706D01*
Y260958D01*
X279394Y262270D01*
X276770D01*
X275459Y260958D01*
Y257022D01*
Y259646D02*
X272835Y262270D01*
X280706Y272765D02*
X274147D01*
X272835Y274077D01*
Y276701D01*
X274147Y278012D01*
X280706D01*
X272835Y280636D02*
X280706D01*
X272835Y285884D01*
X280706D01*
Y288508D02*
Y291132D01*
Y289820D01*
X272835D01*
Y288508D01*
Y291132D01*
X280706Y295067D02*
X275459D01*
X272835Y297691D01*
X275459Y300315D01*
X280706D01*
Y308187D02*
Y302939D01*
X272835D01*
Y308187D01*
X276770Y302939D02*
Y305563D01*
X272835Y310810D02*
X280706D01*
Y314746D01*
X279394Y316058D01*
X276770D01*
X275459Y314746D01*
Y310810D01*
Y313434D02*
X272835Y316058D01*
X279394Y323930D02*
X280706Y322618D01*
Y319994D01*
X279394Y318682D01*
X278082D01*
X276770Y319994D01*
Y322618D01*
X275459Y323930D01*
X274147D01*
X272835Y322618D01*
Y319994D01*
X274147Y318682D01*
X280706Y326553D02*
Y329177D01*
Y327865D01*
X272835D01*
Y326553D01*
Y329177D01*
X280706Y333113D02*
Y338361D01*
Y335737D01*
X272835D01*
X280706Y346232D02*
Y340984D01*
X272835D01*
Y346232D01*
X276770Y340984D02*
Y343608D01*
X279394Y354103D02*
X280706Y352792D01*
Y350168D01*
X279394Y348856D01*
X278082D01*
X276770Y350168D01*
Y352792D01*
X275459Y354103D01*
X274147D01*
X272835Y352792D01*
Y350168D01*
X274147Y348856D01*
X280706Y356727D02*
Y359351D01*
Y358039D01*
X272835D01*
Y356727D01*
Y359351D01*
M02*
