G04*
G04 #@! TF.GenerationSoftware,Altium Limited,Altium Designer,20.0.10 (225)*
G04*
G04 Layer_Color=255*
%FSLAX25Y25*%
%MOIN*%
G70*
G01*
G75*
%ADD24R,0.13583X0.07087*%
%ADD25R,0.09843X0.06693*%
%ADD26R,0.10827X0.04331*%
%ADD27R,0.33465X0.41339*%
%ADD30R,0.15748X0.07087*%
%ADD31R,0.07087X0.15748*%
%ADD32R,0.05906X0.05906*%
%ADD33C,0.05906*%
%ADD34R,0.05906X0.05906*%
D24*
X93307Y314764D02*
D03*
X70079D02*
D03*
X93307Y275394D02*
D03*
X70079D02*
D03*
D25*
X152768Y269776D02*
D03*
X137894Y270276D02*
D03*
D26*
X119095Y303681D02*
D03*
Y290177D02*
D03*
Y296909D02*
D03*
Y310374D02*
D03*
Y317106D02*
D03*
D27*
X161898Y303642D02*
D03*
D30*
X84646Y346457D02*
D03*
Y369291D02*
D03*
D31*
X65748Y358268D02*
D03*
D32*
X55118Y31496D02*
D03*
X96299D02*
D03*
X135669D02*
D03*
X175039D02*
D03*
D33*
X65118D02*
D03*
X75118D02*
D03*
X106299D02*
D03*
X116299D02*
D03*
X145669D02*
D03*
X155669D02*
D03*
X185039D02*
D03*
X195039D02*
D03*
X31496Y288898D02*
D03*
Y298898D02*
D03*
Y308898D02*
D03*
Y318898D02*
D03*
Y328898D02*
D03*
X229685Y259685D02*
D03*
X219685Y249685D02*
D03*
X229685D02*
D03*
X219685Y239685D02*
D03*
X229685D02*
D03*
X219685Y229685D02*
D03*
X229685D02*
D03*
X219685Y219685D02*
D03*
X229685D02*
D03*
X219685Y209685D02*
D03*
X229685D02*
D03*
X219685Y199685D02*
D03*
X229685D02*
D03*
X219685Y189685D02*
D03*
X229685D02*
D03*
X219685Y179685D02*
D03*
X229685D02*
D03*
X219685Y169685D02*
D03*
X229685D02*
D03*
X219685Y159685D02*
D03*
X229685D02*
D03*
X219685Y149685D02*
D03*
X229685D02*
D03*
X219685Y139685D02*
D03*
X229685D02*
D03*
X219685Y129685D02*
D03*
X229685D02*
D03*
X219685Y119685D02*
D03*
X229685D02*
D03*
X219685Y109685D02*
D03*
X229685D02*
D03*
X219685Y99685D02*
D03*
X229685D02*
D03*
X219685Y89685D02*
D03*
X229685D02*
D03*
X219685Y79685D02*
D03*
X229685D02*
D03*
X219685Y69685D02*
D03*
X229685D02*
D03*
X219685Y59685D02*
D03*
X229685D02*
D03*
X219685Y49685D02*
D03*
X229685D02*
D03*
X219685Y39685D02*
D03*
X229685D02*
D03*
X219685Y29685D02*
D03*
X229685D02*
D03*
X219685Y19685D02*
D03*
X229685D02*
D03*
X29685Y259685D02*
D03*
X19685Y249685D02*
D03*
X29685D02*
D03*
X19685Y239685D02*
D03*
X29685D02*
D03*
X19685Y229685D02*
D03*
X29685D02*
D03*
X19685Y219685D02*
D03*
X29685D02*
D03*
X19685Y209685D02*
D03*
X29685D02*
D03*
X19685Y199685D02*
D03*
X29685D02*
D03*
X19685Y189685D02*
D03*
X29685D02*
D03*
X19685Y179685D02*
D03*
X29685D02*
D03*
X19685Y169685D02*
D03*
X29685D02*
D03*
X19685Y159685D02*
D03*
X29685D02*
D03*
X19685Y149685D02*
D03*
X29685D02*
D03*
X19685Y139685D02*
D03*
X29685D02*
D03*
X19685Y129685D02*
D03*
X29685D02*
D03*
X19685Y119685D02*
D03*
X29685D02*
D03*
X19685Y109685D02*
D03*
X29685D02*
D03*
X19685Y99685D02*
D03*
X29685D02*
D03*
X19685Y89685D02*
D03*
X29685D02*
D03*
X19685Y79685D02*
D03*
X29685D02*
D03*
X19685Y69685D02*
D03*
X29685D02*
D03*
X19685Y59685D02*
D03*
X29685D02*
D03*
X19685Y49685D02*
D03*
X29685D02*
D03*
X19685Y39685D02*
D03*
X29685D02*
D03*
X19685Y29685D02*
D03*
X29685D02*
D03*
X19685Y19685D02*
D03*
X29685D02*
D03*
X263780Y349370D02*
D03*
Y279370D02*
D03*
Y289370D02*
D03*
Y299370D02*
D03*
Y309370D02*
D03*
Y319370D02*
D03*
Y329370D02*
D03*
Y339370D02*
D03*
X263681Y78740D02*
D03*
Y88740D02*
D03*
Y98740D02*
D03*
D34*
X31496Y338898D02*
D03*
X219685Y259685D02*
D03*
X19685D02*
D03*
X263780Y359370D02*
D03*
X263681Y68740D02*
D03*
M02*
