G04*
G04 #@! TF.GenerationSoftware,Altium Limited,Altium Designer,20.0.10 (225)*
G04*
G04 Layer_Color=32768*
%FSLAX25Y25*%
%MOIN*%
G70*
G01*
G75*
%ADD36C,0.00394*%
%ADD38C,0.00197*%
D36*
X79724Y314764D02*
X83661D01*
X81693Y312795D02*
Y316732D01*
X143799Y270276D02*
X147736D01*
X145768Y268307D02*
Y272244D01*
X79724Y275394D02*
X83661D01*
X81693Y273425D02*
Y277362D01*
X143898Y301673D02*
Y305610D01*
X141929Y303642D02*
X145866D01*
X112697Y281988D02*
X178937D01*
X112697Y325295D02*
X178937D01*
Y281988D02*
Y325295D01*
X112697Y281988D02*
Y325295D01*
D38*
X103149Y342126D02*
Y400787D01*
X61417D02*
X103149D01*
X61417Y342126D02*
Y400787D01*
Y342126D02*
X103149D01*
X84646Y369488D02*
Y373425D01*
X82677Y371457D02*
X86614D01*
X102559Y299410D02*
Y330118D01*
X60827Y299410D02*
Y330118D01*
Y299410D02*
X102559D01*
X60827Y330118D02*
X102559D01*
X159768Y263386D02*
Y277165D01*
X131768Y263386D02*
Y277165D01*
Y263386D02*
X159768D01*
X131768Y277165D02*
X159768D01*
X102559Y260039D02*
Y290748D01*
X60827Y260039D02*
Y290748D01*
Y260039D02*
X102559D01*
X60827Y290748D02*
X102559D01*
M02*
