G04*
G04 #@! TF.GenerationSoftware,Altium Limited,Altium Designer,20.0.10 (225)*
G04*
G04 Layer_Color=65535*
%FSLAX25Y25*%
%MOIN*%
G70*
G01*
G75*
%ADD10C,0.00984*%
%ADD11C,0.00787*%
%ADD12C,0.01000*%
%ADD13C,0.00600*%
%ADD14C,0.00800*%
G36*
X174687Y43045D02*
X174872Y43030D01*
X175072Y42984D01*
X175302Y42922D01*
X175533Y42845D01*
X175748Y42722D01*
X175778Y42707D01*
X175840Y42646D01*
X175948Y42553D01*
X176055Y42430D01*
X176178Y42261D01*
X176286Y42077D01*
X176347Y41862D01*
X176378Y41631D01*
Y41539D01*
X176363Y41431D01*
X176332Y41293D01*
X176286Y41124D01*
X176224Y40940D01*
X176147Y40740D01*
X176024Y40525D01*
X175256Y39326D01*
X175241Y39310D01*
X175210Y39249D01*
X175164Y39157D01*
X175102Y39064D01*
X174995Y38834D01*
X174964Y38726D01*
X174949Y38649D01*
Y38603D01*
X174964Y38542D01*
X174979Y38480D01*
X175010Y38404D01*
X175056Y38327D01*
X175118Y38234D01*
X175210Y38158D01*
X175225Y38142D01*
X175271Y38127D01*
X175333Y38081D01*
X175425Y38035D01*
X175548Y37989D01*
X175702Y37958D01*
X175871Y37927D01*
X176055D01*
Y37205D01*
X176040D01*
X176009D01*
X175963D01*
X175901Y37220D01*
X175732Y37235D01*
X175533Y37266D01*
X175302Y37312D01*
X175056Y37374D01*
X174826Y37481D01*
X174610Y37604D01*
X174580Y37620D01*
X174518Y37681D01*
X174441Y37758D01*
X174334Y37881D01*
X174241Y38035D01*
X174149Y38204D01*
X174088Y38419D01*
X174072Y38649D01*
Y38726D01*
X174088Y38803D01*
X174103Y38895D01*
X174149Y39126D01*
X174211Y39249D01*
X174272Y39372D01*
X175195Y40924D01*
X175210Y40940D01*
X175241Y41001D01*
X175271Y41078D01*
X175317Y41186D01*
X175410Y41416D01*
X175440Y41539D01*
X175456Y41647D01*
Y41677D01*
X175440Y41754D01*
X175410Y41877D01*
X175348Y42000D01*
X175256Y42123D01*
X175118Y42246D01*
X175025Y42292D01*
X174918Y42323D01*
X174795Y42354D01*
X174656D01*
X174641D01*
X174580D01*
X174518D01*
X174426D01*
Y43061D01*
X174441D01*
X174457D01*
X174549D01*
X174687Y43045D01*
D02*
G37*
G36*
X185785Y40955D02*
X188583D01*
Y40002D01*
X185785D01*
Y37205D01*
X184832D01*
Y40002D01*
X182035D01*
Y40955D01*
X184832D01*
Y43752D01*
X185785D01*
Y40955D01*
D02*
G37*
G36*
X135317Y43537D02*
X135502Y43522D01*
X135701Y43476D01*
X135932Y43415D01*
X136162Y43338D01*
X136378Y43215D01*
X136408Y43199D01*
X136470Y43138D01*
X136577Y43046D01*
X136685Y42923D01*
X136808Y42754D01*
X136916Y42569D01*
X136977Y42354D01*
X137008Y42123D01*
Y42031D01*
X136993Y41924D01*
X136962Y41785D01*
X136916Y41616D01*
X136854Y41432D01*
X136777Y41232D01*
X136654Y41017D01*
X135886Y39818D01*
X135871Y39803D01*
X135840Y39741D01*
X135794Y39649D01*
X135732Y39557D01*
X135625Y39326D01*
X135594Y39219D01*
X135579Y39142D01*
Y39096D01*
X135594Y39034D01*
X135609Y38973D01*
X135640Y38896D01*
X135686Y38819D01*
X135748Y38727D01*
X135840Y38650D01*
X135855Y38634D01*
X135901Y38619D01*
X135963Y38573D01*
X136055Y38527D01*
X136178Y38481D01*
X136332Y38450D01*
X136501Y38419D01*
X136685D01*
Y37697D01*
X136670D01*
X136639D01*
X136593D01*
X136531Y37712D01*
X136362Y37728D01*
X136162Y37758D01*
X135932Y37804D01*
X135686Y37866D01*
X135456Y37973D01*
X135240Y38096D01*
X135210Y38112D01*
X135148Y38173D01*
X135071Y38250D01*
X134964Y38373D01*
X134871Y38527D01*
X134779Y38696D01*
X134718Y38911D01*
X134702Y39142D01*
Y39219D01*
X134718Y39295D01*
X134733Y39388D01*
X134779Y39618D01*
X134841Y39741D01*
X134902Y39864D01*
X135824Y41416D01*
X135840Y41432D01*
X135871Y41493D01*
X135901Y41570D01*
X135947Y41678D01*
X136040Y41908D01*
X136070Y42031D01*
X136086Y42139D01*
Y42169D01*
X136070Y42246D01*
X136040Y42369D01*
X135978Y42492D01*
X135886Y42615D01*
X135748Y42738D01*
X135655Y42784D01*
X135548Y42815D01*
X135425Y42846D01*
X135286D01*
X135271D01*
X135210D01*
X135148D01*
X135056D01*
Y43553D01*
X135071D01*
X135087D01*
X135179D01*
X135317Y43537D01*
D02*
G37*
G36*
X146415Y41447D02*
X149213D01*
Y40494D01*
X146415D01*
Y37697D01*
X145462D01*
Y40494D01*
X142665D01*
Y41447D01*
X145462D01*
Y44245D01*
X146415D01*
Y41447D01*
D02*
G37*
G36*
X95849Y43439D02*
X96033Y43424D01*
X96233Y43378D01*
X96464Y43316D01*
X96694Y43239D01*
X96909Y43116D01*
X96940Y43101D01*
X97001Y43039D01*
X97109Y42947D01*
X97217Y42824D01*
X97339Y42655D01*
X97447Y42471D01*
X97509Y42255D01*
X97539Y42025D01*
Y41933D01*
X97524Y41825D01*
X97493Y41687D01*
X97447Y41518D01*
X97386Y41333D01*
X97309Y41133D01*
X97186Y40918D01*
X96417Y39720D01*
X96402Y39704D01*
X96371Y39643D01*
X96325Y39550D01*
X96264Y39458D01*
X96156Y39228D01*
X96125Y39120D01*
X96110Y39043D01*
Y38997D01*
X96125Y38936D01*
X96141Y38874D01*
X96171Y38797D01*
X96218Y38720D01*
X96279Y38628D01*
X96371Y38551D01*
X96387Y38536D01*
X96433Y38521D01*
X96494Y38475D01*
X96586Y38428D01*
X96709Y38382D01*
X96863Y38352D01*
X97032Y38321D01*
X97217D01*
Y37598D01*
X97201D01*
X97171D01*
X97124D01*
X97063Y37614D01*
X96894Y37629D01*
X96694Y37660D01*
X96464Y37706D01*
X96218Y37767D01*
X95987Y37875D01*
X95772Y37998D01*
X95741Y38013D01*
X95680Y38075D01*
X95603Y38152D01*
X95495Y38275D01*
X95403Y38428D01*
X95311Y38598D01*
X95249Y38813D01*
X95234Y39043D01*
Y39120D01*
X95249Y39197D01*
X95265Y39289D01*
X95311Y39520D01*
X95372Y39643D01*
X95434Y39766D01*
X96356Y41318D01*
X96371Y41333D01*
X96402Y41395D01*
X96433Y41472D01*
X96479Y41579D01*
X96571Y41810D01*
X96602Y41933D01*
X96617Y42040D01*
Y42071D01*
X96602Y42148D01*
X96571Y42271D01*
X96510Y42394D01*
X96417Y42517D01*
X96279Y42640D01*
X96187Y42686D01*
X96079Y42717D01*
X95956Y42747D01*
X95818D01*
X95802D01*
X95741D01*
X95680D01*
X95587D01*
Y43454D01*
X95603D01*
X95618D01*
X95710D01*
X95849Y43439D01*
D02*
G37*
G36*
X106947Y41349D02*
X109744D01*
Y40396D01*
X106947D01*
Y37598D01*
X105994D01*
Y40396D01*
X103197D01*
Y41349D01*
X105994D01*
Y44146D01*
X106947D01*
Y41349D01*
D02*
G37*
G36*
X65707Y41152D02*
X68504D01*
Y40199D01*
X65707D01*
Y37402D01*
X64754D01*
Y40199D01*
X61956D01*
Y41152D01*
X64754D01*
Y43949D01*
X65707D01*
Y41152D01*
D02*
G37*
G36*
X54609Y43242D02*
X54793Y43227D01*
X54993Y43181D01*
X55223Y43119D01*
X55454Y43042D01*
X55669Y42919D01*
X55700Y42904D01*
X55761Y42843D01*
X55869Y42750D01*
X55976Y42627D01*
X56099Y42458D01*
X56207Y42274D01*
X56269Y42059D01*
X56299Y41828D01*
Y41736D01*
X56284Y41628D01*
X56253Y41490D01*
X56207Y41321D01*
X56146Y41137D01*
X56069Y40937D01*
X55946Y40721D01*
X55177Y39523D01*
X55162Y39507D01*
X55131Y39446D01*
X55085Y39354D01*
X55023Y39261D01*
X54916Y39031D01*
X54885Y38923D01*
X54870Y38846D01*
Y38800D01*
X54885Y38739D01*
X54900Y38677D01*
X54931Y38600D01*
X54977Y38524D01*
X55039Y38431D01*
X55131Y38355D01*
X55146Y38339D01*
X55193Y38324D01*
X55254Y38278D01*
X55346Y38232D01*
X55469Y38185D01*
X55623Y38155D01*
X55792Y38124D01*
X55976D01*
Y37402D01*
X55961D01*
X55930D01*
X55884D01*
X55823Y37417D01*
X55654Y37432D01*
X55454Y37463D01*
X55223Y37509D01*
X54977Y37571D01*
X54747Y37678D01*
X54532Y37801D01*
X54501Y37817D01*
X54439Y37878D01*
X54363Y37955D01*
X54255Y38078D01*
X54163Y38232D01*
X54071Y38401D01*
X54009Y38616D01*
X53994Y38846D01*
Y38923D01*
X54009Y39000D01*
X54024Y39092D01*
X54071Y39323D01*
X54132Y39446D01*
X54194Y39569D01*
X55116Y41121D01*
X55131Y41137D01*
X55162Y41198D01*
X55193Y41275D01*
X55239Y41382D01*
X55331Y41613D01*
X55362Y41736D01*
X55377Y41844D01*
Y41874D01*
X55362Y41951D01*
X55331Y42074D01*
X55269Y42197D01*
X55177Y42320D01*
X55039Y42443D01*
X54947Y42489D01*
X54839Y42520D01*
X54716Y42551D01*
X54578D01*
X54562D01*
X54501D01*
X54439D01*
X54347D01*
Y43257D01*
X54363D01*
X54378D01*
X54470D01*
X54609Y43242D01*
D02*
G37*
G36*
X132448Y197407D02*
Y197214D01*
X134370Y187411D01*
Y187218D01*
X134562Y187026D01*
X134754Y186834D01*
X141290Y184143D01*
X141867D01*
X150133Y189910D01*
X150325D01*
X150709Y189717D01*
X157822Y182989D01*
Y182797D01*
Y182605D01*
Y182413D01*
Y182220D01*
X152055Y174147D01*
Y173762D01*
Y173570D01*
Y173378D01*
X155131Y166650D01*
Y166457D01*
X155323Y166265D01*
X155708D01*
X164935Y164535D01*
X165319D01*
X165511Y164343D01*
Y164151D01*
Y154347D01*
Y154155D01*
X165319Y153963D01*
X164935D01*
X155900Y152040D01*
X155708D01*
X155515Y151848D01*
X155323Y151656D01*
X152440Y144351D01*
Y144159D01*
Y143967D01*
Y143774D01*
Y143582D01*
X157822Y136085D01*
Y135701D01*
Y135509D01*
X150709Y128588D01*
X150517Y128396D01*
X150325D01*
X150133Y128588D01*
X142636Y133586D01*
X141867D01*
X138791Y131856D01*
X138407D01*
X138215Y132048D01*
X131294Y148580D01*
Y148772D01*
X131486Y149349D01*
X132448Y149733D01*
X132640Y149926D01*
X132832Y150118D01*
X133024Y150310D01*
X133601Y150695D01*
X134370Y151464D01*
X135331Y152425D01*
X136292Y153578D01*
X137061Y155116D01*
X137638Y156846D01*
X137830Y158961D01*
Y159153D01*
Y159730D01*
X137638Y160498D01*
X137446Y161652D01*
X137061Y162805D01*
X136485Y164151D01*
X135715Y165496D01*
X134754Y166650D01*
X134562Y166842D01*
X134178Y167227D01*
X133601Y167611D01*
X132640Y168380D01*
X131486Y168956D01*
X130141Y169341D01*
X128795Y169726D01*
X127065Y169918D01*
X126296D01*
X125527Y169726D01*
X124374Y169533D01*
X123221Y169149D01*
X121875Y168572D01*
X120722Y167803D01*
X119376Y166650D01*
X119184Y166457D01*
X118991Y166073D01*
X118415Y165496D01*
X117838Y164535D01*
X117262Y163382D01*
X116877Y162036D01*
X116492Y160691D01*
X116300Y158961D01*
Y158768D01*
Y157999D01*
X116492Y157038D01*
X116877Y155693D01*
X117454Y154347D01*
X118415Y152809D01*
X119568Y151464D01*
X121298Y150118D01*
Y149926D01*
X121491Y149733D01*
X121683D01*
X122644Y149349D01*
X122836Y149157D01*
Y148580D01*
X116108Y132048D01*
X115916D01*
X115339Y131856D01*
X112071Y133586D01*
X111495D01*
X103998Y128588D01*
X103805Y128396D01*
X103613D01*
X103421Y128588D01*
X96308Y135509D01*
Y135701D01*
Y135893D01*
Y136085D01*
X101691Y143582D01*
Y143774D01*
Y143967D01*
Y144159D01*
Y144351D01*
X98615Y151656D01*
Y151848D01*
X98231Y152040D01*
X89196Y153963D01*
X89004D01*
X88811Y154155D01*
X88619Y154347D01*
Y164151D01*
Y164343D01*
X88811Y164535D01*
X89196D01*
X98423Y166265D01*
X98615D01*
X99192Y166650D01*
X101883Y173378D01*
Y173570D01*
Y173762D01*
Y173954D01*
Y174147D01*
X96308Y182220D01*
Y182413D01*
Y182605D01*
Y182797D01*
Y182989D01*
X103421Y189717D01*
X103613Y189910D01*
X103998D01*
X112071Y184143D01*
X112840D01*
X119376Y186834D01*
X119568D01*
X119760Y187026D01*
Y187411D01*
X121683Y197214D01*
Y197407D01*
X121875Y197599D01*
X132255D01*
X132448Y197407D01*
D02*
G37*
G36*
X158591Y120130D02*
X159360Y119746D01*
X157822Y117823D01*
X157630Y118016D01*
X157438Y118208D01*
X157053Y118400D01*
X156669Y118592D01*
X156284D01*
X155708Y118400D01*
X154939Y117631D01*
X154746Y117054D01*
X154554Y116286D01*
Y110134D01*
X152440D01*
Y120515D01*
X154554D01*
Y119361D01*
X154746Y119553D01*
X155131Y119938D01*
X156092Y120322D01*
X157245Y120515D01*
X157822D01*
X158591Y120130D01*
D02*
G37*
G36*
X114378D02*
X114955Y119553D01*
X115531Y118977D01*
X115916Y118016D01*
X116108Y116862D01*
Y110134D01*
X113994D01*
Y116286D01*
Y116478D01*
Y116670D01*
X113801Y117439D01*
X113032Y118208D01*
X112648Y118592D01*
X111495D01*
X110918Y118400D01*
X110149Y117631D01*
X109957Y117054D01*
X109765Y116286D01*
Y110134D01*
X107650D01*
Y120515D01*
X109765D01*
Y119361D01*
X109957Y119553D01*
X110533Y119938D01*
X111302Y120322D01*
X112648Y120515D01*
X113225D01*
X114378Y120130D01*
D02*
G37*
G36*
X93617Y120322D02*
X94578Y120130D01*
X95539Y119361D01*
X95732Y119169D01*
X95924Y118400D01*
X96116Y117247D01*
Y115324D01*
Y115132D01*
Y114940D01*
Y113786D01*
X95924Y112441D01*
X95539Y111287D01*
X95347Y111095D01*
X94578Y110711D01*
X93617Y110134D01*
X92656Y109942D01*
X92464D01*
X91887Y110134D01*
X90926Y110519D01*
X89773Y111095D01*
Y103022D01*
X89965Y103214D01*
X90541Y103598D01*
X91310Y103983D01*
X92656Y104175D01*
X93233D01*
X94386Y103791D01*
X94963Y103406D01*
X95539Y102637D01*
X95924Y101868D01*
X96116Y100715D01*
Y93987D01*
X94002D01*
Y99946D01*
Y100138D01*
Y100330D01*
X93809Y101099D01*
X93041Y101868D01*
X92656Y102253D01*
X91503D01*
X90926Y102060D01*
X90157Y101292D01*
X89965Y100715D01*
X89773Y99946D01*
Y93987D01*
X88042D01*
Y120515D01*
X89773D01*
Y119361D01*
X89965Y119553D01*
X90734Y119938D01*
X91503Y120322D01*
X92656Y120515D01*
X92848D01*
X93617Y120322D01*
D02*
G37*
G36*
X127642Y120322D02*
X128795Y119938D01*
X130141Y118977D01*
X128988Y117631D01*
X128603Y117823D01*
X127834Y118208D01*
X126873Y118400D01*
X126104Y118592D01*
X125720D01*
X125143Y118400D01*
X124566Y118208D01*
X124182Y117439D01*
Y117247D01*
X124374Y117054D01*
X124758Y116670D01*
X125720Y116478D01*
X127450Y116286D01*
X128026D01*
X128988Y115709D01*
X130141Y114748D01*
X130333Y114171D01*
X130525Y113210D01*
Y113018D01*
Y112633D01*
X130333Y112249D01*
X129949Y111672D01*
X129372Y110903D01*
X128603Y110519D01*
X127642Y110134D01*
X126104Y109942D01*
X125720D01*
X124566Y110134D01*
X123221Y110711D01*
X121683Y111864D01*
X123028Y113210D01*
X123221Y113018D01*
X123989Y112633D01*
X125143Y112056D01*
X126296Y111864D01*
X126681D01*
X127450Y112056D01*
X128026Y112441D01*
X128411Y112825D01*
Y113210D01*
Y113402D01*
X128219Y113594D01*
X127834Y113979D01*
X127065Y114363D01*
X124951D01*
X124758Y114555D01*
X123797Y114940D01*
X122836Y115901D01*
X122644Y116478D01*
X122452Y117439D01*
Y117631D01*
Y118016D01*
X122836Y118977D01*
X123413Y119553D01*
X123989Y120130D01*
X124951Y120322D01*
X126104Y120515D01*
X126488D01*
X127642Y120322D01*
D02*
G37*
G36*
X165127Y120322D02*
X166280Y119746D01*
X167434Y118784D01*
X165896Y117439D01*
X165703Y117631D01*
X165319Y118016D01*
X164742Y118400D01*
X163781Y118592D01*
X163397Y118592D01*
X162628Y118208D01*
X162051Y117823D01*
X161667Y117247D01*
X161474Y116478D01*
X161282Y115324D01*
Y115132D01*
Y114748D01*
X161667Y113786D01*
X162435Y112633D01*
X163012Y112249D01*
X163781Y112057D01*
X163973D01*
X164550Y112249D01*
X165127Y112633D01*
X165896Y113210D01*
X167434Y111864D01*
X167241Y111480D01*
X166472Y110903D01*
X165319Y110326D01*
X163781Y109942D01*
X163012Y109942D01*
X162243Y110326D01*
X161474Y110711D01*
X160705Y111287D01*
X159936Y112249D01*
X159360Y113594D01*
X159168Y115324D01*
Y115517D01*
Y116093D01*
X159360Y117054D01*
X159744Y118016D01*
X160321Y118784D01*
X161090Y119746D01*
X162243Y120322D01*
X163781Y120515D01*
X164166D01*
X165127Y120322D01*
D02*
G37*
G36*
X150133Y110134D02*
X148018D01*
Y111095D01*
X147826Y110903D01*
X147249Y110519D01*
X146480Y110134D01*
X145519Y109942D01*
X144943D01*
X143789Y110326D01*
X143020Y110711D01*
X142444Y111480D01*
X142059Y112249D01*
X141867Y113402D01*
Y120515D01*
X143981D01*
Y114363D01*
Y113979D01*
X144174Y113210D01*
X144943Y112441D01*
X145327Y112249D01*
X146096Y112056D01*
X146480D01*
X147057Y112441D01*
X147634Y113018D01*
X148018Y113594D01*
Y114363D01*
Y120515D01*
X150133D01*
Y110134D01*
D02*
G37*
G36*
X173585Y120322D02*
X174546Y119938D01*
X175315Y119553D01*
X175892Y118784D01*
X176468Y117631D01*
X176661Y116286D01*
Y114363D01*
X170125D01*
Y114171D01*
Y113979D01*
X170509Y113210D01*
X171278Y112249D01*
X171855Y112057D01*
X172624Y111864D01*
X172816D01*
X173393Y112057D01*
X174162Y112441D01*
X174738Y113018D01*
X176276Y111672D01*
X176084Y111480D01*
X175315Y110903D01*
X174162Y110134D01*
X172624Y109942D01*
X171855D01*
X171086Y110326D01*
X170317Y110711D01*
X169548Y111287D01*
X168779Y112249D01*
X168202Y113594D01*
X168010Y115324D01*
Y115517D01*
Y116093D01*
X168202Y117054D01*
X168587Y118016D01*
X168971Y118784D01*
X169740Y119746D01*
X170894Y120322D01*
X172239Y120515D01*
X173008D01*
X173585Y120322D01*
D02*
G37*
G36*
X137061Y120322D02*
X138022Y120130D01*
X138984Y119361D01*
X139176Y119169D01*
X139560Y118400D01*
X139945Y117247D01*
X140137Y115324D01*
Y115132D01*
Y114940D01*
X139945Y113786D01*
X139752Y112441D01*
X138984Y111287D01*
X138791Y111095D01*
X138215Y110711D01*
X137253Y110134D01*
X135908Y109942D01*
X135523D01*
X134754Y110134D01*
X133793Y110519D01*
X132640Y111287D01*
X132448Y111480D01*
X132255Y112249D01*
X131871Y113594D01*
X131679Y115324D01*
Y115517D01*
Y115709D01*
X131871Y116862D01*
X132063Y118208D01*
X132640Y119361D01*
X132832Y119553D01*
X133409Y119938D01*
X134562Y120322D01*
X135908Y120515D01*
X136292D01*
X137061Y120322D01*
D02*
G37*
G36*
X103036Y120322D02*
X103998Y119938D01*
X104766Y119553D01*
X105343Y118784D01*
X105920Y117631D01*
X106112Y116286D01*
Y114363D01*
X99576D01*
Y114171D01*
Y113979D01*
X99961Y113210D01*
X100538Y112249D01*
X101114Y112056D01*
X101883Y111864D01*
X102075D01*
X102844Y112056D01*
X103421Y112441D01*
X104190Y113018D01*
X105920Y111672D01*
X105535Y111480D01*
X104766Y110903D01*
X103613Y110134D01*
X102075Y109942D01*
X101306D01*
X100538Y110326D01*
X99769Y110711D01*
X99000Y111287D01*
X98231Y112249D01*
X97654Y113594D01*
X97462Y115324D01*
Y115517D01*
Y116093D01*
X97654Y117054D01*
X98039Y118016D01*
X98423Y118784D01*
X99192Y119746D01*
X100345Y120322D01*
X101691Y120515D01*
X102460D01*
X103036Y120322D01*
D02*
G37*
G36*
X83237D02*
X84198Y120130D01*
X84967Y119361D01*
X85159Y119169D01*
X85544Y118400D01*
X85928Y117247D01*
X86120Y115324D01*
Y115132D01*
Y114940D01*
X85928Y113786D01*
X85736Y112441D01*
X84967Y111287D01*
X84775Y111095D01*
X84198Y110711D01*
X83237Y110134D01*
X81891Y109942D01*
X81507D01*
X80738Y110134D01*
X79777Y110519D01*
X78623Y111287D01*
X78431Y111480D01*
X78239Y112441D01*
X78047Y113594D01*
X77854Y115324D01*
Y115517D01*
Y115709D01*
X78047Y116862D01*
X78239Y118016D01*
X78623Y119361D01*
X78816Y119553D01*
X79392Y119938D01*
X80546Y120322D01*
X81891Y120515D01*
X82276D01*
X83237Y120322D01*
D02*
G37*
G36*
X156092Y103791D02*
X156861Y103406D01*
X155131Y101676D01*
Y101868D01*
X154746Y102060D01*
X154362Y102253D01*
X153401D01*
X152824Y102060D01*
X152247Y101292D01*
X151863Y100715D01*
Y99946D01*
Y93987D01*
X149748D01*
Y104175D01*
X151863D01*
Y103022D01*
X152055Y103214D01*
X152632Y103598D01*
X153401Y103983D01*
X154746Y104175D01*
X155323D01*
X156092Y103791D01*
D02*
G37*
G36*
X123413Y93987D02*
X121298D01*
Y94756D01*
X121106Y94564D01*
X120529Y94179D01*
X119761Y93795D01*
X118607Y93602D01*
X118415D01*
X117646Y93795D01*
X116685Y94179D01*
X115916Y95140D01*
X115724Y95332D01*
X115531Y95909D01*
X115339Y96294D01*
Y97062D01*
X115147Y97831D01*
Y98985D01*
Y99177D01*
Y99562D01*
X115339Y100715D01*
X115531Y102060D01*
X115724Y102637D01*
X115916Y103022D01*
X116108Y103214D01*
X116493Y103598D01*
X117454Y103983D01*
X118607Y104175D01*
X118799D01*
X119568Y103983D01*
X120337Y103791D01*
X121298Y103022D01*
Y108404D01*
X123413D01*
Y93987D01*
D02*
G37*
G36*
X114378Y103791D02*
X115147Y103406D01*
X113609Y101676D01*
X113417Y101868D01*
X113225Y102060D01*
X112648Y102253D01*
X111879D01*
X111302Y102060D01*
X110533Y101292D01*
X110341Y100715D01*
Y99946D01*
Y93987D01*
X108227D01*
Y104175D01*
X110341D01*
Y103022D01*
X110533Y103214D01*
X110918Y103598D01*
X111687Y103983D01*
X112840Y104175D01*
X113609D01*
X114378Y103791D01*
D02*
G37*
G36*
X135908Y93987D02*
X133985D01*
X131679Y101099D01*
X129564Y93987D01*
X127834D01*
X124566Y104175D01*
X126681D01*
X128603Y96870D01*
X131102Y104175D01*
X132640D01*
X134947Y96870D01*
X136869Y104175D01*
X139176D01*
X135908Y93987D01*
D02*
G37*
G36*
X145519Y103791D02*
X146096Y103406D01*
X146865Y102829D01*
X147249Y102060D01*
X147442Y100907D01*
Y93987D01*
X145519D01*
Y94756D01*
X145327Y94564D01*
X144943Y94179D01*
X143981Y93795D01*
X142828Y93602D01*
X142251D01*
X141098Y93987D01*
X140329Y94371D01*
X139752Y94948D01*
X139368Y95717D01*
X139176Y96870D01*
Y97062D01*
Y97447D01*
X139560Y98408D01*
X139945Y98985D01*
X140714Y99562D01*
X141482Y99754D01*
X142636Y99946D01*
X145519D01*
Y100907D01*
Y101099D01*
X145327Y101676D01*
X144558Y102060D01*
X144174Y102253D01*
X142636D01*
X141867Y102060D01*
X141482Y101676D01*
X139945Y102829D01*
X140137Y103022D01*
X140714Y103598D01*
X141675Y103983D01*
X143405Y104175D01*
X143981D01*
X145519Y103791D01*
D02*
G37*
G36*
X102844Y103983D02*
X103805Y103791D01*
X104574Y103406D01*
X105151Y102829D01*
X105728Y102060D01*
X105920Y100907D01*
Y93987D01*
X103805D01*
Y94756D01*
X103613Y94564D01*
X103229Y94179D01*
X102460Y93795D01*
X101306Y93602D01*
X100730D01*
X99384Y93987D01*
X98615Y94371D01*
X98039Y94948D01*
X97654Y95717D01*
X97462Y96870D01*
Y97062D01*
Y97447D01*
X97846Y98408D01*
X98231Y98985D01*
X99000Y99562D01*
X99769Y99754D01*
X100922Y99946D01*
X103805D01*
Y100907D01*
Y101099D01*
X103613Y101676D01*
X102844Y102060D01*
X102460Y102253D01*
X100922D01*
X100153Y102060D01*
X99576Y101676D01*
X98039Y102829D01*
X98231Y103022D01*
X99000Y103598D01*
X99961Y103983D01*
X101499Y104175D01*
X102268D01*
X102844Y103983D01*
D02*
G37*
G36*
X162435Y103983D02*
X163397Y103598D01*
X164166Y103214D01*
X164742Y102445D01*
X165319Y101292D01*
X165511Y99946D01*
Y98024D01*
X158975Y98024D01*
Y97831D01*
Y97639D01*
X159360Y96870D01*
X159936Y95909D01*
X160513Y95717D01*
X161282Y95525D01*
X161474D01*
X162243Y95717D01*
X162820Y96101D01*
X163589Y96678D01*
X165127Y95332D01*
X164935Y95140D01*
X164166Y94564D01*
X163012Y93795D01*
X161474Y93602D01*
X160705D01*
X159936Y93987D01*
X159168Y94371D01*
X158399Y94948D01*
X157630Y95909D01*
X157053Y97255D01*
X156861Y98985D01*
Y99177D01*
Y99754D01*
X157053Y100715D01*
X157438Y101676D01*
X157822Y102445D01*
X158591Y103406D01*
X159744Y103983D01*
X161090Y104175D01*
X161859D01*
X162435Y103983D01*
D02*
G37*
G36*
X234529Y374582D02*
X233329D01*
X229915Y382979D01*
X231207D01*
X232222Y380395D01*
X235729D01*
X236651Y382979D01*
X237758D01*
X234529Y374582D01*
D02*
G37*
G36*
X207771D02*
X206663D01*
X202234Y381133D01*
Y374582D01*
X201220D01*
Y382979D01*
X202327D01*
X206756Y376335D01*
Y382979D01*
X207771D01*
Y374582D01*
D02*
G37*
G36*
X179813Y374582D02*
X178706D01*
X174277Y381133D01*
Y374582D01*
X173262D01*
Y382979D01*
X174369D01*
X178798Y376335D01*
Y382979D01*
X179813D01*
Y374582D01*
D02*
G37*
G36*
X227793Y375597D02*
X230561D01*
Y374582D01*
X223918D01*
Y375597D01*
X226686D01*
Y382979D01*
X227793D01*
Y375597D01*
D02*
G37*
G36*
X220596D02*
X223364D01*
Y374582D01*
X216721D01*
Y375597D01*
X219489D01*
Y382979D01*
X220596D01*
Y375597D01*
D02*
G37*
G36*
X215614Y374582D02*
X209524D01*
Y375597D01*
X214506D01*
Y378181D01*
X209801D01*
Y379103D01*
X214506D01*
Y381964D01*
X209339D01*
Y382979D01*
X215614D01*
Y374582D01*
D02*
G37*
G36*
X197252Y375597D02*
X200020D01*
Y374582D01*
X193284D01*
Y375597D01*
X196052D01*
Y382979D01*
X197252D01*
Y375597D01*
D02*
G37*
G36*
X191992Y374582D02*
X190885D01*
Y382979D01*
X191992D01*
Y374582D01*
D02*
G37*
G36*
X185995Y382979D02*
X186641Y382794D01*
X187379Y382517D01*
X187564Y382425D01*
X187933Y382148D01*
X188394Y381594D01*
X188763Y380949D01*
X188855Y380764D01*
X189040Y380303D01*
X189224Y379657D01*
X189317Y378826D01*
Y378734D01*
Y378457D01*
X189224Y378088D01*
X189132Y377627D01*
X188763Y376612D01*
X188486Y376058D01*
X188117Y375597D01*
X188025Y375505D01*
X187933Y375412D01*
X187656Y375228D01*
X187379Y374951D01*
X186456Y374582D01*
X185903Y374490D01*
X185257Y374397D01*
X185072D01*
X184519Y374490D01*
X183873Y374582D01*
X183135Y374951D01*
X182950Y375043D01*
X182581Y375320D01*
X182120Y375874D01*
X181751Y376520D01*
X181658Y376704D01*
X181474Y377166D01*
X181381Y377904D01*
X181289Y378826D01*
Y378919D01*
Y379011D01*
X181381Y379565D01*
X181474Y380303D01*
X181751Y381041D01*
X181843Y381225D01*
X182120Y381594D01*
X182581Y382148D01*
X183227Y382610D01*
X183411Y382702D01*
X183780Y382794D01*
X184426Y382979D01*
X185257Y383071D01*
X185441D01*
X185995Y382979D01*
D02*
G37*
G36*
X232776Y373382D02*
X233422Y373290D01*
X234160Y373106D01*
X234990Y372737D01*
X235729Y372368D01*
X236559Y371722D01*
X236651Y371629D01*
X236743Y371445D01*
X237205Y370984D01*
X237297Y370891D01*
X237389Y370707D01*
X237758Y370153D01*
Y370061D01*
X237851Y369969D01*
X237943Y369692D01*
X238127Y369230D01*
X238312Y368677D01*
X238497Y367939D01*
X238681Y367200D01*
Y366278D01*
X238589Y365355D01*
Y365263D01*
X238497Y364986D01*
X238404Y364617D01*
X238312Y364432D01*
Y364340D01*
X238220Y364156D01*
X238035Y363879D01*
X237851Y363510D01*
Y363417D01*
X237758D01*
X211369Y317651D01*
Y317559D01*
X211277Y317467D01*
X210816Y316913D01*
X210262Y316175D01*
X209432Y315437D01*
X209247Y315345D01*
X208878Y315160D01*
X208786D01*
X208601Y314976D01*
X208324Y314883D01*
X207863Y314699D01*
X206756Y314422D01*
X205464Y314237D01*
X205003D01*
X204541Y314330D01*
X203895Y314422D01*
X203249Y314699D01*
X202419Y314976D01*
X201681Y315437D01*
X200943Y315991D01*
X200850Y316083D01*
X200666Y316267D01*
X200481Y316452D01*
X200297Y316729D01*
X200204Y316821D01*
X200112Y317005D01*
X199651Y317559D01*
X173262Y363325D01*
X173169Y363417D01*
X173077Y363694D01*
X172893Y364156D01*
X172708Y364801D01*
X172523Y365447D01*
X172431Y366278D01*
Y367200D01*
X172523Y368215D01*
Y368308D01*
X172616Y368492D01*
X172708Y368769D01*
X172800Y369138D01*
Y369230D01*
X172893Y369415D01*
X172985Y369692D01*
X173169Y370061D01*
X173262D01*
X173354Y370153D01*
X173538Y370430D01*
X173815Y370799D01*
X174184Y371353D01*
X174738Y371814D01*
X175384Y372368D01*
X176122Y372829D01*
X177045Y373198D01*
X177137D01*
X177414Y373290D01*
X177691Y373382D01*
X178244D01*
X178521Y373475D01*
X232314Y373475D01*
X232776Y373382D01*
D02*
G37*
G36*
X273458Y44184D02*
X268153Y38695D01*
X268707D01*
Y35742D01*
X266585D01*
X266216Y31175D01*
X265616Y24810D01*
X272674Y17567D01*
X272120Y17014D01*
X265570Y23795D01*
X265524Y23426D01*
X265847Y23241D01*
X266170Y23010D01*
X266446Y22734D01*
X266677Y22457D01*
X266908Y22088D01*
X267000Y21765D01*
X267092Y21396D01*
X267138Y20934D01*
X267092Y20565D01*
X266954Y20104D01*
X266723Y19597D01*
X266400Y19182D01*
X266123Y18859D01*
X265708Y18628D01*
X265293Y18443D01*
X264878Y18351D01*
X264324Y18305D01*
X263817Y18351D01*
X263263Y18536D01*
X262756Y18859D01*
X262387Y19274D01*
X262156Y19597D01*
X261972Y19966D01*
X256805D01*
Y18167D01*
X255144D01*
Y19966D01*
X254914D01*
X254499Y24671D01*
X247026Y17014D01*
X246472Y17521D01*
X254406Y25686D01*
X254037Y29330D01*
X253576Y34358D01*
X253392Y36434D01*
X245965Y44184D01*
X246472Y44692D01*
X253299Y37634D01*
X253115Y39340D01*
X251915D01*
Y40724D01*
X252976D01*
Y41001D01*
X253022Y41186D01*
X253161Y41324D01*
X253299Y41462D01*
X253576Y41693D01*
X253853Y41878D01*
X254130Y42062D01*
X254452Y42200D01*
X254637Y42293D01*
Y43169D01*
X256482D01*
Y42800D01*
X257036Y42892D01*
X257589Y42985D01*
X258143Y43031D01*
X258466D01*
Y43630D01*
X262664D01*
Y42985D01*
X263171Y42892D01*
X263817Y42800D01*
X264463Y42662D01*
X265062Y42477D01*
X265616Y42247D01*
X266031Y42062D01*
X266354Y41831D01*
X266539Y41647D01*
X266677Y41785D01*
X266908Y41924D01*
X267138Y42062D01*
X267461D01*
X267738Y42016D01*
X268061Y41924D01*
X268245Y41693D01*
X268476Y41416D01*
X268522Y41232D01*
X268568Y40955D01*
X268522Y40724D01*
X268476Y40540D01*
X268430Y40401D01*
X268291Y40217D01*
X268153Y40078D01*
X268015Y39986D01*
X267922Y39894D01*
Y39525D01*
X272904Y44692D01*
X273458Y44184D01*
D02*
G37*
G36*
X271475Y10878D02*
Y10786D01*
Y10601D01*
Y10371D01*
Y10048D01*
Y10002D01*
Y9910D01*
Y9679D01*
Y9448D01*
Y9125D01*
Y8802D01*
Y7972D01*
Y7926D01*
Y7788D01*
Y7557D01*
Y7326D01*
Y6634D01*
Y5942D01*
Y5896D01*
Y5804D01*
Y5481D01*
Y5158D01*
Y5066D01*
Y5020D01*
X247533D01*
Y5158D01*
Y5250D01*
Y5389D01*
Y5619D01*
Y5942D01*
Y5988D01*
Y6127D01*
Y6311D01*
Y6542D01*
Y6865D01*
Y7188D01*
Y7972D01*
Y8018D01*
Y8157D01*
Y8387D01*
Y8664D01*
Y9356D01*
Y10048D01*
Y10094D01*
Y10186D01*
Y10555D01*
Y10878D01*
Y10971D01*
Y11017D01*
X271475D01*
Y10878D01*
D02*
G37*
%LPC*%
G36*
X91887Y118592D02*
X91503D01*
X90926Y118208D01*
X90541Y117823D01*
X90157Y117247D01*
X89965Y116478D01*
X89773Y115324D01*
Y115132D01*
Y114748D01*
X89965Y113786D01*
X90734Y112633D01*
X91118Y112249D01*
X91887Y112056D01*
X92272D01*
X93041Y112441D01*
X93425Y112825D01*
X93617Y113402D01*
X94002Y114171D01*
Y115324D01*
Y115517D01*
Y115901D01*
X93809Y117054D01*
X93041Y118016D01*
X92656Y118400D01*
X91887Y118592D01*
D02*
G37*
G36*
X172816Y118592D02*
X171855D01*
X171278Y118400D01*
X170509Y117631D01*
X170317Y117054D01*
X170125Y116286D01*
X174546D01*
Y116478D01*
Y116670D01*
X174162Y117439D01*
X173393Y118208D01*
X172816Y118592D01*
D02*
G37*
G36*
X135908Y118592D02*
X135716D01*
X135331Y118400D01*
X134754Y118208D01*
X134370Y117631D01*
X134178Y117247D01*
X133985Y116478D01*
X133793Y115324D01*
Y114940D01*
Y114363D01*
X133985Y113402D01*
X134370Y112825D01*
Y112633D01*
X134562Y112441D01*
X135139Y112249D01*
X135908Y112056D01*
X136100D01*
X136485Y112249D01*
X137061Y112441D01*
X137446Y112825D01*
X137638Y113018D01*
X137830Y113402D01*
X138022Y114171D01*
Y115324D01*
Y115709D01*
Y116286D01*
X137830Y117054D01*
X137446Y117631D01*
Y117823D01*
X137061Y118208D01*
X136677Y118400D01*
X135908Y118592D01*
D02*
G37*
G36*
X102268Y118592D02*
X101306D01*
X100730Y118400D01*
X99961Y117631D01*
X99769Y117054D01*
X99576Y116286D01*
X103998D01*
Y116478D01*
Y116670D01*
X103613Y117439D01*
X102844Y118208D01*
X102268Y118592D01*
D02*
G37*
G36*
X81891D02*
X81699D01*
X81314Y118400D01*
X80738Y118208D01*
X80353Y117631D01*
X80161Y117439D01*
X79969Y117054D01*
X79777Y116286D01*
X79584Y115324D01*
Y115132D01*
X79777Y114363D01*
X79969Y113594D01*
X80353Y112825D01*
Y112633D01*
X80546Y112441D01*
X81122Y112249D01*
X81891Y112056D01*
X82083D01*
X82660Y112249D01*
X83237Y112441D01*
X83621Y112825D01*
Y113018D01*
X83814Y113402D01*
X84006Y114171D01*
Y115324D01*
Y115709D01*
Y116286D01*
X83814Y117054D01*
X83621Y117631D01*
X83429Y117823D01*
X83237Y118208D01*
X82660Y118400D01*
X81891Y118592D01*
D02*
G37*
G36*
X119376Y102253D02*
X118991D01*
X118415Y101868D01*
X118030Y101484D01*
X117646Y100907D01*
X117454Y100138D01*
X117262Y98985D01*
Y98793D01*
Y98408D01*
X117454Y97447D01*
X118223Y96294D01*
X118607Y95909D01*
X119376Y95717D01*
X119761D01*
X120337Y96101D01*
X120722Y96486D01*
X120914Y97062D01*
X121298Y97831D01*
Y98985D01*
Y99177D01*
Y99562D01*
X121106Y100715D01*
X120529Y101676D01*
X119953Y102060D01*
X119376Y102253D01*
D02*
G37*
G36*
X145519Y98024D02*
X142828D01*
X142251Y97831D01*
X141482Y97639D01*
X141290Y96870D01*
Y96678D01*
X141482Y96294D01*
X142059Y95717D01*
X143020Y95525D01*
X143405D01*
X144366Y95717D01*
X145135Y96294D01*
X145327Y96870D01*
X145519Y97447D01*
Y98024D01*
D02*
G37*
G36*
X103805Y98024D02*
X101114D01*
X100538Y97831D01*
X99769Y97639D01*
X99576Y96870D01*
Y96678D01*
X99769Y96294D01*
X100345Y95717D01*
X101499Y95525D01*
X101883D01*
X102652Y95717D01*
X103421Y96294D01*
X103805Y96870D01*
Y97447D01*
Y98024D01*
D02*
G37*
G36*
X161667Y102253D02*
X160705D01*
X160129Y102060D01*
X159360Y101292D01*
X159168Y100715D01*
X158975Y99946D01*
X163397D01*
Y100138D01*
Y100330D01*
X163012Y101099D01*
X162243Y101868D01*
X161667Y102253D01*
D02*
G37*
G36*
X235359Y379472D02*
X232499D01*
X233422Y377166D01*
X233514Y376981D01*
X233606Y376612D01*
X233791Y376058D01*
X233975Y375505D01*
Y375597D01*
X234068Y375966D01*
X234252Y376520D01*
X234437Y377073D01*
X235359Y379472D01*
D02*
G37*
G36*
X185257Y382148D02*
X185072D01*
X184519Y382056D01*
X183873Y381779D01*
X183227Y381318D01*
X183135Y381133D01*
X182765Y380672D01*
X182489Y379841D01*
X182396Y378826D01*
Y378734D01*
Y378642D01*
Y378181D01*
X182581Y377627D01*
X182765Y376981D01*
X182858Y376889D01*
X182950Y376520D01*
X183319Y376151D01*
X183780Y375781D01*
X183873Y375689D01*
X184242Y375597D01*
X184703Y375505D01*
X185257Y375412D01*
X185441D01*
X185995Y375505D01*
X186641Y375689D01*
X187287Y376151D01*
X187379Y376335D01*
X187656Y376797D01*
X187840Y377166D01*
X188025Y377627D01*
X188117Y378273D01*
Y378919D01*
Y379011D01*
Y379195D01*
X188025Y379749D01*
X187748Y380580D01*
X187287Y381318D01*
X187102Y381410D01*
X186733Y381687D01*
X186087Y382056D01*
X185257Y382148D01*
D02*
G37*
G36*
X230561Y369507D02*
X180367Y369507D01*
Y369415D01*
X179721D01*
X179536Y369323D01*
X179259D01*
X179075Y369230D01*
X178521Y368953D01*
X177875Y368492D01*
X177229Y367662D01*
X177137Y367477D01*
X176953Y367108D01*
X176860Y366554D01*
X176768Y365816D01*
Y365724D01*
Y365540D01*
Y365447D01*
Y365355D01*
X176860Y364986D01*
X176953Y364525D01*
X177229Y363971D01*
X202327Y320512D01*
X202419D01*
X202511Y320420D01*
X202696Y320050D01*
Y319958D01*
X202788Y319866D01*
X203065Y319681D01*
X203249Y319497D01*
X203711Y319220D01*
X204541Y318943D01*
X205464Y318759D01*
Y318666D01*
X205648D01*
X206110Y318759D01*
X206663Y318851D01*
X207309Y319220D01*
X207402Y319312D01*
X207494D01*
X207586Y319405D01*
X207678Y319497D01*
X207955Y319681D01*
X208324Y320143D01*
X208693Y320604D01*
X233791Y364063D01*
Y364156D01*
X233883Y364248D01*
X234068Y364617D01*
Y364709D01*
X234160Y365078D01*
Y365171D01*
Y365355D01*
X234252Y365540D01*
Y365909D01*
X234160Y366739D01*
X233791Y367662D01*
X233699Y367754D01*
X233422Y368123D01*
X233329Y368215D01*
X233053Y368492D01*
X232960D01*
X232868Y368677D01*
X232314Y368953D01*
X231576Y369323D01*
X231115Y369415D01*
X230561Y369507D01*
D02*
G37*
%LPD*%
G36*
X209062Y360465D02*
Y360280D01*
Y360003D01*
Y359542D01*
Y358527D01*
Y357420D01*
Y357328D01*
Y357143D01*
Y356774D01*
Y356405D01*
Y355298D01*
Y354098D01*
X202419D01*
Y354190D01*
Y354375D01*
Y354744D01*
Y355113D01*
Y356220D01*
Y357420D01*
Y357512D01*
Y357697D01*
Y357973D01*
Y358435D01*
Y359358D01*
Y360557D01*
X209062D01*
Y360465D01*
D02*
G37*
G36*
X207217Y351145D02*
X207309Y350869D01*
Y350407D01*
X207402Y349669D01*
X207494Y349208D01*
X207586Y348654D01*
X207678Y348008D01*
X207771Y347178D01*
X207863Y346347D01*
X207955Y345332D01*
Y345240D01*
Y345056D01*
X208048Y344779D01*
Y344410D01*
X208140Y343487D01*
X208324Y342472D01*
X208417Y341365D01*
X208509Y340442D01*
X208601Y340073D01*
Y339704D01*
X208693Y339519D01*
Y339427D01*
Y339335D01*
Y339243D01*
X208786Y338781D01*
Y338320D01*
X208878Y337859D01*
Y337766D01*
Y337490D01*
Y337028D01*
X208970Y336382D01*
Y336290D01*
Y336013D01*
Y335552D01*
Y334998D01*
Y334352D01*
Y333614D01*
X209062Y331953D01*
Y331861D01*
Y331584D01*
Y331123D01*
X209062Y330569D01*
Y329923D01*
Y329185D01*
Y327617D01*
X201958D01*
Y327709D01*
Y327986D01*
Y328355D01*
Y328908D01*
Y329554D01*
Y330292D01*
X201958Y331861D01*
Y331953D01*
Y332230D01*
Y332599D01*
Y333153D01*
Y333799D01*
Y334537D01*
Y336105D01*
Y336198D01*
X202050Y336474D01*
Y336659D01*
X202142Y337028D01*
Y337490D01*
X202234Y338043D01*
Y338135D01*
Y338412D01*
X202327Y338966D01*
X202419Y339796D01*
X202511Y340350D01*
X202604Y340996D01*
X202696Y341734D01*
X202788Y342657D01*
X202880Y343579D01*
X203065Y344687D01*
X203157Y345886D01*
X203342Y347270D01*
Y347362D01*
Y347639D01*
Y347916D01*
X203434Y348285D01*
Y348839D01*
X203526Y349392D01*
Y349485D01*
Y349669D01*
X203619Y350223D01*
X203803Y350869D01*
X203895Y351145D01*
X203988Y351238D01*
X205187D01*
X206202Y351330D01*
X207217D01*
Y351145D01*
D02*
G37*
%LPC*%
G36*
X261926Y42846D02*
X259250D01*
Y42431D01*
X261926D01*
Y42846D01*
D02*
G37*
G36*
X255698Y42431D02*
X255421D01*
Y41416D01*
X255698D01*
Y42431D01*
D02*
G37*
G36*
X258466Y42247D02*
X257728Y42200D01*
X257082Y42108D01*
X256482Y42016D01*
Y40724D01*
X266216D01*
Y40909D01*
X265939Y41186D01*
X265478Y41416D01*
X264970Y41647D01*
X264324Y41831D01*
X263540Y42016D01*
X262664Y42154D01*
Y41647D01*
X258466D01*
Y42247D01*
D02*
G37*
G36*
X254637Y41462D02*
X254222Y41232D01*
X253945Y41047D01*
X253714Y40817D01*
X253761Y40724D01*
X254637D01*
Y41462D01*
D02*
G37*
G36*
X267415Y41324D02*
X267369D01*
X267231Y41278D01*
X267092Y41186D01*
X267046Y40955D01*
Y40909D01*
X267092Y40770D01*
X267184Y40586D01*
X267415Y40540D01*
X267461D01*
X267600Y40586D01*
X267738Y40724D01*
X267784Y40955D01*
Y41001D01*
X267738Y41140D01*
X267646Y41278D01*
X267415Y41324D01*
D02*
G37*
G36*
X267922Y37957D02*
X266492D01*
Y36527D01*
X267922D01*
Y37957D01*
D02*
G37*
G36*
X263079Y34681D02*
X259158D01*
Y34405D01*
X263079D01*
Y34681D01*
D02*
G37*
G36*
X266123Y39340D02*
X253853D01*
X254083Y36803D01*
X259665Y31037D01*
X262156Y33666D01*
X258373D01*
Y35419D01*
X263909D01*
X265708Y37311D01*
Y38695D01*
X266077D01*
X266123Y39340D01*
D02*
G37*
G36*
X254222Y35604D02*
X255098Y26378D01*
X259112Y30483D01*
X254222Y35604D01*
D02*
G37*
G36*
X265708Y36204D02*
X263909Y34312D01*
Y33666D01*
X263263D01*
X260173Y30483D01*
X264924Y25548D01*
X265800Y35742D01*
X265708D01*
Y36204D01*
D02*
G37*
G36*
X259665Y29976D02*
X255191Y25363D01*
X255606Y20750D01*
X261787D01*
X261741Y21165D01*
X261879Y21765D01*
X262110Y22272D01*
X262387Y22688D01*
X262710Y23010D01*
X263079Y23241D01*
X263540Y23472D01*
X264001Y23610D01*
X264417Y23656D01*
X264786Y23610D01*
X264878Y24533D01*
X259665Y29976D01*
D02*
G37*
G36*
X264417Y22318D02*
X264232D01*
X264001Y22272D01*
X263771Y22134D01*
X263540Y21995D01*
X263310Y21765D01*
X263171Y21442D01*
X263125Y20981D01*
Y20934D01*
Y20796D01*
X263217Y20565D01*
X263310Y20335D01*
X263448Y20058D01*
X263679Y19874D01*
X264001Y19689D01*
X264417Y19643D01*
X264647D01*
X264832Y19735D01*
X265108Y19827D01*
X265339Y19966D01*
X265570Y20197D01*
X265708Y20519D01*
X265754Y20981D01*
Y21027D01*
Y21211D01*
X265708Y21396D01*
X265570Y21673D01*
X265431Y21903D01*
X265201Y22134D01*
X264878Y22272D01*
X264417Y22318D01*
D02*
G37*
G36*
X256067Y19966D02*
X255929D01*
Y18905D01*
X256067D01*
Y19966D01*
D02*
G37*
%LPD*%
G36*
X264878Y21765D02*
X265016Y21626D01*
X265155Y21488D01*
X265247Y21258D01*
X265293Y20981D01*
Y20934D01*
Y20842D01*
X265201Y20565D01*
X265062Y20381D01*
X264924Y20243D01*
X264693Y20150D01*
X264417Y20104D01*
X264278D01*
X264001Y20197D01*
X263817Y20335D01*
X263679Y20473D01*
X263586Y20704D01*
X263540Y20981D01*
Y21027D01*
Y21119D01*
X263632Y21442D01*
X263771Y21580D01*
X263909Y21719D01*
X264140Y21811D01*
X264417Y21857D01*
X264555D01*
X264878Y21765D01*
D02*
G37*
%LPC*%
G36*
X264509Y21119D02*
X264370D01*
X264324Y21073D01*
X264278Y20981D01*
Y20934D01*
X264324Y20888D01*
X264417Y20842D01*
X264509D01*
X264555Y20888D01*
Y20981D01*
Y21027D01*
Y21073D01*
X264509Y21119D01*
D02*
G37*
%LPD*%
D10*
X119587Y321437D02*
X118848Y321863D01*
Y321011D01*
X119587Y321437D01*
D11*
X66929Y342913D02*
Y349213D01*
Y367323D02*
Y400000D01*
Y342913D02*
X75590D01*
X93701D02*
X102362D01*
X66929Y400000D02*
X102362D01*
Y342913D02*
Y400000D01*
X50118Y21496D02*
X80118D01*
Y26496D01*
X50118Y21496D02*
Y26496D01*
X80118D01*
X53452Y8163D02*
Y21496D01*
Y8163D02*
X55118Y6496D01*
X56785Y8163D01*
Y21496D01*
X63452Y8163D02*
Y21496D01*
Y8163D02*
X65118Y6496D01*
X66785Y8163D01*
Y21496D01*
X73451Y8163D02*
Y21496D01*
Y8163D02*
X75118Y6496D01*
X76785Y8163D01*
Y21496D01*
X91299D02*
X121299D01*
Y26496D01*
X91299Y21496D02*
Y26496D01*
X121299D01*
X94633Y8163D02*
Y21496D01*
Y8163D02*
X96299Y6496D01*
X97966Y8163D01*
Y21496D01*
X104633Y8163D02*
Y21496D01*
Y8163D02*
X106299Y6496D01*
X107966Y8163D01*
Y21496D01*
X114633Y8163D02*
Y21496D01*
Y8163D02*
X116299Y6496D01*
X117966Y8163D01*
Y21496D01*
X130669D02*
X160669D01*
Y26496D01*
X130669Y21496D02*
Y26496D01*
X160669D01*
X134003Y8163D02*
Y21496D01*
Y8163D02*
X135669Y6496D01*
X137336Y8163D01*
Y21496D01*
X144003Y8163D02*
Y21496D01*
Y8163D02*
X145669Y6496D01*
X147336Y8163D01*
Y21496D01*
X154003Y8163D02*
Y21496D01*
Y8163D02*
X155669Y6496D01*
X157336Y8163D01*
Y21496D01*
X170039D02*
X200039D01*
Y26496D01*
X170039Y21496D02*
Y26496D01*
X200039D01*
X173373Y8163D02*
Y21496D01*
Y8163D02*
X175039Y6496D01*
X176706Y8163D01*
Y21496D01*
X183373Y8163D02*
Y21496D01*
Y8163D02*
X185039Y6496D01*
X186706Y8163D01*
Y21496D01*
X193373Y8163D02*
Y21496D01*
Y8163D02*
X195039Y6496D01*
X196706Y8163D01*
Y21496D01*
X94685Y306496D02*
Y310039D01*
X89961Y301772D02*
X94685Y306496D01*
X89961Y327756D02*
X94685Y323032D01*
Y319488D02*
Y323032D01*
X68701Y301772D02*
X89961D01*
X68701D02*
Y310039D01*
Y319488D02*
Y327756D01*
X89961D01*
X131004Y263776D02*
X160268D01*
Y265650D01*
X131004Y263776D02*
Y269276D01*
X160268Y274902D02*
Y276776D01*
X131004Y269276D02*
X131768D01*
Y263776D02*
Y269276D01*
Y271276D02*
Y276776D01*
X131004Y271276D02*
X131768D01*
X131004Y276776D02*
X160268D01*
X131004Y271276D02*
Y276776D01*
X144193Y268307D02*
Y272244D01*
Y270276D02*
X146949Y268701D01*
X144193Y270276D02*
X146949Y272244D01*
Y268701D02*
Y272244D01*
X143799Y270276D02*
X144193D01*
X146949D02*
X147736D01*
X94685Y267126D02*
Y270669D01*
X89961Y262402D02*
X94685Y267126D01*
X89961Y288386D02*
X94685Y283661D01*
Y280118D02*
Y283661D01*
X68701Y262402D02*
X89961D01*
X68701D02*
Y270669D01*
Y280118D02*
Y288386D01*
X89961D01*
X26496Y283898D02*
Y343898D01*
X24829D02*
X26496Y342231D01*
X8163Y287231D02*
X21496D01*
X6496Y288898D02*
X8163Y287231D01*
X6496Y288898D02*
X8163Y290564D01*
X21496D01*
X8163Y297231D02*
X21496D01*
X6496Y298898D02*
X8163Y297231D01*
X6496Y298898D02*
X8163Y300564D01*
X21496D01*
X8163Y307231D02*
X21496D01*
X6496Y308898D02*
X8163Y307231D01*
X6496Y308898D02*
X8163Y310564D01*
X21496D01*
X8163Y317231D02*
X21496D01*
X6496Y318898D02*
X8163Y317231D01*
X6496Y318898D02*
X8163Y320564D01*
X21496D01*
X8163Y327231D02*
X21496D01*
X6496Y328898D02*
X8163Y327231D01*
X6496Y328898D02*
X8163Y330564D01*
X21496D01*
X8163Y337231D02*
X21496D01*
X6496Y338898D02*
X8163Y337231D01*
X6496Y338898D02*
X8163Y340564D01*
X21496D01*
Y283898D02*
X26496D01*
X21496D02*
Y343898D01*
X26496D01*
X134055Y283169D02*
X140748D01*
X134055D02*
Y324114D01*
X140748D01*
X214685Y14685D02*
X234685D01*
X214685Y264685D02*
X234685D01*
Y14685D02*
Y264685D01*
X214685Y14685D02*
Y264685D01*
X14685Y14685D02*
X34685D01*
X14685Y264685D02*
X34685D01*
Y14685D02*
Y264685D01*
X14685Y14685D02*
Y264685D01*
X268780Y274370D02*
Y364370D01*
X258780D02*
X268780D01*
X258780Y274370D02*
Y364370D01*
Y274370D02*
X268780D01*
X273681Y63740D02*
Y103740D01*
X268681D02*
X273681D01*
X268681Y63740D02*
X273681D01*
Y67074D02*
X287014D01*
X288681Y68740D01*
X287014Y70407D02*
X288681Y68740D01*
X273681Y70407D02*
X287014D01*
X273681Y77074D02*
X287014D01*
X288681Y78740D01*
X287014Y80407D02*
X288681Y78740D01*
X273681Y80407D02*
X287014D01*
X273681Y87073D02*
X287014D01*
X288681Y88740D01*
X287014Y90407D02*
X288681Y88740D01*
X273681Y90407D02*
X287014D01*
X273681Y97073D02*
X287014D01*
X288681Y98740D01*
X287014Y100407D02*
X288681Y98740D01*
X273681Y100407D02*
X287014D01*
X268681Y63740D02*
Y103740D01*
D12*
X48835Y90873D02*
Y84812D01*
Y87842D01*
X49845Y88852D01*
X51865D01*
X52875Y87842D01*
Y84812D01*
X55906Y89863D02*
Y88852D01*
X54896D01*
X56916D01*
X55906D01*
Y85822D01*
X56916Y84812D01*
X60957Y89863D02*
Y88852D01*
X59947D01*
X61967D01*
X60957D01*
Y85822D01*
X61967Y84812D01*
X64997Y82791D02*
Y88852D01*
X68028D01*
X69038Y87842D01*
Y85822D01*
X68028Y84812D01*
X64997D01*
X71058D02*
X74089D01*
X75099Y85822D01*
X74089Y86832D01*
X72069D01*
X71058Y87842D01*
X72069Y88852D01*
X75099D01*
X77119D02*
X78130D01*
Y87842D01*
X77119D01*
Y88852D01*
Y85822D02*
X78130D01*
Y84812D01*
X77119D01*
Y85822D01*
X82170Y84812D02*
X86211Y88852D01*
X88231Y84812D02*
X92272Y88852D01*
X96313Y82791D02*
X97323D01*
X98333Y83802D01*
Y88852D01*
X95302D01*
X94292Y87842D01*
Y85822D01*
X95302Y84812D01*
X98333D01*
X100353D02*
X102374D01*
X101364D01*
Y88852D01*
X100353D01*
X106414Y89863D02*
Y88852D01*
X105404D01*
X107425D01*
X106414D01*
Y85822D01*
X107425Y84812D01*
X110455Y90873D02*
Y84812D01*
Y87842D01*
X111465Y88852D01*
X113486D01*
X114496Y87842D01*
Y84812D01*
X116516Y88852D02*
Y85822D01*
X117526Y84812D01*
X120557D01*
Y88852D01*
X122577Y90873D02*
Y84812D01*
X125608D01*
X126618Y85822D01*
Y86832D01*
Y87842D01*
X125608Y88852D01*
X122577D01*
X128638Y84812D02*
Y85822D01*
X129648D01*
Y84812D01*
X128638D01*
X137730Y88852D02*
X134699D01*
X133689Y87842D01*
Y85822D01*
X134699Y84812D01*
X137730D01*
X140760D02*
X142781D01*
X143791Y85822D01*
Y87842D01*
X142781Y88852D01*
X140760D01*
X139750Y87842D01*
Y85822D01*
X140760Y84812D01*
X145811D02*
Y88852D01*
X146821D01*
X147831Y87842D01*
Y84812D01*
Y87842D01*
X148842Y88852D01*
X149852Y87842D01*
Y84812D01*
X151872D02*
X155913Y88852D01*
X158943Y84812D02*
X160964D01*
X161974Y85822D01*
Y87842D01*
X160964Y88852D01*
X158943D01*
X157933Y87842D01*
Y85822D01*
X158943Y84812D01*
X168035Y88852D02*
X165004D01*
X163994Y87842D01*
Y85822D01*
X165004Y84812D01*
X168035D01*
X171065Y88852D02*
X173086D01*
X174096Y87842D01*
Y84812D01*
X171065D01*
X170055Y85822D01*
X171065Y86832D01*
X174096D01*
X176116Y84812D02*
X178137D01*
X177127D01*
Y90873D01*
X176116D01*
X181167Y84812D02*
Y88852D01*
X182177D01*
X183187Y87842D01*
Y84812D01*
Y87842D01*
X184198Y88852D01*
X185208Y87842D01*
Y84812D01*
X190259D02*
X188238D01*
X187228Y85822D01*
Y87842D01*
X188238Y88852D01*
X190259D01*
X191269Y87842D01*
Y86832D01*
X187228D01*
X193289Y88852D02*
Y84812D01*
Y86832D01*
X194299Y87842D01*
X195309Y88852D01*
X196320D01*
X203391Y90873D02*
Y84812D01*
X200360D01*
X199350Y85822D01*
Y87842D01*
X200360Y88852D01*
X203391D01*
X41655Y331090D02*
X40645Y332100D01*
X38624D01*
X37614Y331090D01*
Y327049D01*
X38624Y326039D01*
X40645D01*
X41655Y327049D01*
Y329070D01*
X39634D01*
X43675Y326039D02*
Y332100D01*
X47716Y326039D01*
Y332100D01*
X49736D02*
Y326039D01*
X52767D01*
X53777Y327049D01*
Y331090D01*
X52767Y332100D01*
X49736D01*
X41655Y291090D02*
X40645Y292100D01*
X38624D01*
X37614Y291090D01*
Y287050D01*
X38624Y286039D01*
X40645D01*
X41655Y287050D01*
X43675Y292100D02*
Y286039D01*
Y289070D01*
X47716D01*
Y292100D01*
Y286039D01*
X52767D02*
Y292100D01*
X49736Y289070D01*
X53777D01*
X41655Y301090D02*
X40645Y302100D01*
X38624D01*
X37614Y301090D01*
Y297049D01*
X38624Y296039D01*
X40645D01*
X41655Y297049D01*
X43675Y302100D02*
Y296039D01*
Y299070D01*
X47716D01*
Y302100D01*
Y296039D01*
X49736Y301090D02*
X50746Y302100D01*
X52767D01*
X53777Y301090D01*
Y300080D01*
X52767Y299070D01*
X51757D01*
X52767D01*
X53777Y298060D01*
Y297049D01*
X52767Y296039D01*
X50746D01*
X49736Y297049D01*
X41655Y311090D02*
X40645Y312100D01*
X38624D01*
X37614Y311090D01*
Y307049D01*
X38624Y306039D01*
X40645D01*
X41655Y307049D01*
X43675Y312100D02*
Y306039D01*
Y309070D01*
X47716D01*
Y312100D01*
Y306039D01*
X53777D02*
X49736D01*
X53777Y310080D01*
Y311090D01*
X52767Y312100D01*
X50746D01*
X49736Y311090D01*
X41655Y321090D02*
X40645Y322100D01*
X38624D01*
X37614Y321090D01*
Y317050D01*
X38624Y316039D01*
X40645D01*
X41655Y317050D01*
X43675Y322100D02*
Y316039D01*
Y319070D01*
X47716D01*
Y322100D01*
Y316039D01*
X49736D02*
X51757D01*
X50746D01*
Y322100D01*
X49736Y321090D01*
X42049Y342100D02*
X38008D01*
Y339070D01*
X40028Y340080D01*
X41038D01*
X42049Y339070D01*
Y337050D01*
X41038Y336039D01*
X39018D01*
X38008Y337050D01*
X44069Y342100D02*
Y338060D01*
X46089Y336039D01*
X48110Y338060D01*
Y342100D01*
X245100Y70578D02*
X244090Y71589D01*
X242069D01*
X241059Y70578D01*
Y66538D01*
X242069Y65528D01*
X244090D01*
X245100Y66538D01*
Y68558D01*
X243079D01*
X247120Y65528D02*
Y71589D01*
X251161Y65528D01*
Y71589D01*
X253181D02*
Y65528D01*
X256212D01*
X257222Y66538D01*
Y70578D01*
X256212Y71589D01*
X253181D01*
X241059Y81549D02*
X245100D01*
X243079D01*
Y75488D01*
X247120Y81549D02*
X251161Y75488D01*
Y81549D02*
X247120Y75488D01*
X253181Y81549D02*
Y75488D01*
X256212D01*
X257222Y76498D01*
Y80539D01*
X256212Y81549D01*
X253181D01*
X241059Y85488D02*
Y91549D01*
X244090D01*
X245100Y90539D01*
Y88519D01*
X244090Y87508D01*
X241059D01*
X243079D02*
X245100Y85488D01*
X247120Y91549D02*
X251161Y85488D01*
Y91549D02*
X247120Y85488D01*
X253181Y91549D02*
Y85488D01*
X256212D01*
X257222Y86498D01*
Y90539D01*
X256212Y91549D01*
X253181D01*
X251005Y101549D02*
X246965D01*
Y98519D01*
X248985Y99529D01*
X249995D01*
X251005Y98519D01*
Y96498D01*
X249995Y95488D01*
X247975D01*
X246965Y96498D01*
X253026Y101549D02*
Y97509D01*
X255046Y95488D01*
X257066Y97509D01*
Y101549D01*
X195161Y37909D02*
Y43105D01*
X155791Y38402D02*
Y43597D01*
X116323Y38303D02*
Y43499D01*
X75083Y38106D02*
Y43302D01*
X274726Y281169D02*
X273716Y282179D01*
X271695D01*
X270685Y281169D01*
Y280159D01*
X271695Y279149D01*
X273716D01*
X274726Y278138D01*
Y277128D01*
X273716Y276118D01*
X271695D01*
X270685Y277128D01*
X280787Y281169D02*
X279777Y282179D01*
X277756D01*
X276746Y281169D01*
Y277128D01*
X277756Y276118D01*
X279777D01*
X280787Y277128D01*
X282807Y282179D02*
Y276118D01*
X286848D01*
X274726Y291169D02*
X273716Y292179D01*
X271695D01*
X270685Y291169D01*
Y290159D01*
X271695Y289149D01*
X273716D01*
X274726Y288139D01*
Y287128D01*
X273716Y286118D01*
X271695D01*
X270685Y287128D01*
X276746Y292179D02*
Y286118D01*
X279777D01*
X280787Y287128D01*
Y291169D01*
X279777Y292179D01*
X276746D01*
X282807Y286118D02*
Y290159D01*
X284827Y292179D01*
X286848Y290159D01*
Y286118D01*
Y289149D01*
X282807D01*
X274726Y341169D02*
X273716Y342179D01*
X271695D01*
X270685Y341169D01*
Y337128D01*
X271695Y336118D01*
X273716D01*
X274726Y337128D01*
Y339149D01*
X272705D01*
X276746Y336118D02*
Y342179D01*
X280787Y336118D01*
Y342179D01*
X282807D02*
Y336118D01*
X285838D01*
X286848Y337128D01*
Y341169D01*
X285838Y342179D01*
X282807D01*
X270685Y351169D02*
X271695Y352179D01*
X273716D01*
X274726Y351169D01*
Y350159D01*
X273716Y349149D01*
X272705D01*
X273716D01*
X274726Y348138D01*
Y347128D01*
X273716Y346118D01*
X271695D01*
X270685Y347128D01*
X276746Y352179D02*
Y348138D01*
X278766Y346118D01*
X280787Y348138D01*
Y352179D01*
X283817Y346118D02*
X285838D01*
X286848Y347128D01*
Y349149D01*
X285838Y350159D01*
X283817D01*
X282807Y349149D01*
Y347128D01*
X283817Y346118D01*
X270685Y362179D02*
Y358138D01*
X272705Y356118D01*
X274726Y358138D01*
Y362179D01*
X276746Y356118D02*
X278766D01*
X277756D01*
Y360159D01*
X276746D01*
X281797Y356118D02*
Y360159D01*
X284827D01*
X285838Y359149D01*
Y356118D01*
X60159Y231470D02*
X56118D01*
Y228440D01*
X58139D01*
X56118D01*
Y225410D01*
X62179Y231470D02*
Y225410D01*
X66220D01*
X68240Y231470D02*
X70261D01*
X69250D01*
Y225410D01*
X68240D01*
X70261D01*
X77332Y230460D02*
X76322Y231470D01*
X74301D01*
X73291Y230460D01*
Y226420D01*
X74301Y225410D01*
X76322D01*
X77332Y226420D01*
Y228440D01*
X75311D01*
X79352Y231470D02*
Y225410D01*
Y228440D01*
X83393D01*
Y231470D01*
Y225410D01*
X85413Y231470D02*
X89454D01*
X87433D01*
Y225410D01*
X101576Y230460D02*
X100566Y231470D01*
X98545D01*
X97535Y230460D01*
Y226420D01*
X98545Y225410D01*
X100566D01*
X101576Y226420D01*
X106627Y231470D02*
X104606D01*
X103596Y230460D01*
Y226420D01*
X104606Y225410D01*
X106627D01*
X107637Y226420D01*
Y230460D01*
X106627Y231470D01*
X109657Y225410D02*
Y231470D01*
X113698Y225410D01*
Y231470D01*
X115718D02*
X119759D01*
X117739D01*
Y225410D01*
X121779D02*
Y231470D01*
X124810D01*
X125820Y230460D01*
Y228440D01*
X124810Y227430D01*
X121779D01*
X123800D02*
X125820Y225410D01*
X130871Y231470D02*
X128850D01*
X127840Y230460D01*
Y226420D01*
X128850Y225410D01*
X130871D01*
X131881Y226420D01*
Y230460D01*
X130871Y231470D01*
X133901D02*
Y225410D01*
X137942D01*
X139962Y231470D02*
Y225410D01*
X144003D01*
X150064Y231470D02*
X146023D01*
Y225410D01*
X150064D01*
X146023Y228440D02*
X148044D01*
X152084Y225410D02*
Y231470D01*
X155115D01*
X156125Y230460D01*
Y228440D01*
X155115Y227430D01*
X152084D01*
X154105D02*
X156125Y225410D01*
X168247Y230460D02*
X167237Y231470D01*
X165217D01*
X164207Y230460D01*
Y229450D01*
X165217Y228440D01*
X167237D01*
X168247Y227430D01*
Y226420D01*
X167237Y225410D01*
X165217D01*
X164207Y226420D01*
X170267Y231470D02*
Y225410D01*
Y228440D01*
X174308D01*
Y231470D01*
Y225410D01*
X176329Y231470D02*
X178349D01*
X177339D01*
Y225410D01*
X176329D01*
X178349D01*
X185420Y231470D02*
X181379D01*
Y225410D01*
X185420D01*
X181379Y228440D02*
X183400D01*
X187440Y231470D02*
Y225410D01*
X191481D01*
X193501Y231470D02*
Y225410D01*
X196532D01*
X197542Y226420D01*
Y230460D01*
X196532Y231470D01*
X193501D01*
X75907Y242271D02*
X74897Y243282D01*
X72876D01*
X71866Y242271D01*
Y241261D01*
X72876Y240251D01*
X74897D01*
X75907Y239241D01*
Y238231D01*
X74897Y237221D01*
X72876D01*
X71866Y238231D01*
X77927Y243282D02*
X81968D01*
X79948D01*
Y237221D01*
X83988D02*
Y243282D01*
X86009Y241261D01*
X88029Y243282D01*
Y237221D01*
X90049Y242271D02*
X91059Y243282D01*
X93080D01*
X94090Y242271D01*
Y241261D01*
X93080Y240251D01*
X92070D01*
X93080D01*
X94090Y239241D01*
Y238231D01*
X93080Y237221D01*
X91059D01*
X90049Y238231D01*
X100151Y237221D02*
X96110D01*
X100151Y241261D01*
Y242271D01*
X99141Y243282D01*
X97120D01*
X96110Y242271D01*
X106212Y243282D02*
X102171D01*
Y240251D01*
X104192D01*
X102171D01*
Y237221D01*
X111263D02*
Y243282D01*
X108232Y240251D01*
X112273D01*
X120354Y243282D02*
Y237221D01*
X123385D01*
X124395Y238231D01*
Y242271D01*
X123385Y243282D01*
X120354D01*
X126415D02*
X128436D01*
X127426D01*
Y237221D01*
X126415D01*
X128436D01*
X135507Y242271D02*
X134497Y243282D01*
X132476D01*
X131466Y242271D01*
Y241261D01*
X132476Y240251D01*
X134497D01*
X135507Y239241D01*
Y238231D01*
X134497Y237221D01*
X132476D01*
X131466Y238231D01*
X141568Y242271D02*
X140558Y243282D01*
X138538D01*
X137527Y242271D01*
Y238231D01*
X138538Y237221D01*
X140558D01*
X141568Y238231D01*
X146619Y243282D02*
X144598D01*
X143588Y242271D01*
Y238231D01*
X144598Y237221D01*
X146619D01*
X147629Y238231D01*
Y242271D01*
X146619Y243282D01*
X149649D02*
Y239241D01*
X151670Y237221D01*
X153690Y239241D01*
Y243282D01*
X159751D02*
X155710D01*
Y237221D01*
X159751D01*
X155710Y240251D02*
X157731D01*
X161771Y237221D02*
Y243282D01*
X164802D01*
X165812Y242271D01*
Y240251D01*
X164802Y239241D01*
X161771D01*
X163792D02*
X165812Y237221D01*
X167832Y243282D02*
Y242271D01*
X169853Y240251D01*
X171873Y242271D01*
Y243282D01*
X169853Y240251D02*
Y237221D01*
X252020Y280434D02*
X251010Y279424D01*
Y277404D01*
X252020Y276394D01*
X256061D01*
X257071Y277404D01*
Y279424D01*
X256061Y280434D01*
X254040D01*
Y278414D01*
X251010Y282455D02*
X252020D01*
X254040Y284475D01*
X252020Y286495D01*
X251010D01*
X254040Y284475D02*
X257071D01*
Y288516D02*
X251010D01*
Y291546D01*
X252020Y292556D01*
X254040D01*
X255050Y291546D01*
Y288516D01*
Y290536D02*
X257071Y292556D01*
X251010Y297607D02*
Y295587D01*
X252020Y294577D01*
X256061D01*
X257071Y295587D01*
Y297607D01*
X256061Y298618D01*
X252020D01*
X251010Y297607D01*
X252020Y304679D02*
X251010Y303668D01*
Y301648D01*
X252020Y300638D01*
X253030D01*
X254040Y301648D01*
Y303668D01*
X255050Y304679D01*
X256061D01*
X257071Y303668D01*
Y301648D01*
X256061Y300638D01*
X252020Y310739D02*
X251010Y309729D01*
Y307709D01*
X252020Y306699D01*
X256061D01*
X257071Y307709D01*
Y309729D01*
X256061Y310739D01*
X251010Y315790D02*
Y313770D01*
X252020Y312760D01*
X256061D01*
X257071Y313770D01*
Y315790D01*
X256061Y316801D01*
X252020D01*
X251010Y315790D01*
X257071Y318821D02*
X251010D01*
Y321851D01*
X252020Y322862D01*
X254040D01*
X255050Y321851D01*
Y318821D01*
X251010Y328923D02*
Y324882D01*
X257071D01*
Y328923D01*
X254040Y324882D02*
Y326902D01*
X3362Y276295D02*
Y282356D01*
X6393D01*
X7403Y281346D01*
Y279326D01*
X6393Y278316D01*
X3362D01*
X5382D02*
X7403Y276295D01*
X13464Y282356D02*
X9423D01*
Y276295D01*
X13464D01*
X9423Y279326D02*
X11444D01*
X19525Y281346D02*
X18515Y282356D01*
X16494D01*
X15484Y281346D01*
Y277306D01*
X16494Y276295D01*
X18515D01*
X19525Y277306D01*
X25586Y282356D02*
X21545D01*
Y276295D01*
X25586D01*
X21545Y279326D02*
X23566D01*
X27606Y282356D02*
X29627D01*
X28616D01*
Y276295D01*
X27606D01*
X29627D01*
X32657Y282356D02*
Y278316D01*
X34677Y276295D01*
X36698Y278316D01*
Y282356D01*
X42759D02*
X38718D01*
Y276295D01*
X42759D01*
X38718Y279326D02*
X40738D01*
X44779Y276295D02*
Y282356D01*
X47810D01*
X48820Y281346D01*
Y279326D01*
X47810Y278316D01*
X44779D01*
X46800D02*
X48820Y276295D01*
X238598Y61589D02*
X242639D01*
X240619D01*
Y55528D01*
X248700Y61589D02*
X244659D01*
Y55528D01*
X248700D01*
X244659Y58558D02*
X246680D01*
X250721Y61589D02*
Y55528D01*
X254761D01*
X260822Y61589D02*
X256782D01*
Y55528D01*
X260822D01*
X256782Y58558D02*
X258802D01*
X262842Y55528D02*
Y61589D01*
X264863Y59568D01*
X266883Y61589D01*
Y55528D01*
X272944Y61589D02*
X268904D01*
Y55528D01*
X272944D01*
X268904Y58558D02*
X270924D01*
X274965Y61589D02*
X279005D01*
X276985D01*
Y55528D01*
X281026D02*
Y61589D01*
X284056D01*
X285066Y60578D01*
Y58558D01*
X284056Y57548D01*
X281026D01*
X283046D02*
X285066Y55528D01*
X287087Y61589D02*
Y60578D01*
X289107Y58558D01*
X291127Y60578D01*
Y61589D01*
X289107Y58558D02*
Y55528D01*
X177278Y52179D02*
X173343D01*
Y46276D01*
X177278D01*
X173343Y49227D02*
X175310D01*
X183182Y51195D02*
X182198Y52179D01*
X180230D01*
X179246Y51195D01*
Y50211D01*
X180230Y49227D01*
X182198D01*
X183182Y48243D01*
Y47260D01*
X182198Y46276D01*
X180230D01*
X179246Y47260D01*
X189085Y51195D02*
X188101Y52179D01*
X186134D01*
X185150Y51195D01*
Y47260D01*
X186134Y46276D01*
X188101D01*
X189085Y47260D01*
X194005Y46276D02*
Y52179D01*
X191053Y49227D01*
X194989D01*
X137908Y52179D02*
X133972D01*
Y46276D01*
X137908D01*
X133972Y49227D02*
X135940D01*
X143812Y51195D02*
X142828Y52179D01*
X140860D01*
X139876Y51195D01*
Y50211D01*
X140860Y49227D01*
X142828D01*
X143812Y48243D01*
Y47260D01*
X142828Y46276D01*
X140860D01*
X139876Y47260D01*
X149715Y51195D02*
X148731Y52179D01*
X146764D01*
X145780Y51195D01*
Y47260D01*
X146764Y46276D01*
X148731D01*
X149715Y47260D01*
X151683Y51195D02*
X152667Y52179D01*
X154635D01*
X155619Y51195D01*
Y50211D01*
X154635Y49227D01*
X153651D01*
X154635D01*
X155619Y48243D01*
Y47260D01*
X154635Y46276D01*
X152667D01*
X151683Y47260D01*
X98538Y52179D02*
X94602D01*
Y46276D01*
X98538D01*
X94602Y49227D02*
X96570D01*
X104442Y51195D02*
X103458Y52179D01*
X101490D01*
X100506Y51195D01*
Y50211D01*
X101490Y49227D01*
X103458D01*
X104442Y48243D01*
Y47260D01*
X103458Y46276D01*
X101490D01*
X100506Y47260D01*
X110345Y51195D02*
X109361Y52179D01*
X107394D01*
X106410Y51195D01*
Y47260D01*
X107394Y46276D01*
X109361D01*
X110345Y47260D01*
X116249Y46276D02*
X112313D01*
X116249Y50211D01*
Y51195D01*
X115265Y52179D01*
X113297D01*
X112313Y51195D01*
X59168Y52179D02*
X55232D01*
Y46276D01*
X59168D01*
X55232Y49227D02*
X57200D01*
X65072Y51195D02*
X64088Y52179D01*
X62120D01*
X61136Y51195D01*
Y50211D01*
X62120Y49227D01*
X64088D01*
X65072Y48243D01*
Y47260D01*
X64088Y46276D01*
X62120D01*
X61136Y47260D01*
X70975Y51195D02*
X69991Y52179D01*
X68023D01*
X67040Y51195D01*
Y47260D01*
X68023Y46276D01*
X69991D01*
X70975Y47260D01*
X72943Y46276D02*
X74911D01*
X73927D01*
Y52179D01*
X72943Y51195D01*
X262782Y140482D02*
X274590D01*
X262782Y141044D02*
X272904Y144418D01*
X262782Y140482D02*
X274590Y144418D01*
X262782Y148354D02*
X274590Y144418D01*
X262782Y148354D02*
X274590D01*
X262782Y148917D02*
X274590D01*
X262782Y138795D02*
Y141044D01*
Y148354D02*
Y150604D01*
X274590Y138795D02*
Y142169D01*
Y146668D02*
Y150604D01*
X262782Y153640D02*
X274590D01*
X262782Y154202D02*
X274590D01*
X266156Y157576D02*
X270654D01*
X262782Y151953D02*
Y160950D01*
X266156D01*
X262782Y160388D01*
X268405Y154202D02*
Y157576D01*
X274590Y151953D02*
Y160950D01*
X271217D01*
X274590Y160388D01*
X262782Y164268D02*
X274590D01*
X262782Y164830D02*
X274590D01*
X262782Y162581D02*
Y169329D01*
X263344Y171016D01*
X263907Y171578D01*
X265031Y172140D01*
X266156D01*
X267281Y171578D01*
X267843Y171016D01*
X268405Y169329D01*
Y164830D01*
X262782Y169329D02*
X263344Y170453D01*
X263907Y171016D01*
X265031Y171578D01*
X266156D01*
X267281Y171016D01*
X267843Y170453D01*
X268405Y169329D01*
X274590Y162581D02*
Y166517D01*
X268405Y167642D02*
X268968Y168766D01*
X269530Y169329D01*
X273466Y171016D01*
X274028Y171578D01*
Y172140D01*
X273466Y172703D01*
X268968Y168766D02*
X270092Y169329D01*
X274028Y170453D01*
X274590Y171016D01*
Y172140D01*
X273466Y172703D01*
X272904D01*
X262782Y178157D02*
X274590D01*
X262782Y178719D02*
X274590D01*
X262782Y174783D02*
X266156Y174221D01*
X262782D01*
Y182655D01*
X266156D01*
X262782Y182093D01*
X274590Y176470D02*
Y180406D01*
X262782Y198906D02*
X263344Y197219D01*
X264469Y196095D01*
X265594Y195532D01*
X267843Y194970D01*
X269530D01*
X271779Y195532D01*
X272904Y196095D01*
X274028Y197219D01*
X274590Y198906D01*
Y200031D01*
X274028Y201718D01*
X272904Y202842D01*
X271779Y203405D01*
X269530Y203967D01*
X267843D01*
X265594Y203405D01*
X264469Y202842D01*
X263344Y201718D01*
X262782Y200031D01*
Y198906D01*
X263344Y197782D01*
X264469Y196657D01*
X265594Y196095D01*
X267843Y195532D01*
X269530D01*
X271779Y196095D01*
X272904Y196657D01*
X274028Y197782D01*
X274590Y198906D01*
Y200031D02*
X274028Y201155D01*
X272904Y202280D01*
X271779Y202842D01*
X269530Y203405D01*
X267843D01*
X265594Y202842D01*
X264469Y202280D01*
X263344Y201155D01*
X262782Y200031D01*
X264469Y213470D02*
X266156Y214032D01*
X262782D01*
X264469Y213470D01*
X263344Y212345D01*
X262782Y210658D01*
Y209534D01*
X263344Y207847D01*
X264469Y206722D01*
X265594Y206160D01*
X267281Y205598D01*
X270092D01*
X271779Y206160D01*
X272904Y206722D01*
X274028Y207847D01*
X274590Y209534D01*
Y210658D01*
X274028Y212345D01*
X272904Y213470D01*
X271779Y214032D01*
X262782Y209534D02*
X263344Y208409D01*
X264469Y207284D01*
X265594Y206722D01*
X267281Y206160D01*
X270092D01*
X271779Y206722D01*
X272904Y207284D01*
X274028Y208409D01*
X274590Y209534D01*
X262782Y220780D02*
X274590Y216844D01*
X262782Y220780D02*
X274590Y224716D01*
X264469Y220780D02*
X274590Y224154D01*
X271217Y217968D02*
Y223029D01*
X274590Y215719D02*
Y219093D01*
Y222467D02*
Y225841D01*
X262782Y229046D02*
X274590D01*
X262782Y229608D02*
X274590D01*
X262782Y227359D02*
Y231295D01*
X274590Y227359D02*
Y235794D01*
X271217D01*
X274590Y235231D01*
X74803Y334184D02*
X73804Y335184D01*
X71804D01*
X70804Y334184D01*
Y330186D01*
X71804Y329186D01*
X73804D01*
X74803Y330186D01*
X76802Y329186D02*
X78802D01*
X77802D01*
Y335184D01*
X76802Y334184D01*
X186846Y290810D02*
X181847D01*
X180847Y289810D01*
Y287811D01*
X181847Y286811D01*
X186846D01*
X180847Y284812D02*
Y282812D01*
Y283812D01*
X186846D01*
X185846Y284812D01*
X167664Y274274D02*
X161666D01*
Y271275D01*
X162666Y270275D01*
X166665D01*
X167664Y271275D01*
Y274274D01*
X161666Y268276D02*
Y266277D01*
Y267277D01*
X167664D01*
X166665Y268276D01*
X73804Y294519D02*
X72804Y295519D01*
X70804D01*
X69805Y294519D01*
Y290520D01*
X70804Y289521D01*
X72804D01*
X73804Y290520D01*
X79801Y289521D02*
X75803D01*
X79801Y293519D01*
Y294519D01*
X78802Y295519D01*
X76802D01*
X75803Y294519D01*
D13*
X96193Y302515D02*
X93194D01*
X94693Y301015D02*
Y304014D01*
X96193Y263144D02*
X93194D01*
X94693Y261645D02*
Y264644D01*
D14*
X227685Y266353D02*
Y269685D01*
X231017Y266353D01*
X231850D01*
X232683Y267186D01*
Y268852D01*
X231850Y269685D01*
X217685D02*
Y268019D01*
Y268852D01*
X222683D01*
X221850Y269685D01*
X217685Y10690D02*
X222683D01*
X220184Y13189D01*
Y9857D01*
X218518Y8191D02*
X217685Y7357D01*
Y5691D01*
X218518Y4858D01*
X221850D01*
X222683Y5691D01*
Y7357D01*
X221850Y8191D01*
X221017D01*
X220184Y7357D01*
Y4858D01*
X232683Y9857D02*
Y13189D01*
X230184D01*
X231017Y11523D01*
Y10690D01*
X230184Y9857D01*
X228518D01*
X227685Y10690D01*
Y12356D01*
X228518Y13189D01*
X231850Y8191D02*
X232683Y7357D01*
Y5691D01*
X231850Y4858D01*
X228518D01*
X227685Y5691D01*
Y7357D01*
X228518Y8191D01*
X231850D01*
X27685Y266353D02*
Y269685D01*
X31017Y266353D01*
X31850D01*
X32683Y267186D01*
Y268852D01*
X31850Y269685D01*
X17685D02*
Y268019D01*
Y268852D01*
X22683D01*
X21850Y269685D01*
X17685Y10690D02*
X22683D01*
X20184Y13189D01*
Y9857D01*
X18518Y8191D02*
X17685Y7357D01*
Y5691D01*
X18518Y4858D01*
X21850D01*
X22683Y5691D01*
Y7357D01*
X21850Y8191D01*
X21017D01*
X20184Y7357D01*
Y4858D01*
X32683Y9857D02*
Y13189D01*
X30184D01*
X31017Y11523D01*
Y10690D01*
X30184Y9857D01*
X28518D01*
X27685Y10690D01*
Y12356D01*
X28518Y13189D01*
X31850Y8191D02*
X32683Y7357D01*
Y5691D01*
X31850Y4858D01*
X28518D01*
X27685Y5691D01*
Y7357D01*
X28518Y8191D01*
X31850D01*
M02*
