M48
;Layer_Color=9474304
;FILE_FORMAT=2:5
INCH,TZ
;TYPE=PLATED
T2F00S00C0.03543
T3F00S00C0.03950
%
T02
X19685Y19685
Y29685
Y39685
Y49685
Y59685
Y69685
Y79685
Y89685
Y99685
Y109685
Y119685
Y129685
Y139685
Y149685
X29685
Y139685
Y129685
Y119685
Y109685
Y99685
Y89685
Y79685
Y69685
Y59685
Y49685
Y39685
Y29685
Y19685
X219685
Y29685
Y39685
Y49685
Y59685
Y69685
Y79685
Y89685
Y99685
Y109685
Y119685
Y129685
Y139685
Y149685
X229685
Y139685
Y129685
Y119685
Y109685
Y99685
Y89685
Y79685
Y69685
Y59685
Y49685
Y39685
Y29685
Y19685
Y159685
Y169685
Y179685
Y189685
Y199685
Y209685
Y219685
Y229685
Y239685
Y249685
Y259685
X219685
Y249685
Y239685
Y229685
Y219685
Y209685
Y199685
Y189685
Y179685
Y169685
Y159685
X263780Y279370
Y289370
Y299370
Y309370
X29685Y259685
X19685
Y249685
X29685
Y239685
X19685
Y229685
X29685
Y219685
X19685
Y209685
X29685
Y199685
X19685
Y189685
X29685
Y179685
X19685
Y169685
X29685
Y159685
X19685
X263780Y319370
Y329370
Y339370
Y349370
Y359370
T03
X55118Y31496
X65118
X75118
X96299
X106299
X116299
X135669
X145669
X155669
X175039
X185039
X195039
X263681Y68740
Y78740
Y88740
Y98740
X31496Y288898
Y298898
Y308898
Y318898
Y328898
Y338898
M30
